<?xml version="1.0" standalone="no"?>
<!DOCTYPE svg PUBLIC "-//W3C//DTD SVG 20010904//EN"
 "http://www.w3.org/TR/2001/REC-SVG-20010904/DTD/svg10.dtd">
<svg version="1.0" xmlns="http://www.w3.org/2000/svg"
 width="240.000000pt" height="240.000000pt" viewBox="0 0 240.000000 240.000000"
 preserveAspectRatio="xMidYMid meet">

<g transform="translate(0.000000,240.000000) scale(0.100000,-0.100000)"
fill="#000000" stroke="none">
<path d="M1042 2389 c-268 -34 -515 -158 -708 -355 -162 -163 -272 -368 -319
-594 -20 -97 -20 -383 0 -480 76 -360 312 -665 645 -832 334 -169 745 -167
1083 3 314 158 532 427 630 777 19 68 21 103 21 292 0 236 -7 279 -74 447
-200 501 -736 813 -1278 742z m80 -148 c5 -14 7 -34 4 -45 -7 -26 25 -52 74
-60 21 -3 43 -13 48 -22 5 -9 27 -24 50 -34 41 -19 54 -15 58 15 0 6 2 15 2
21 3 20 34 25 56 11 39 -26 125 -49 156 -42 48 11 70 -1 64 -34 -4 -18 1 -39
15 -62 12 -19 21 -41 21 -50 0 -9 7 -22 15 -29 9 -7 14 -18 12 -24 -2 -6 4
-22 14 -35 11 -13 19 -38 19 -56 0 -18 9 -44 20 -58 11 -14 20 -33 20 -42 0
-10 17 -34 38 -54 20 -20 42 -52 47 -71 8 -30 14 -34 35 -32 14 2 30 7 35 12
14 10 85 20 85 12 0 -12 -40 -113 -60 -151 -10 -20 -46 -63 -80 -96 l-62 -60
7 55 c4 30 13 68 21 84 18 36 18 36 -4 36 -10 0 -24 6 -31 13 -10 10 -16 7
-29 -11 -20 -26 -38 -23 -89 17 -24 19 -42 25 -70 22 -46 -3 -58 -14 -48 -38
5 -10 9 -20 10 -23 0 -3 4 -18 8 -34 6 -20 2 -39 -13 -67 -26 -51 -25 -57 7
-61 32 -4 44 -28 14 -28 -12 0 -21 -4 -21 -10 0 -5 9 -10 21 -10 15 0 19 -4
14 -19 -3 -11 -1 -22 5 -26 6 -4 10 10 10 40 0 50 15 64 49 45 22 -11 28 -44
11 -55 -6 -4 -5 -16 3 -33 14 -29 12 -62 -4 -62 -5 0 1 -14 13 -31 16 -23 19
-33 11 -36 -18 -6 -16 -23 2 -23 25 0 17 -18 -12 -28 -25 -9 -26 -10 -5 -11
34 -1 26 -19 -12 -26 -26 -5 -33 -11 -29 -25 3 -12 -3 -22 -19 -30 -19 -10
-21 -10 -10 1 16 17 15 29 -1 29 -7 0 -18 5 -25 12 -9 9 -6 15 16 24 23 11 13
12 -80 13 -117 1 -149 18 -45 24 47 2 39 4 -35 5 -112 2 -128 7 -129 36 l0 21
-16 -23 c-21 -30 -49 -28 -65 6 -7 15 -23 28 -36 30 -18 3 -23 -3 -28 -27 -8
-40 -16 -39 -39 7 -10 20 -19 33 -20 27 -2 -5 -6 -22 -9 -37 -4 -16 -11 -28
-16 -28 -13 0 -1 113 13 121 5 4 7 15 3 25 -6 16 -8 16 -23 2 -10 -11 -16 -36
-17 -75 -1 -73 -20 -81 -24 -11 -3 47 -6 55 -32 70 -24 14 -30 24 -30 52 0 43
31 68 81 64 29 -3 34 0 34 19 0 11 3 25 8 29 15 15 7 63 -13 74 -11 6 -20 7
-20 2 0 -17 -46 -6 -63 16 -18 22 -50 28 -82 16 -14 -6 -13 -9 6 -30 21 -23
22 -25 6 -41 -16 -16 -18 -15 -44 9 -24 22 -37 26 -92 26 -35 1 -80 -6 -99
-13 -24 -10 -39 -12 -52 -5 -16 8 -23 4 -43 -22 -83 -112 -50 -266 68 -319 72
-33 165 -20 209 30 22 24 39 27 55 7 19 -22 -59 -82 -126 -97 -182 -41 -334
114 -295 300 7 31 25 75 41 98 l30 42 -28 20 c-16 11 -34 35 -42 53 -7 18 -24
41 -36 51 -13 10 -21 22 -18 27 3 4 -4 10 -14 13 -27 7 -35 75 -15 122 16 39
11 114 -8 126 -13 8 8 76 31 104 30 37 61 84 61 94 0 5 12 12 26 15 31 8 77
52 69 66 -12 20 16 80 45 95 18 9 31 26 35 45 7 33 16 37 33 17 14 -16 77 -15
117 2 17 7 39 17 50 21 11 4 64 8 118 7 96 -1 99 -1 109 -26z m601 -965 c8
-19 -15 -37 -32 -26 -17 10 -7 40 13 40 7 0 16 -6 19 -14z m-1053 -56 c0 -13
7 -20 20 -20 13 0 20 7 20 20 0 11 5 20 10 20 6 0 10 -27 10 -60 0 -60 -16
-84 -22 -33 -2 17 -10 29 -20 31 -14 3 -18 -3 -18 -27 0 -17 -4 -31 -10 -31
-6 0 -10 27 -10 60 0 33 4 60 10 60 6 0 10 -9 10 -20z m164 -38 c18 -51 15
-85 -5 -49 -6 9 -19 17 -29 17 -10 0 -23 -8 -29 -17 -19 -35 -22 -4 -5 51 22
71 42 70 68 -2z m81 25 l19 -32 4 33 c2 17 7 32 13 32 12 0 12 -107 -1 -115
-5 -3 -20 11 -32 32 l-23 38 -3 -37 c-5 -61 -22 -44 -22 22 0 69 14 78 45 27z"/>
<path d="M1005 1201 c-9 -30 5 -51 34 -50 14 0 20 3 14 6 -24 9 -14 33 15 33
26 1 26 1 8 15 -28 21 -63 19 -71 -4z"/>
<path d="M1650 1210 c0 -5 5 -10 11 -10 5 0 7 5 4 10 -3 6 -8 10 -11 10 -2 0
-4 -4 -4 -10z"/>
<path d="M1120 1111 c0 -6 5 -13 10 -16 6 -3 10 1 10 9 0 9 -4 16 -10 16 -5 0
-10 -4 -10 -9z"/>
<path d="M1260 1030 c0 -5 5 -10 10 -10 6 0 10 5 10 10 0 6 -4 10 -10 10 -5 0
-10 -4 -10 -10z"/>
<path d="M1350 1030 c0 -5 9 -10 20 -10 11 0 20 5 20 10 0 6 -9 10 -20 10 -11
0 -20 -4 -20 -10z"/>
<path d="M790 1186 c0 -9 5 -16 10 -16 6 0 10 4 10 9 0 6 -4 13 -10 16 -5 3
-10 -1 -10 -9z"/>
</g>
</svg>
