<svg width="24" height="24" viewBox="0 0 24 24" fill="none" xmlns="http://www.w3.org/2000/svg">
<path d="M19.75 4C20.3467 4 20.919 4.23705 21.341 4.65901C21.7629 5.08097 22 5.65326 22 6.25V17.755C22 18.3517 21.7629 18.924 21.341 19.346C20.919 19.7679 20.3467 20.005 19.75 20.005H4.25C3.95453 20.005 3.66194 19.9468 3.38896 19.8337C3.11598 19.7207 2.86794 19.5549 2.65901 19.346C2.45008 19.1371 2.28434 18.889 2.17127 18.616C2.0582 18.3431 2 18.0505 2 17.755V6.25C2 5.65326 2.23705 5.08097 2.65901 4.65901C3.08097 4.23705 3.65326 4 4.25 4H19.75ZM9.75 12.5H6.25C6.06876 12.5 5.89366 12.5656 5.75707 12.6848C5.62048 12.8039 5.53165 12.9684 5.507 13.148L5.5 13.25V13.742L5.508 13.85C5.67 14.964 6.602 15.5 8 15.5C9.331 15.5 10.24 15.014 10.464 14.006L10.492 13.851L10.5 13.743V13.25C10.5 13.0688 10.4344 12.8937 10.3152 12.7571C10.1961 12.6205 10.0316 12.5316 9.852 12.507L9.75 12.5ZM17.75 12.996H13.252L13.15 13.003C12.9705 13.0277 12.806 13.1166 12.6869 13.2531C12.5678 13.3897 12.5022 13.5648 12.5022 13.746C12.5022 13.9272 12.5678 14.1023 12.6869 14.2389C12.806 14.3754 12.9705 14.4643 13.15 14.489L13.252 14.496H17.75L17.852 14.489C18.0315 14.4643 18.196 14.3754 18.3151 14.2389C18.4342 14.1023 18.4998 13.9272 18.4998 13.746C18.4998 13.5648 18.4342 13.3897 18.3151 13.2531C18.196 13.1166 18.0315 13.0277 17.852 13.003L17.75 12.996ZM8 8.502C7.60218 8.502 7.22064 8.66003 6.93934 8.94134C6.65804 9.22264 6.5 9.60418 6.5 10.002C6.5 10.3998 6.65804 10.7814 6.93934 11.0627C7.22064 11.344 7.60218 11.502 8 11.502C8.39782 11.502 8.77936 11.344 9.06066 11.0627C9.34196 10.7814 9.5 10.3998 9.5 10.002C9.5 9.60418 9.34196 9.22264 9.06066 8.94134C8.77936 8.66003 8.39782 8.502 8 8.502V8.502ZM17.75 9.5H13.252L13.15 9.507C12.9705 9.5317 12.806 9.62055 12.6869 9.75714C12.5678 9.89372 12.5022 10.0688 12.5022 10.25C12.5022 10.4312 12.5678 10.6063 12.6869 10.7429C12.806 10.8794 12.9705 10.9683 13.15 10.993L13.252 11H17.75L17.852 10.993C18.0315 10.9683 18.196 10.8794 18.3151 10.7429C18.4342 10.6063 18.4998 10.4312 18.4998 10.25C18.4998 10.0688 18.4342 9.89372 18.3151 9.75714C18.196 9.62055 18.0315 9.5317 17.852 9.507L17.75 9.5Z" fill="#DB00FF"/>
</svg>
