<?xml version="1.0" standalone="no"?>
<!DOCTYPE svg PUBLIC "-//W3C//DTD SVG 20010904//EN"
 "http://www.w3.org/TR/2001/REC-SVG-20010904/DTD/svg10.dtd">
<svg version="1.0" xmlns="http://www.w3.org/2000/svg"
 width="200.000000pt" height="200.000000pt" viewBox="0 0 200.000000 200.000000"
 preserveAspectRatio="xMidYMid meet">

<g transform="translate(0.000000,200.000000) scale(0.100000,-0.100000)"
fill="#000000" stroke="none">
<path d="M0 1000 l0 -1000 1000 0 1000 0 0 1000 0 1000 -1000 0 -1000 0 0
-1000z m1072 367 c17 -26 2 -47 -45 -61 -17 -5 -16 -9 8 -54 14 -26 36 -60 48
-76 l22 -27 43 60 c48 69 52 88 18 100 -26 11 -38 33 -30 56 5 13 34 15 174
15 l167 0 7 -87 c6 -74 5 -89 -9 -99 -27 -20 -52 -6 -60 34 -15 78 -46 81
-120 11 -77 -73 -138 -155 -132 -178 9 -34 208 -320 237 -341 16 -12 49 -24
72 -28 39 -7 43 -10 46 -40 l3 -32 -253 2 -253 3 0 30 c0 25 5 30 33 36 18 4
36 9 39 13 9 8 -13 55 -57 120 l-38 59 -35 -54 c-59 -93 -71 -120 -55 -130 7
-5 20 -9 29 -9 24 0 42 -26 34 -50 -6 -19 -13 -20 -234 -20 -254 0 -298 8
-386 71 -138 99 -182 307 -100 475 53 109 182 200 304 213 100 11 515 1 523
-12z m669 -553 c96 -49 55 -194 -55 -194 -81 0 -129 89 -86 158 32 51 86 65
141 36z"/>
<path d="M544 1281 c-67 -41 -104 -125 -104 -237 0 -149 89 -253 231 -270 106
-12 173 30 246 153 l24 42 -30 45 c-17 25 -35 47 -40 51 -21 12 -39 -8 -43
-49 -9 -76 -63 -126 -138 -126 -85 0 -148 71 -137 153 7 53 34 88 85 112 65
30 71 100 12 130 -39 20 -68 19 -106 -4z"/>
</g>
</svg>
