<svg width="32" height="32" viewBox="0 0 32 32" fill="none" xmlns="http://www.w3.org/2000/svg">
<path d="M8.56199 15.256C10.95 16.0954 13.4693 16.4994 16 16.449C18.5308 16.4991 21.05 16.0947 23.438 15.255C25.302 14.528 25.963 13.72 25.963 13.255V9.7C25.3113 10.1364 24.6122 10.4974 23.879 10.776C21.3524 11.6807 18.6833 12.1218 16 12.078C13.3169 12.121 10.648 11.6806 8.12099 10.778C7.38746 10.4994 6.68824 10.1377 6.03699 9.7V13.25C6.03699 13.724 6.69999 14.528 8.56199 15.256Z" fill="#3BAB59"/>
<path d="M8.56199 21.961C9.4056 22.2827 10.2755 22.5307 11.162 22.702C12.756 23.0104 14.3764 23.1621 16 23.155C17.6235 23.1624 19.2439 23.011 20.838 22.703C21.7244 22.5316 22.5944 22.2837 23.438 21.962C25.302 21.235 25.963 20.427 25.963 19.962V16.572C25.4243 16.8961 24.8581 17.1722 24.271 17.397C21.6168 18.3368 18.8152 18.7917 16 18.74C13.1845 18.7901 10.3829 18.3335 7.72899 17.392C7.14211 17.1666 6.57597 16.8906 6.03699 16.567V19.96C6.03699 20.426 6.69999 21.231 8.56199 21.961V21.961Z" fill="#3BAB59"/>
<path d="M16 30C21.5 30 25.963 28.256 25.963 26.106V23.269C25.4729 23.5644 24.9596 23.8192 24.428 24.031L24.271 24.094C21.6173 25.0365 18.8157 25.4942 16 25.445C13.1842 25.4956 10.3823 25.0379 7.72899 24.094C7.67499 24.074 7.62299 24.051 7.57199 24.031C7.04041 23.8192 6.52704 23.5644 6.03699 23.269V26.106C6.03699 28.256 10.5 30 16 30Z" fill="#3BAB59"/>
<path d="M16 9.788C21.5024 9.788 25.963 8.0446 25.963 5.894C25.963 3.7434 21.5024 2 16 2C10.4976 2 6.03699 3.7434 6.03699 5.894C6.03699 8.0446 10.4976 9.788 16 9.788Z" fill="#3BAB59"/>
</svg>
