<?xml version="1.0" standalone="no"?>
<!DOCTYPE svg PUBLIC "-//W3C//DTD SVG 20010904//EN"
 "http://www.w3.org/TR/2001/REC-SVG-20010904/DTD/svg10.dtd">
<svg version="1.0" xmlns="http://www.w3.org/2000/svg"
 width="225.000000pt" height="225.000000pt" viewBox="0 0 225.000000 225.000000"
 preserveAspectRatio="xMidYMid meet">

<g transform="translate(0.000000,225.000000) scale(0.100000,-0.100000)"
fill="#000000" stroke="none">
<path d="M990 2239 c-243 -28 -472 -141 -656 -324 -235 -232 -352 -551 -323
-886 9 -108 11 -122 46 -239 32 -108 101 -243 176 -342 68 -90 205 -221 225
-213 7 2 10 0 7 -5 -6 -10 68 -61 152 -103 441 -223 981 -131 1319 224 270
285 372 679 273 1063 -81 318 -334 610 -638 741 -186 79 -378 107 -581 84z
m240 -29 c171 -18 363 -84 472 -162 16 -10 34 -16 40 -12 7 4 10 4 6 0 -3 -4
19 -28 50 -53 409 -326 533 -885 301 -1346 -132 -261 -359 -456 -637 -546
-132 -43 -222 -55 -385 -48 -164 6 -277 33 -413 96 -203 95 -398 279 -496 468
-18 34 -35 60 -38 58 -3 -2 -6 7 -7 18 -1 12 -15 60 -31 107 -90 257 -67 572
59 823 168 333 498 561 864 596 115 12 111 12 215 1z"/>
<path d="M992 2173 c-22 -3 -32 -9 -29 -17 3 -7 8 -38 12 -69 7 -56 8 -57 40
-57 19 0 40 3 49 6 28 11 17 24 -19 24 -39 0 -49 24 -15 35 28 9 25 25 -5 25
-16 0 -25 6 -25 15 0 10 10 15 30 15 20 0 30 5 30 15 0 15 -5 15 -68 8z"/>
<path d="M1127 2121 c-21 -74 -21 -81 -2 -81 8 0 15 4 15 9 0 21 34 20 54 -1
29 -31 31 -9 7 67 -13 44 -24 61 -38 63 -16 2 -22 -8 -36 -57z m47 -3 c5 -21
3 -28 -9 -28 -17 0 -18 4 -9 38 8 27 9 26 18 -10z"/>
<path d="M1262 2104 c-9 -53 -9 -70 1 -76 8 -5 16 4 23 25 l11 32 16 -37 c23
-55 50 -49 28 6 -5 13 -2 25 11 38 10 10 18 22 18 26 0 20 -28 41 -61 47 l-36
7 -11 -68z m72 28 c2 -4 1 -14 -4 -21 -11 -19 -41 -6 -34 14 6 16 29 20 38 7z"/>
<path d="M840 2136 c-23 -28 -8 -60 33 -69 43 -10 53 -39 11 -35 -35 4 -43
-19 -11 -27 34 -9 67 10 67 39 0 27 -14 41 -52 50 -34 8 -39 39 -6 34 11 -2
23 3 25 10 6 17 -52 16 -67 -2z"/>
<path d="M1427 2116 c-8 -8 -20 -35 -27 -60 -10 -37 -10 -49 0 -61 16 -20 69
-20 77 0 8 23 -5 31 -27 17 -26 -16 -32 -2 -19 39 16 48 28 58 43 37 16 -22
36 -23 36 -4 0 16 -37 46 -57 46 -6 0 -18 -6 -26 -14z"/>
<path d="M735 2103 c-22 -9 -42 -18 -44 -19 -5 -5 40 -123 49 -129 13 -8 90
28 90 43 0 9 -6 12 -16 8 -46 -17 -64 -18 -64 -2 0 9 7 19 15 22 8 4 15 12 15
20 0 10 -7 13 -25 8 -16 -4 -25 -2 -25 5 0 6 11 17 25 23 14 6 25 17 25 25 0
7 -1 13 -2 12 -2 0 -21 -7 -43 -16z"/>
<path d="M1546 2020 c-33 -56 -38 -80 -17 -80 4 0 14 11 21 25 15 28 18 29 40
15 13 -8 13 -13 -3 -39 -14 -25 -15 -30 -2 -35 19 -7 91 112 76 127 -7 7 -16
3 -28 -12 -26 -31 -57 -20 -41 15 8 17 8 28 1 35 -8 8 -21 -7 -47 -51z"/>
<path d="M578 2022 c-16 -9 -28 -21 -28 -27 0 -14 69 -115 79 -115 18 0 20 15
5 38 -20 31 -12 38 20 17 18 -12 30 -14 42 -7 15 9 14 12 -14 26 -21 11 -29
21 -25 31 6 17 -23 55 -41 55 -6 0 -23 -8 -38 -18z m47 -22 c4 -6 1 -17 -5
-26 -11 -12 -14 -12 -25 3 -10 14 -10 20 -2 25 16 10 25 10 32 -2z"/>
<path d="M970 1966 c-171 -37 -306 -110 -431 -235 -103 -103 -166 -206 -211
-341 -26 -81 -31 -115 -36 -227 -4 -113 -1 -147 17 -227 67 -291 274 -519 558
-617 95 -33 102 -34 258 -34 176 0 244 14 370 77 455 228 612 807 335 1233
-115 176 -278 294 -490 357 -86 25 -281 33 -370 14z m230 -31 c-3 -5 -15 -10
-27 -10 -13 1 -23 -3 -23 -7 0 -4 -8 -8 -17 -8 -21 0 -53 -29 -53 -48 0 -10
-7 -12 -24 -8 -18 4 -29 1 -39 -14 -13 -18 -22 -20 -81 -16 -70 5 -79 -1 -45
-33 17 -15 20 -26 14 -53 -4 -18 -13 -43 -21 -56 -8 -12 -11 -28 -7 -35 13
-22 13 -47 -1 -47 -7 0 -21 -9 -30 -19 -10 -11 -26 -18 -36 -16 -14 3 -17 -1
-13 -12 4 -11 2 -14 -5 -9 -7 4 -12 3 -12 -2 0 -13 29 -24 41 -16 5 3 7 10 4
15 -4 5 1 9 10 9 12 0 14 -4 6 -19 -8 -15 -7 -20 5 -25 22 -8 54 -7 54 2 0 9
105 15 131 7 10 -4 19 -11 19 -16 0 -6 -4 -7 -10 -4 -5 3 -10 2 -10 -3 0 -6
-16 -9 -35 -8 -48 4 -169 -37 -173 -58 -2 -9 -8 -16 -13 -16 -5 0 -9 -11 -9
-24 0 -13 -7 -27 -16 -30 -10 -4 -13 -13 -9 -25 3 -11 1 -22 -5 -26 -6 -3 -8
-11 -4 -16 3 -5 0 -16 -6 -24 -14 -16 -1 -20 51 -16 14 1 45 -2 68 -8 52 -11
91 0 145 42 34 27 40 28 48 13 13 -23 47 -20 67 6 l18 21 7 -27 c4 -16 10 -26
13 -23 3 4 15 1 27 -5 35 -20 118 -26 151 -12 39 16 112 74 94 75 -114 4 -153
31 -60 40 31 3 63 9 69 13 18 11 14 36 -5 37 -74 5 -99 14 -67 25 45 14 64 29
62 45 -3 16 57 78 76 79 13 0 -3 50 -26 82 -11 16 -27 28 -37 26 -9 -1 -22 1
-28 5 -21 13 -15 37 8 37 20 0 21 4 14 47 -7 50 -26 75 -59 80 -36 5 -48 12
-40 24 4 7 -4 20 -17 30 -38 30 0 24 88 -13 303 -125 503 -420 505 -743 1 -65
-3 -108 -11 -120 -12 -19 -12 -19 -7 -1 5 15 4 17 -7 8 -8 -7 -17 -9 -20 -5
-4 3 -13 1 -20 -6 -8 -6 -22 -9 -31 -5 -9 3 -16 1 -16 -5 0 -11 13 -15 37 -12
8 1 10 -5 7 -14 -7 -18 -24 -20 -24 -3 0 6 -3 8 -6 5 -4 -3 -15 -2 -25 4 -16
8 -18 6 -16 -12 1 -12 -4 -24 -12 -27 -9 -3 -11 1 -6 17 5 15 2 21 -9 21 -9 0
-15 -5 -13 -12 1 -7 -13 -15 -33 -19 -23 -4 -27 -7 -12 -8 27 -1 22 -16 -8
-24 -11 -3 -18 -2 -16 2 2 3 -2 15 -10 26 -8 11 -14 14 -14 6 0 -9 -11 -12
-35 -9 -25 3 -32 1 -24 -8 7 -8 6 -14 -3 -17 -10 -4 -10 -7 1 -15 9 -7 10 -12
2 -16 -10 -7 -14 0 -27 42 -2 6 -8 12 -14 12 -7 0 -8 -6 -2 -17 5 -10 8 -32 7
-49 -2 -27 0 -30 22 -26 30 6 58 43 40 54 -9 6 -9 10 0 19 10 10 14 6 19 -19
7 -33 24 -45 24 -16 0 8 5 12 10 9 6 -4 8 -10 5 -14 -5 -10 77 9 152 34 30 10
54 24 56 33 3 12 6 9 11 -10 16 -58 -72 -247 -164 -351 -25 -28 -48 -46 -56
-43 -9 3 -14 -1 -14 -12 0 -13 -3 -12 -16 6 -8 12 -20 20 -26 16 -6 -4 -6 -10
1 -17 16 -16 14 -27 -5 -27 -10 0 -14 -5 -10 -16 3 -8 2 -12 -4 -9 -6 3 -13
-2 -17 -12 -10 -26 -31 -45 -43 -38 -5 3 -10 0 -10 -7 0 -7 -9 -19 -20 -26
-17 -10 -23 -10 -36 3 -9 8 -11 15 -5 15 15 0 14 13 -3 36 -12 15 -17 17 -27
6 -11 -10 -10 -12 4 -12 10 0 14 -5 11 -15 -4 -8 -10 -12 -15 -9 -5 3 -9 -7
-9 -23 0 -17 3 -23 8 -16 5 8 13 9 22 3 11 -7 2 -14 -34 -29 -26 -12 -54 -21
-62 -21 -9 0 -24 -5 -34 -10 -15 -8 -18 -7 -14 3 3 8 -4 25 -15 38 -15 17 -21
20 -22 9 0 -8 -2 -24 -2 -35 -2 -25 -22 -32 -23 -8 -2 30 -15 63 -25 63 -5 0
-9 5 -9 10 0 6 7 10 15 10 8 0 15 -4 15 -10 0 -5 5 -10 10 -10 19 0 10 16 -19
33 -35 20 -45 21 -38 5 16 -45 19 -60 7 -53 -8 5 -11 0 -8 -16 2 -17 9 -23 23
-21 16 2 17 1 5 -7 -13 -9 -13 -11 0 -11 11 0 11 -3 2 -12 -9 -9 -15 -9 -24 0
-7 7 -9 12 -4 12 4 0 1 7 -8 15 -8 8 -21 12 -29 9 -17 -6 -21 0 -31 39 -4 19
-3 26 4 22 5 -3 10 1 10 9 0 16 -21 22 -32 10 -4 -3 -2 -19 2 -35 7 -22 5 -29
-5 -29 -8 0 -19 9 -25 20 -7 14 -7 20 0 20 23 0 9 30 -15 32 -14 0 -30 1 -37
2 -17 1 -35 -57 -19 -62 7 -2 17 -16 22 -30 8 -21 12 -23 19 -12 8 13 12 13
34 0 14 -8 25 -19 26 -25 1 -12 -66 -19 -89 -9 -9 4 -28 6 -43 5 -30 -3 -68
14 -68 30 0 6 8 9 18 8 33 -3 44 1 39 14 -3 7 1 21 9 31 7 11 11 23 8 27 -3 5
0 9 5 9 6 0 11 9 11 20 0 28 -18 25 -26 -5 -4 -16 -18 -29 -39 -36 -21 -8 -31
-17 -28 -26 3 -7 1 -13 -5 -13 -6 0 -12 5 -14 12 -7 21 -41 0 -35 -22 3 -11 1
-20 -4 -20 -5 0 -12 12 -15 26 -5 19 -9 22 -15 13 -5 -8 -3 -17 4 -21 7 -4 8
-8 2 -7 -19 0 -70 34 -71 47 -1 6 -2 21 -3 33 0 11 -5 18 -10 15 -5 -3 -7 -15
-4 -26 8 -29 -17 -25 -67 11 -34 24 -40 33 -29 41 10 7 8 8 -9 5 -28 -7 -79
36 -151 127 -41 52 -121 182 -121 197 0 3 53 3 118 1 l117 -4 42 34 41 35 -25
31 c-26 33 -47 43 -37 17 5 -13 -2 -15 -42 -11 -27 2 -51 5 -54 5 -3 1 6 11
19 22 l25 20 -28 -7 c-19 -4 -31 -2 -37 7 -6 11 -11 11 -21 1 -16 -16 -28 -15
-28 1 0 24 49 41 110 40 56 -2 61 0 101 38 23 22 40 41 38 43 -2 2 -17 6 -34
10 -19 4 -25 3 -16 -2 19 -13 4 -52 -19 -52 -10 0 -22 -5 -26 -11 -10 -17 -24
4 -18 29 4 13 14 22 25 22 11 0 19 7 19 18 0 9 3 27 6 40 5 16 3 22 -7 20 -9
-2 -13 4 -11 15 2 10 -6 29 -17 44 -12 14 -21 31 -21 38 0 7 -7 18 -16 26 -13
10 -17 10 -24 -2 -7 -11 -12 -11 -22 -1 -6 6 -18 12 -25 12 -17 0 -17 -37 0
-43 9 -4 9 -7 -1 -15 -7 -5 -12 -13 -11 -18 1 -5 -5 -26 -14 -46 -10 -21 -17
-44 -17 -53 0 -9 -8 -30 -17 -48 -9 -18 -16 -38 -14 -46 2 -10 -5 -12 -24 -9
-32 6 -43 -9 -19 -26 9 -7 14 -18 10 -24 -5 -8 0 -12 13 -12 14 0 21 -6 21
-20 0 -24 -25 -27 -34 -4 -6 15 -9 14 -31 -6 l-23 -22 -12 38 c-18 66 -24 236
-10 321 55 341 319 615 655 678 81 16 223 15 215 0z m45 -4 c3 -5 1 -12 -5
-16 -5 -3 -10 1 -10 9 0 18 6 21 15 7z m-55 -46 c0 -8 -9 -15 -20 -15 -20 0
-26 11 -13 23 12 13 33 7 33 -8z m-50 -9 c0 -3 -4 -8 -10 -11 -5 -3 -10 -1
-10 4 0 6 5 11 10 11 6 0 10 -2 10 -4z m135 -56 c3 -6 -1 -13 -10 -16 -19 -8
-30 0 -20 15 8 14 22 14 30 1z m-117 -27 c3 -19 -1 -23 -22 -21 -20 2 -26 8
-26 26 0 19 5 23 23 20 14 -2 23 -11 25 -25z m-148 -13 c0 -5 -4 -10 -10 -10
-5 0 -10 5 -10 10 0 6 5 10 10 10 6 0 10 -4 10 -10z m420 -6 c0 -8 -5 -12 -10
-9 -6 4 -8 11 -5 16 9 14 15 11 15 -7z m-46 -19 c-4 -8 -10 -12 -15 -9 -11 6
-2 24 11 24 5 0 7 -7 4 -15z m-243 -28 c-13 -13 -26 -3 -16 12 3 6 11 8 17 5
6 -4 6 -10 -1 -17z m89 9 c0 -3 -4 -8 -10 -11 -5 -3 -10 -1 -10 4 0 6 5 11 10
11 6 0 10 -2 10 -4z m-161 -52 c-17 -21 -31 -17 -19 6 6 11 15 18 21 14 6 -4
6 -11 -2 -20z m161 18 c18 -8 20 -26 3 -43 -10 -10 -16 -9 -30 3 -10 8 -24 13
-30 11 -8 -3 -13 4 -13 16 0 16 6 21 28 20 15 0 34 -3 42 -7z m63 -19 c-7 -2
-13 -11 -13 -19 0 -8 -4 -14 -10 -14 -5 0 -10 4 -10 8 0 12 22 32 35 31 5 0 4
-3 -2 -6z m-323 -23 c0 -5 -7 -10 -15 -10 -8 0 -15 5 -15 10 0 6 7 10 15 10 8
0 15 -4 15 -10z m390 -15 c0 -8 -4 -15 -10 -15 -5 0 -10 7 -10 15 0 8 5 15 10
15 6 0 10 -7 10 -15z m-192 -31 c-3 -28 -20 -31 -44 -6 -16 16 -16 17 -1 20 9
2 17 7 17 12 0 5 7 7 15 4 8 -3 14 -17 13 -30z m299 30 c-3 -3 -12 -4 -19 -1
-8 3 -5 6 6 6 11 1 17 -2 13 -5z m-238 -23 c9 -6 5 -8 -13 -8 -14 0 -26 3 -26
8 0 11 21 11 39 0z m161 -21 c0 -20 -25 -38 -37 -26 -5 5 24 46 34 46 1 0 3
-9 3 -20z m-80 -41 c0 -8 -15 -11 -36 -8 -4 0 -10 -4 -14 -11 -9 -14 -58 -18
-61 -5 -1 6 8 15 21 22 26 13 90 15 90 2z m120 -13 c0 -2 -7 -6 -15 -10 -8 -3
-15 -1 -15 4 0 6 7 10 15 10 8 0 15 -2 15 -4z m-290 -10 c0 -2 -7 -9 -15 -16
-12 -10 -15 -10 -15 4 0 9 7 16 15 16 8 0 15 -2 15 -4z m27 -88 c-2 -12 -8
-23 -14 -25 -6 -2 -8 7 -6 22 6 31 24 34 20 3z m113 2 c8 -5 11 -12 8 -16 -10
-9 -38 3 -38 16 0 12 10 13 30 0z m35 -10 c3 -5 1 -10 -4 -10 -6 0 -11 5 -11
10 0 6 2 10 4 10 3 0 8 -4 11 -10z m-371 -26 c4 -10 1 -14 -6 -12 -15 5 -23
28 -10 28 5 0 13 -7 16 -16z m176 -8 c0 -3 -4 -8 -10 -11 -5 -3 -10 -1 -10 4
0 6 5 11 10 11 6 0 10 -2 10 -4z m305 -6 c3 -5 -1 -10 -9 -10 -9 0 -16 5 -16
10 0 6 4 10 9 10 6 0 13 -4 16 -10z m-175 -20 c12 -8 11 -10 -7 -10 -12 0 -25
5 -28 10 -8 13 15 13 35 0z m110 -60 c0 -5 -4 -10 -9 -10 -6 0 -13 5 -16 10
-3 6 1 10 9 10 9 0 16 -4 16 -10z m-760 -128 c0 -14 -39 -32 -46 -21 -4 6 0
15 7 20 17 11 39 12 39 1z m-23 -78 c-3 -3 -12 -4 -19 -1 -8 3 -5 6 6 6 11 1
17 -2 13 -5z m-43 -33 c9 -15 -5 -41 -21 -41 -12 0 -13 3 -3 15 6 8 9 19 5 25
-3 5 -2 10 4 10 5 0 12 -4 15 -9z m1366 -91 c0 -5 -4 -10 -10 -10 -5 0 -10 5
-10 10 0 6 5 10 10 10 6 0 10 -4 10 -10z m-60 -40 c0 -5 -7 -7 -15 -4 -8 4
-15 8 -15 10 0 2 7 4 15 4 8 0 15 -4 15 -10z m-1235 -60 c16 -7 13 -9 -17 -9
-20 -1 -40 4 -43 9 -7 12 32 12 60 0z m-171 -42 c19 -16 -2 -18 -38 -3 -20 9
-34 20 -31 25 6 9 49 -5 69 -22z m172 -10 c4 -5 -31 -8 -77 -7 -46 0 -76 3
-66 7 23 9 133 9 143 0z m470 -435 c-2 -2 -11 0 -20 3 -14 5 -15 9 -5 15 12 7
34 -10 25 -18z"/>
<path d="M855 1620 c3 -5 8 -10 11 -10 2 0 4 5 4 10 0 6 -5 10 -11 10 -5 0 -7
-4 -4 -10z"/>
<path d="M807 1599 c7 -7 15 -10 18 -7 3 3 -2 9 -12 12 -14 6 -15 5 -6 -5z"/>
<path d="M1150 1185 c-12 -14 -12 -19 -2 -23 9 -3 10 -7 2 -17 -6 -7 -13 -62
-15 -122 -3 -68 -1 -99 4 -83 6 17 9 20 10 8 1 -10 5 -18 10 -18 4 0 8 36 8
80 1 53 -3 80 -11 80 -7 0 -6 3 2 9 9 5 12 24 10 56 -3 45 -4 47 -18 30z"/>
<path d="M598 943 c7 -3 16 -2 19 1 4 3 -2 6 -13 5 -11 0 -14 -3 -6 -6z"/>
<path d="M1140 843 c-12 -3 -16 -19 -18 -66 -1 -34 -4 -78 -7 -97 -4 -33 6
-50 31 -50 16 0 25 52 11 68 -8 10 -7 16 2 22 10 5 11 23 6 66 -3 32 -7 59 -8
60 -1 0 -9 -1 -17 -3z"/>
<path d="M1365 831 c4 -13 18 -39 31 -59 14 -21 22 -43 18 -54 -6 -20 3 -23
25 -9 18 11 9 71 -15 103 -11 16 -15 17 -11 6 4 -12 1 -18 -8 -18 -8 0 -15 6
-15 14 0 7 -7 20 -16 27 -15 12 -16 11 -9 -10z"/>
<path d="M1260 752 c0 -17 -10 -38 -25 -52 -15 -14 -25 -35 -25 -51 0 -14 -6
-31 -12 -37 -15 -12 -99 -19 -115 -9 -6 4 -19 4 -30 1 -13 -4 -15 -3 -4 4 8 6
9 12 3 16 -6 3 -13 -2 -17 -13 -10 -33 -88 -43 -112 -13 -13 16 -14 15 -10 -6
6 -27 -18 -41 -36 -23 -9 9 -8 14 3 22 11 8 12 12 3 16 -21 8 -28 -1 -29 -37
0 -19 -5 -48 -9 -65 -8 -27 -7 -29 9 -16 19 16 20 16 39 -29 15 -35 15 -35 16
-7 1 17 -9 38 -25 54 -14 14 -24 26 -22 27 2 1 15 7 30 13 22 10 29 9 44 -8
18 -20 18 -20 25 0 10 25 80 40 209 45 97 3 174 28 166 52 -3 7 2 21 9 31 13
19 12 20 -16 17 -26 -3 -29 -1 -24 15 4 14 0 21 -15 26 -17 5 -20 12 -16 31 4
14 2 24 -4 24 -5 0 -10 -13 -10 -28z m60 -102 c0 -5 -4 -10 -10 -10 -5 0 -10
5 -10 10 0 6 5 10 10 10 6 0 10 -4 10 -10z"/>
<path d="M1050 716 c0 -2 7 -9 15 -16 9 -7 15 -8 15 -2 0 5 -7 12 -15 16 -8 3
-15 4 -15 2z"/>
<path d="M1435 680 c3 -5 10 -10 16 -10 5 0 9 5 9 10 0 6 -7 10 -16 10 -8 0
-12 -4 -9 -10z"/>
<path d="M892 641 c2 -7 7 -12 11 -12 12 1 9 15 -3 20 -7 2 -11 -2 -8 -8z"/>
<path d="M1477 629 c4 -13 8 -18 11 -10 2 7 -1 18 -6 23 -8 8 -9 4 -5 -13z"/>
<path d="M733 585 c-8 -44 -7 -55 4 -55 7 0 13 9 13 20 0 23 6 25 23 8 7 -6
11 -24 9 -40 -3 -16 0 -28 7 -28 6 0 11 11 12 25 0 14 1 40 2 59 0 35 -21 66
-46 66 -9 0 -17 -19 -24 -55z"/>
<path d="M1618 593 c7 -3 16 -2 19 1 4 3 -2 6 -13 5 -11 0 -14 -3 -6 -6z"/>
<path d="M826 553 c-6 -14 -5 -15 5 -6 7 7 10 15 7 18 -3 3 -9 -2 -12 -12z"/>
<path d="M1060 555 c-16 -20 2 -26 44 -14 43 12 43 14 -1 22 -20 4 -35 1 -43
-8z"/>
<path d="M1190 560 c0 -5 5 -10 11 -10 5 0 7 5 4 10 -3 6 -8 10 -11 10 -2 0
-4 -4 -4 -10z"/>
<path d="M1285 560 c-3 -5 -2 -10 4 -10 5 0 13 5 16 10 3 6 2 10 -4 10 -5 0
-13 -4 -16 -10z"/>
<path d="M1361 543 c-1 -7 -8 -13 -16 -13 -8 0 -19 -9 -25 -20 -8 -15 -8 -20
2 -20 18 0 50 39 44 53 -3 9 -5 8 -5 0z"/>
<path d="M1540 542 c0 -12 19 -26 26 -19 2 2 -2 10 -11 17 -9 8 -15 8 -15 2z"/>
<path d="M681 498 c0 -28 2 -30 9 -13 12 28 12 45 0 45 -5 0 -10 -15 -9 -32z"/>
<path d="M1445 521 c-3 -5 -1 -12 5 -16 5 -3 10 1 10 9 0 18 -6 21 -15 7z"/>
<path d="M1394 484 c8 -25 -8 -48 -28 -41 -9 4 -16 2 -16 -3 0 -6 8 -10 18
-10 13 0 14 -2 3 -9 -17 -11 -8 -27 20 -34 16 -4 19 -3 10 6 -16 16 -14 32 3
18 17 -15 28 -1 15 19 -5 8 -9 25 -9 37 0 12 -5 25 -11 29 -7 4 -9 0 -5 -12z"/>
<path d="M865 440 c3 -5 8 -10 11 -10 2 0 4 5 4 10 0 6 -5 10 -11 10 -5 0 -7
-4 -4 -10z"/>
<path d="M1180 405 c1 -26 2 -28 11 -12 8 14 8 22 0 30 -8 8 -11 3 -11 -18z"/>
<path d="M1341 374 c0 -11 3 -14 6 -6 3 7 2 16 -1 19 -3 4 -6 -2 -5 -13z"/>
<path d="M1755 1950 c8 -13 -64 -102 -76 -94 -21 12 -6 -12 16 -29 22 -16 25
-16 25 -2 0 22 60 95 78 95 9 0 5 7 -11 20 -27 22 -42 26 -32 10z"/>
<path d="M445 1920 c-3 -5 -3 -21 1 -35 7 -27 2 -30 -26 -15 -13 7 -21 6 -29
-4 -10 -11 -3 -17 36 -30 27 -9 54 -25 61 -37 11 -16 16 -18 27 -9 13 11 11
17 -10 41 -13 16 -27 45 -31 64 -6 35 -17 44 -29 25z"/>
<path d="M1787 1842 c-26 -26 -47 -51 -47 -55 0 -16 28 -6 50 18 13 14 25 23
27 22 2 -2 -4 -23 -12 -47 -11 -30 -12 -47 -5 -54 14 -14 116 87 105 104 -5 8
-18 2 -42 -21 l-34 -34 16 45 c15 43 14 70 -3 70 -4 0 -29 -22 -55 -48z"/>
<path d="M311 1779 c-26 -34 -32 -25 56 -89 46 -34 65 -22 29 19 l-21 24 36
-7 c26 -5 40 -2 49 9 11 13 9 15 -11 15 -28 0 -40 8 -55 35 -18 32 -55 29 -83
-6z m59 -13 c0 -8 -4 -17 -8 -20 -13 -8 -35 11 -28 23 10 16 36 14 36 -3z"/>
<path d="M1910 1745 c-8 -9 -10 -28 -6 -49 4 -19 2 -37 -3 -40 -11 -7 -35 20
-27 33 3 5 -1 12 -9 15 -37 14 -24 -53 14 -73 13 -7 24 -6 40 6 19 13 21 21
16 54 -6 32 -4 39 9 39 9 0 16 -8 16 -20 0 -11 7 -20 15 -20 21 0 19 33 -3 53
-23 21 -46 22 -62 2z"/>
<path d="M236 1670 c-19 -36 -23 -50 -14 -50 8 0 19 5 25 11 8 8 24 4 58 -16
37 -22 49 -25 58 -15 8 8 8 14 2 16 -5 3 -28 15 -50 27 -30 17 -39 28 -37 44
6 41 -15 32 -42 -17z"/>
<path d="M2009 1653 c-1 -5 -1 -15 0 -23 1 -9 -19 -26 -48 -40 -37 -18 -48
-29 -42 -38 7 -11 19 -8 60 12 44 23 52 24 57 11 5 -13 34 -22 34 -10 0 2 -10
25 -22 50 -20 41 -36 57 -39 38z"/>
<path d="M181 1566 c-7 -8 -11 -27 -9 -43 4 -36 38 -42 75 -13 32 25 56 11 30
-18 -21 -23 -21 -32 -2 -32 21 0 48 45 40 69 -10 31 -43 36 -76 12 -30 -22
-49 -27 -49 -12 0 5 7 14 15 21 8 7 15 16 15 21 0 14 -26 10 -39 -5z"/>
<path d="M2074 1532 c3 -5 -22 -18 -54 -30 -43 -15 -60 -18 -64 -9 -4 7 -4 -1
0 -18 6 -33 24 -58 24 -34 0 16 94 54 110 44 11 -7 12 1 4 33 -4 12 -11 22
-16 22 -5 0 -7 -4 -4 -8z"/>
<path d="M129 1420 c-14 -48 -11 -52 55 -74 64 -21 65 -21 76 9 21 55 23 75 7
75 -9 0 -18 -13 -22 -30 -5 -21 -13 -30 -26 -30 -16 0 -18 5 -13 25 5 19 2 25
-10 25 -9 0 -16 -7 -16 -15 0 -8 -6 -15 -14 -15 -11 0 -13 9 -9 35 8 49 -13
45 -28 -5z"/>
<path d="M2088 1439 c-2 -16 -16 -26 -55 -38 -39 -12 -50 -19 -44 -29 7 -11
17 -11 61 2 65 19 60 19 60 1 0 -8 7 -15 16 -15 12 0 15 6 10 25 -18 71 -41
98 -48 54z"/>
<path d="M2092 1309 c-61 -8 -82 -22 -82 -55 0 -37 28 -57 69 -50 20 3 46 6
59 6 14 0 22 6 22 16 0 14 -8 16 -60 10 -55 -6 -60 -5 -60 12 0 21 25 32 73
32 16 0 30 7 34 15 8 22 5 22 -55 14z"/>
<path d="M118 1298 c-9 -7 -19 -30 -22 -50 l-7 -36 58 -7 c32 -4 64 -7 72 -8
30 -4 21 22 -11 31 l-33 9 38 16 c46 20 53 52 7 36 -23 -8 -34 -7 -52 5 -27
19 -30 19 -50 4z m42 -49 c0 -15 -4 -19 -16 -15 -9 3 -18 6 -20 6 -2 0 -4 7
-4 15 0 8 9 15 20 15 14 0 20 -7 20 -21z"/>
<path d="M2140 1151 c0 -19 -6 -21 -60 -21 -47 0 -60 -3 -60 -15 0 -12 13 -15
60 -15 54 0 60 -2 60 -21 0 -12 5 -19 13 -16 7 2 12 22 12 52 0 30 -5 50 -12
53 -8 2 -13 -5 -13 -17z"/>
<path d="M125 1151 c-27 -6 -30 -10 -30 -46 l0 -40 65 0 c61 0 65 1 74 28 17
47 -32 73 -109 58z m85 -47 c0 -12 -10 -14 -47 -12 -66 4 -70 28 -4 28 39 0
51 -4 51 -16z"/>
<path d="M2016 1028 c-3 -7 -6 -30 -8 -50 -5 -49 17 -51 26 -3 5 24 11 33 21
28 8 -3 15 -14 15 -24 0 -10 7 -19 15 -19 8 0 15 9 15 20 0 12 7 20 16 20 13
0 15 -7 11 -35 -4 -26 -2 -35 9 -35 8 0 14 10 14 23 0 12 3 32 6 44 7 24 1 26
-89 38 -34 5 -48 3 -51 -7z"/>
<path d="M104 1012 c-7 -5 -7 -21 -1 -50 7 -38 11 -43 30 -39 12 3 43 9 70 12
57 9 67 35 12 35 -24 0 -35 5 -35 15 0 8 -7 15 -16 15 -11 0 -14 -5 -10 -17 4
-9 1 -20 -6 -24 -9 -6 -16 2 -23 26 -6 21 -14 32 -21 27z"/>
<path d="M1581 361 c-11 -7 -10 -21 8 -81 14 -44 26 -70 34 -67 7 2 11 12 9
21 -4 24 29 48 46 34 8 -7 16 -8 22 -2 7 7 -9 27 -44 57 -61 52 -56 50 -75 38z
m46 -51 c8 -11 9 -21 3 -25 -8 -5 -30 24 -30 39 0 13 16 5 27 -14z"/>
<path d="M1500 315 c-14 -8 -19 -14 -12 -15 15 0 64 -99 55 -113 -3 -5 4 -6
18 -2 31 9 48 25 28 25 -16 0 -62 97 -53 111 8 13 -7 10 -36 -6z"/>
<path d="M700 288 c-34 -55 -36 -79 -10 -100 13 -10 30 -17 39 -16 22 4 61 66
61 97 0 59 -58 70 -90 19z m60 -8 c0 -16 -33 -80 -41 -80 -18 0 -18 21 -2 54
15 33 43 50 43 26z"/>
<path d="M802 222 c-12 -36 -19 -69 -16 -74 10 -16 22 -8 32 21 8 23 15 28 30
24 11 -2 23 0 27 7 4 7 -1 14 -14 17 -12 3 -21 12 -21 20 0 14 11 13 58 -4 6
-3 12 2 12 10 0 9 -18 21 -43 30 l-44 15 -21 -66z"/>
<path d="M1407 278 c-22 -8 -26 -14 -21 -31 30 -98 62 -140 56 -76 l-2 31 29
-21 c47 -34 72 -23 31 14 -14 12 -18 25 -14 42 12 45 -21 62 -79 41z m53 -32
c0 -15 -24 -28 -34 -19 -13 14 -5 33 14 33 11 0 20 -6 20 -14z"/>
<path d="M1294 249 l-32 -9 16 -62 c8 -35 18 -66 21 -70 10 -12 91 13 91 28 0
17 3 16 -37 5 -26 -8 -32 -6 -36 9 -3 13 2 20 20 24 30 8 21 26 -13 26 -32 0
-27 22 6 30 13 3 25 11 28 18 4 14 -19 14 -64 1z"/>
<path d="M955 193 c-4 -32 -9 -66 -11 -75 -4 -11 0 -18 9 -18 10 0 17 16 22
48 l7 47 20 -52 c27 -75 44 -69 53 18 4 38 4 73 1 77 -11 10 -26 -20 -26 -53
-1 -29 -2 -29 -23 14 -32 64 -44 63 -52 -6z"/>
<path d="M1170 225 c-16 -19 -14 -103 1 -122 7 -8 27 -12 51 -11 38 3 39 4 36
38 -2 28 -8 36 -25 38 -16 2 -23 -2 -23 -12 0 -9 5 -16 11 -16 8 0 8 -5 -1
-15 -19 -23 -30 -8 -30 41 0 45 0 46 30 39 31 -7 39 2 18 23 -17 17 -53 15
-68 -3z"/>
<path d="M1088 221 c16 -9 6 -112 -12 -123 -6 -4 7 -8 29 -8 26 0 35 3 26 9
-16 10 -6 111 13 123 6 4 -7 8 -29 8 -25 0 -35 -3 -27 -9z"/>
</g>
</svg>
