<svg width="256" height="265" viewBox="0 0 256 265" fill="none" xmlns="http://www.w3.org/2000/svg">
<g clip-path="url(#clip0)">
<path d="M199.061 207.635C199.086 217.039 202.381 226.655 202.377 236.059C202.374 245.604 199.071 254.937 199.1 264.483C151.69 264.476 104.277 264.483 56.867 264.479C56.89 255.095 52.449 245.442 52.445 236.059C52.442 226.494 56.875 217.2 56.895 207.635C104.285 207.65 151.671 207.639 199.061 207.635V207.635Z" fill="#3BAB59"/>
<path d="M144.203 50.84C150.789 44.267 161.303 40.805 167.813 34.158C194.788 61.299 221.877 88.334 248.916 115.419C251.352 117.927 254.322 120.235 255.273 123.774C256.202 126.077 255.918 128.586 255.96 131.007C255.964 170.664 255.956 210.317 255.966 249.97C256.565 257.795 249.105 265.104 241.314 264.482C227.242 264.482 213.173 264.486 199.1 264.482C199.043 245.533 199.11 226.584 199.062 207.635C199.096 186.802 199.077 165.973 199.07 145.145C181.507 127.609 163.982 110.035 146.43 92.491C140.308 86.315 134.09 80.229 128.024 74.001C131.35 70.817 140.762 54.273 144.204 50.839L144.203 50.84Z" fill="#4586F7"/>
<path d="M56.849 145.22C56.928 166.023 56.841 186.83 56.894 207.635C56.856 226.584 56.913 245.53 56.868 264.479C42.06 264.472 27.252 264.483 12.444 264.472C6.26 263.695 0.813996 258.489 0.0269963 252.255C-0.0230037 235.535 0.0119963 218.813 0.0159963 202.095C9.883 192.32 16.039 179.625 25.872 169.815C34.981 160.667 47.782 154.41 56.849 145.221V145.22Z" fill="#FDC00D"/>
<path d="M127.246 0.0260025C128.47 0.178002 129.926 -0.303997 131.013 0.382003C133.968 0.958002 136.559 2.667 138.637 4.8C147.465 13.648 156.301 22.488 165.138 31.328C166.024 32.275 167.058 33.09 167.812 34.158C157.9 44.278 147.802 54.214 137.818 64.263C134.544 67.499 131.349 70.818 128.023 74.001C123.635 78.135 119.483 82.511 115.185 86.74C95.747 106.242 76.241 125.673 56.848 145.22C47.781 154.41 38.604 163.496 29.494 172.643C19.662 182.453 9.88199 192.32 0.0149882 202.095C-0.0190118 180.661 0.0149882 159.225 0.00798818 137.794C0.0309882 133.748 -0.0570118 129.701 0.0829882 125.658C0.0429882 124.838 0.658988 124.191 0.620988 123.373C1.19399 122.411 1.70499 121.41 2.26199 120.44C3.66399 118.576 5.40699 117.015 7.03299 115.352C43.814 78.495 80.606 41.646 117.398 4.796C118.903 3.216 120.626 1.78 122.722 1.064C124.192 0.572003 125.647 -0.143997 127.246 0.0260025V0.0260025Z" fill="#EC5043"/>
</g>
<defs>
<clipPath id="clip0">
<rect width="256" height="265" fill="white"/>
</clipPath>
</defs>
</svg>
