<svg width="256" height="256" viewBox="0 0 256 256" fill="none" xmlns="http://www.w3.org/2000/svg">
<g clip-path="url(#clip0)">
<path d="M218.123 218.127H180.192V158.724C180.192 144.559 179.939 126.324 160.464 126.324C140.708 126.324 137.685 141.758 137.685 157.693V218.123H99.755V95.967H136.168V112.661H136.678C140.322 106.43 145.588 101.304 151.915 97.8292C158.242 94.3542 165.393 92.6604 172.606 92.928C211.051 92.928 218.139 118.216 218.139 151.114L218.123 218.127V218.127ZM56.955 79.27C44.798 79.272 34.941 69.418 34.939 57.261C34.937 45.104 44.79 35.247 56.947 35.245C69.104 35.242 78.961 45.096 78.963 57.253C78.9641 63.0911 76.646 68.6904 72.5187 72.8194C68.3915 76.9483 62.7931 79.2687 56.955 79.27V79.27ZM75.921 218.128H37.95V95.967H75.92V218.127L75.921 218.128ZM237.033 0.0180215H18.89C8.58002 -0.0979785 0.125023 8.16102 -0.000976562 18.471V237.524C0.121023 247.839 8.57502 256.106 18.889 255.998H237.033C247.369 256.126 255.856 247.859 255.999 237.524V18.454C255.852 8.12402 247.364 -0.133978 237.033 0.00102154" fill="#0A66C2"/>
</g>
<defs>
<clipPath id="clip0">
<rect width="256" height="256" fill="white"/>
</clipPath>
</defs>
</svg>
