<svg width="200" height="200" viewBox="0 0 200 200" fill="none" xmlns="http://www.w3.org/2000/svg">
<path d="M183.333 71.7333V139.583C183.334 146.501 180.687 153.157 175.936 158.185C171.185 163.214 164.69 166.233 157.783 166.625L156.25 166.667H43.7501C36.8323 166.667 30.1765 164.02 25.1482 159.269C20.1198 154.518 17.1001 148.023 16.7084 141.117L16.6667 139.583V71.7333L97.1001 113.867C97.9949 114.335 98.99 114.58 100 114.58C101.01 114.58 102.005 114.335 102.9 113.867L183.333 71.7333ZM43.7501 33.3333H156.25C162.963 33.3325 169.438 35.825 174.417 40.3272C179.397 44.8295 182.527 51.0207 183.2 57.7L100 101.283L16.8001 57.7C17.4461 51.2859 20.3588 45.3126 25.0147 40.8539C29.6705 36.3951 35.7641 33.7432 42.2001 33.375L43.7501 33.3333H156.25H43.7501Z" fill="#EC5043"/>
</svg>
