<?xml version="1.0" standalone="no"?>
<!DOCTYPE svg PUBLIC "-//W3C//DTD SVG 20010904//EN"
 "http://www.w3.org/TR/2001/REC-SVG-20010904/DTD/svg10.dtd">
<svg version="1.0" xmlns="http://www.w3.org/2000/svg"
 width="913.000000pt" height="900.000000pt" viewBox="0 0 913.000000 900.000000"
 preserveAspectRatio="xMidYMid meet">

<g transform="translate(0.000000,900.000000) scale(0.100000,-0.100000)"
fill="#000000" stroke="none">
<path d="M4176 8973 c-3 -16 -40 -221 -81 -457 -42 -237 -77 -431 -79 -433 -1
-2 -53 -12 -115 -23 -223 -40 -465 -110 -696 -201 -113 -45 -393 -180 -500
-242 l-60 -35 -354 299 c-195 164 -355 299 -357 299 -5 0 -589 -492 -592 -498
-1 -4 101 -185 228 -401 126 -217 230 -398 230 -403 0 -6 -22 -36 -48 -67
-266 -311 -512 -736 -642 -1108 l-33 -93 -467 0 -468 0 -6 -27 c-6 -31 -126
-733 -126 -739 0 -2 4 -4 10 -4 7 0 750 -269 841 -305 13 -5 17 -34 23 -183
17 -435 92 -834 221 -1171 19 -52 34 -95 33 -96 -2 -2 -160 -134 -353 -294
-192 -161 -350 -298 -350 -306 0 -18 368 -664 378 -665 5 0 201 70 437 155
235 85 431 155 436 155 5 0 23 -20 41 -43 56 -74 235 -263 338 -358 192 -177
416 -343 638 -473 53 -31 97 -63 97 -70 0 -7 -33 -204 -74 -437 -41 -233 -76
-435 -78 -448 -3 -23 12 -30 357 -156 198 -73 363 -131 366 -129 3 2 109 184
235 404 l229 401 30 -6 c17 -3 89 -15 160 -25 374 -54 706 -54 1090 1 83 12
158 23 168 23 13 1 76 -100 247 -399 127 -220 234 -400 238 -400 7 0 714 256
721 261 3 3 -142 841 -156 900 -4 18 7 28 64 59 120 67 350 223 481 327 129
103 454 421 527 515 22 29 44 52 49 53 5 0 200 -70 433 -155 234 -85 428 -155
432 -155 5 0 95 149 201 332 127 220 189 336 184 344 -5 7 -164 142 -354 299
-190 158 -346 288 -347 289 -1 1 16 53 38 116 129 368 196 723 206 1107 l6
221 431 157 c237 86 434 159 438 163 4 4 -23 176 -60 382 l-67 375 -466 3
-466 2 -28 77 c-59 166 -164 393 -263 568 -75 133 -245 383 -341 502 -50 62
-91 117 -91 122 0 5 100 181 221 392 122 211 224 390 226 399 3 12 -78 86
-278 256 -155 131 -288 242 -295 246 -7 5 -144 -104 -368 -292 l-357 -299 -87
51 c-345 199 -752 349 -1166 428 -61 11 -112 23 -115 26 -3 3 -42 209 -86 457
l-80 452 -387 3 -386 2 -6 -27z m749 -35 c7 -32 155 -877 155 -886 0 -4 50
-15 111 -25 399 -65 871 -237 1228 -450 l75 -44 340 286 c188 157 348 292 357
298 13 11 56 -21 287 -216 l270 -229 -225 -388 c-124 -214 -227 -394 -230
-401 -2 -6 36 -61 86 -123 191 -238 314 -430 454 -710 56 -113 125 -267 152
-342 l50 -138 462 0 c431 0 462 -1 467 -17 2 -10 31 -166 62 -346 46 -260 55
-330 45 -336 -7 -5 -204 -78 -437 -162 l-424 -154 0 -173 c0 -274 -38 -566
-111 -857 -29 -115 -102 -343 -132 -414 l-15 -35 347 -288 c190 -158 350 -294
354 -301 9 -12 -320 -593 -346 -610 -8 -6 -171 49 -441 148 -236 86 -429 155
-430 153 -1 -2 -26 -32 -56 -68 -282 -336 -619 -620 -992 -835 -51 -29 -94
-59 -96 -66 -1 -8 34 -214 77 -459 43 -245 78 -446 77 -447 -9 -11 -662 -241
-668 -235 -4 4 -107 180 -228 392 -122 212 -225 389 -229 393 -5 5 -69 -1
-142 -13 -206 -33 -406 -50 -604 -50 -246 0 -358 10 -725 67 l-35 5 -223 -389
c-122 -213 -226 -394 -231 -401 -6 -10 -82 14 -336 107 -180 66 -330 123 -333
125 -4 4 142 856 154 897 3 12 -21 30 -88 68 -145 82 -340 215 -477 325 -176
140 -430 395 -558 559 l-21 27 -428 -155 c-235 -85 -433 -155 -439 -155 -10 0
-345 575 -353 605 -1 6 156 144 350 306 l353 294 -43 120 c-143 394 -222 843
-222 1264 l0 98 -426 154 c-234 85 -428 160 -431 167 -3 7 21 166 53 353 l58
339 468 0 c328 0 468 3 468 11 0 27 109 299 175 435 136 285 295 530 499 772
55 67 68 87 60 100 -6 10 -111 189 -234 400 -188 324 -221 385 -209 396 15 14
493 413 520 433 13 11 69 -33 369 -286 l353 -299 61 37 c343 209 845 395 1236
457 96 16 111 21 115 38 8 34 155 875 155 886 0 7 118 10 355 10 l355 0 5 -22z"/>
<path d="M4430 7704 c-859 -46 -1610 -394 -2199 -1018 -461 -490 -753 -1122
-837 -1811 -22 -188 -22 -541 0 -730 124 -1042 723 -1934 1641 -2443 439 -243
924 -374 1440 -389 325 -9 601 22 908 102 1210 313 2140 1336 2341 2575 40
250 52 614 27 840 -79 706 -361 1333 -824 1835 -476 516 -1068 849 -1752 984
-200 39 -550 65 -745 55z m-428 -2127 c55 -32 85 -71 104 -134 21 -70 20 -550
-2 -622 -33 -113 -118 -166 -265 -166 -75 0 -92 4 -144 30 -120 61 -139 133
-132 493 5 272 10 295 77 363 57 57 96 69 220 66 84 -2 101 -6 142 -30z m2110
0 c83 -48 118 -124 118 -254 l0 -73 -110 0 -110 0 0 77 c0 57 -4 81 -17 95
-19 22 -52 23 -79 4 -18 -14 -19 -30 -22 -278 -3 -297 0 -311 58 -316 50 -5
60 15 60 120 l0 88 110 0 110 0 0 -83 c0 -210 -85 -302 -281 -302 -75 0 -92 4
-144 30 -75 38 -111 93 -126 189 -15 94 -7 530 11 576 43 116 125 162 280 157
83 -2 102 -6 142 -30z m-3312 -7 c67 -37 90 -89 90 -202 0 -105 -13 -143 -66
-186 -24 -20 -33 -32 -22 -32 12 0 60 -44 79 -73 1 -1 5 -85 9 -187 3 -102 10
-193 14 -202 8 -17 -1 -18 -103 -18 -107 0 -111 1 -116 23 -2 12 -6 93 -7 179
-3 176 -6 184 -71 195 l-37 6 0 -202 0 -201 -110 0 -110 0 0 466 0 466 203 -4
c194 -3 204 -4 247 -28z m580 21 c0 -8 157 -871 164 -903 4 -16 -7 -18 -114
-18 l-118 0 -7 80 -7 80 -68 0 c-78 0 -74 4 -85 -97 l-7 -63 -109 0 c-60 0
-109 4 -109 8 0 9 157 865 165 900 5 22 8 22 150 22 80 0 145 -4 145 -9z
m1205 -13 c3 -13 39 -212 81 -443 41 -231 78 -430 81 -442 5 -23 4 -23 -110
-23 l-115 0 -6 28 c-3 15 -8 51 -11 80 l-7 52 -68 0 -68 0 -7 -52 c-3 -29 -8
-65 -11 -80 l-6 -28 -109 0 c-108 0 -109 0 -104 23 7 31 165 894 165 901 0 3
65 6 145 6 142 0 145 0 150 -22z m1055 -73 l0 -95 -130 0 -130 0 0 -85 0 -85
115 0 115 0 0 -95 0 -95 -115 0 -115 0 0 -100 0 -100 135 0 135 0 0 -90 0 -90
-245 0 -245 0 0 370 0 370 -70 0 -70 0 0 -370 0 -370 -105 0 -105 0 0 370 0
370 -70 0 -70 0 0 95 0 95 485 0 485 0 0 -95z m860 -75 l0 -170 55 0 55 0 0
170 0 170 110 0 110 0 0 -465 0 -465 -110 0 -110 0 0 200 0 200 -55 0 -55 0 0
-200 0 -200 -110 0 -110 0 0 465 0 465 110 0 110 0 0 -170z m325 -940 c4 -7
-750 -10 -2255 -10 -1505 0 -2259 3 -2255 10 9 14 4501 14 4510 0z m-2636
-189 c43 -30 61 -64 67 -128 l7 -63 -71 0 -71 0 -3 53 c-3 48 -5 52 -28 52
l-25 0 -3 -167 c-2 -153 -1 -168 16 -177 29 -15 41 0 44 59 l3 55 69 3 69 3
-5 -65 c-10 -115 -61 -166 -166 -166 -70 0 -124 28 -148 77 -16 33 -19 61 -19
208 1 185 8 217 60 251 55 36 157 39 204 5z m976 0 c56 -31 65 -66 65 -256 0
-187 -8 -219 -63 -259 -41 -30 -163 -30 -204 0 -53 39 -58 62 -58 259 0 158 2
184 19 211 10 17 28 37 40 44 50 32 145 33 201 1z m1164 0 c43 -30 61 -64 67
-128 l7 -63 -71 0 -71 0 -3 53 c-3 48 -5 52 -28 52 l-25 0 -3 -167 c-2 -153
-1 -168 16 -177 29 -15 41 0 44 59 l3 55 69 3 69 3 -5 -65 c-7 -78 -31 -125
-78 -148 -47 -24 -131 -23 -179 2 -63 32 -71 60 -71 267 0 159 2 181 20 210
31 51 91 75 170 66 25 -3 56 -13 69 -22z m-3499 -42 l0 -62 -40 6 -40 5 0
-219 0 -219 -65 0 -65 0 0 218 0 217 -40 0 -40 0 0 -217 0 -218 -65 0 -65 0 0
275 0 275 210 0 210 0 0 -61z m490 2 l0 -58 -75 1 -75 1 0 -47 0 -47 68 -3 67
-3 3 -57 3 -58 -71 0 -70 0 0 -55 0 -55 80 0 80 0 0 -55 0 -55 -145 0 -145 0
0 275 0 275 140 0 140 0 0 -59z m160 -161 l0 -220 65 0 65 0 0 -55 0 -55 -130
0 -130 0 0 275 0 275 65 0 65 0 0 -220z m428 163 l-3 -58 -78 0 -77 0 0 -47 0
-47 68 -3 67 -3 3 -57 3 -58 -71 0 -70 0 0 -55 0 -55 80 0 80 0 0 -55 0 -55
-145 0 -145 0 0 275 0 275 145 0 146 0 -3 -57z m884 47 c58 -16 78 -50 78
-131 0 -57 -4 -72 -23 -95 l-23 -27 23 -23 c21 -21 23 -32 23 -112 0 -49 3
-104 6 -121 l7 -31 -67 0 c-36 0 -67 1 -67 3 -1 1 -4 52 -8 112 l-6 110 -27 3
-28 3 0 -115 0 -116 -65 0 -65 0 0 218 0 217 -40 0 -40 0 0 -217 0 -218 -65 0
-65 0 0 218 0 217 -40 -1 -40 -2 0 59 0 59 248 0 c138 0 263 -5 284 -10z m668
3 c3 -46 38 -249 39 -223 1 19 8 76 16 125 8 50 15 93 15 98 0 4 45 7 100 7
l100 0 0 -275 0 -275 -65 0 -65 0 -1 178 -1 177 -31 -177 -30 -178 -43 0 c-24
0 -44 3 -44 8 0 4 -14 81 -30 172 l-29 165 0 -172 -1 -173 -65 0 -65 0 0 275
0 275 100 0 c55 0 100 -3 100 -7z m590 -48 c0 -50 -2 -55 -25 -61 -14 -4 -50
-4 -80 -2 l-55 5 0 -48 0 -48 68 -3 67 -3 3 -57 3 -58 -71 0 -70 0 0 -55 0
-55 80 0 80 0 0 -55 0 -55 -145 0 -145 0 0 275 0 275 145 0 145 0 0 -55z m510
-45 l0 -100 30 0 30 0 0 100 0 100 65 0 65 0 0 -275 0 -275 -65 0 -65 0 0 115
0 115 -30 0 -30 0 0 -115 0 -115 -65 0 -65 0 0 275 0 275 65 0 65 0 0 -100z
m-3550 -225 l0 -55 -90 0 -90 0 0 55 0 55 90 0 90 0 0 -55z m580 -390 c0 -48
2 -55 20 -55 11 0 20 -7 20 -15 0 -11 -11 -15 -40 -15 l-40 0 0 70 c0 63 2 70
20 70 18 0 20 -7 20 -55z m330 -15 c0 -63 -2 -70 -20 -70 -18 0 -20 7 -20 70
0 63 2 70 20 70 18 0 20 -7 20 -70z m311 58 c0 -10 2 -10 6 0 2 6 16 12 29 12
23 0 24 -3 24 -70 0 -56 -3 -70 -15 -70 -9 0 -16 10 -16 28 l-2 27 -4 -27 c-4
-28 -32 -40 -34 -15 0 10 -2 10 -6 0 -2 -7 -13 -13 -24 -13 -17 0 -19 8 -19
70 l0 70 30 0 c17 0 30 -5 31 -12z m359 -58 c0 -63 -2 -70 -20 -70 -18 0 -20
7 -20 70 0 63 2 70 20 70 18 0 20 -7 20 -70z m330 55 c0 -8 -4 -15 -10 -15 -5
0 -10 -25 -10 -55 0 -48 -2 -55 -20 -55 -18 0 -20 7 -20 55 0 30 -4 55 -10 55
-5 0 -10 7 -10 15 0 11 11 15 40 15 29 0 40 -4 40 -15z m320 0 c0 -8 -9 -15
-20 -15 -11 0 -20 -4 -20 -10 0 -5 9 -10 20 -10 13 0 20 -7 20 -20 0 -13 -7
-20 -20 -20 -11 0 -20 -4 -20 -10 0 -5 9 -10 20 -10 11 0 20 -7 20 -15 0 -11
-11 -15 -40 -15 l-40 0 0 70 0 70 40 0 c29 0 40 -4 40 -15z m335 -55 l0 -65
-42 -3 -43 -3 0 71 0 71 43 -3 42 -3 0 -65z m1255 -190 c0 -7 -760 -10 -2260
-10 -1500 0 -2260 3 -2260 10 0 7 760 10 2260 10 1500 0 2260 -3 2260 -10z
m-4463 -75 c5 -14 8 -14 25 2 16 14 23 15 39 5 13 -8 19 -9 19 -1 0 14 162 9
172 -5 5 -7 8 -7 8 2 0 22 30 13 31 -10 l0 -23 9 23 c15 35 38 27 45 -15 10
-59 13 -62 14 -10 1 48 9 55 45 41 12 -4 16 -20 16 -55 l0 -48 -110 1 -109 1
-10 41 -9 41 -1 -42 c-1 -31 -5 -43 -16 -43 -11 0 -15 11 -15 40 0 35 -3 40
-22 39 -13 0 -17 -3 -10 -6 14 -6 16 -33 2 -33 -5 0 -10 -9 -10 -20 0 -11 -7
-20 -15 -20 -8 0 -15 5 -15 11 0 6 -7 3 -16 -5 -12 -12 -20 -13 -35 -6 -12 7
-25 7 -36 1 -11 -6 -24 -6 -35 0 -19 10 -25 39 -8 39 6 0 5 8 -2 19 -9 15 -9
23 1 35 17 20 40 21 48 1z m488 6 c3 -6 -3 -14 -12 -20 -10 -6 -12 -11 -5 -11
14 0 17 -30 2 -30 -5 0 -10 -4 -10 -10 0 -5 7 -10 15 -10 8 0 15 -4 15 -10 0
-5 -13 -10 -30 -10 -30 0 -30 1 -30 55 0 52 1 55 24 55 14 0 27 -4 31 -9z m75
-22 c0 -12 -7 -19 -20 -19 -19 0 -28 28 -14 43 11 11 34 -5 34 -24z m160 19
c0 -6 6 -6 16 3 12 10 20 10 34 1 12 -7 21 -8 25 -2 14 23 25 7 27 -37 l2 -48
3 45 4 46 125 1 c124 1 126 0 119 -21 -3 -11 -8 -36 -12 -53 -7 -40 -33 -44
-33 -5 0 15 -5 34 -10 42 -7 11 -10 4 -10 -27 0 -32 -4 -43 -15 -43 -11 0 -15
11 -15 40 0 22 -4 40 -10 40 -5 0 -10 -18 -10 -40 0 -38 -2 -40 -30 -40 -24 0
-30 4 -31 23 -2 22 -2 22 -6 -1 -3 -17 -10 -23 -22 -19 -10 2 -25 0 -34 -4
-10 -6 -20 -4 -29 5 -12 11 -17 11 -33 0 -10 -7 -22 -11 -28 -7 -13 8 -102 7
-115 -1 -6 -3 -18 1 -26 10 -17 17 -21 34 -7 34 4 0 6 12 3 26 -2 14 0 29 6
33 18 11 112 11 112 -1z m439 3 c8 -5 11 -16 8 -25 -4 -9 -2 -16 3 -16 6 0 10
-13 10 -29 0 -22 -5 -30 -24 -33 -40 -8 -49 4 -41 53 10 62 15 68 44 50z m111
-6 c6 -8 9 -23 5 -35 -3 -11 -2 -20 4 -20 5 0 11 15 13 33 2 24 8 32 23 32 15
0 22 -9 26 -35 l6 -35 2 37 1 37 116 -1 115 -1 -6 -25 c-3 -13 -9 -37 -12 -53
-7 -37 -33 -38 -33 -1 0 15 -5 34 -10 42 -7 11 -10 4 -10 -27 0 -32 -4 -43
-15 -43 -11 0 -15 11 -15 40 0 35 -3 40 -22 39 -13 0 -17 -3 -10 -6 14 -6 16
-33 2 -33 -5 0 -10 -4 -10 -10 0 -5 7 -10 15 -10 8 0 15 -4 15 -10 0 -5 -13
-10 -30 -10 -28 0 -30 2 -30 40 0 32 -4 40 -17 39 -11 0 -13 -3 -5 -6 14 -6
16 -33 2 -33 -5 0 -10 -9 -10 -20 0 -18 -6 -20 -60 -18 -32 1 -62 -1 -66 -5
-10 -10 -44 12 -44 28 0 8 5 15 10 15 6 0 5 8 -2 19 -22 36 25 69 52 36z m530
-31 c0 -56 18 -57 22 -1 3 38 6 42 31 45 19 2 27 -1 27 -12 0 -8 -6 -17 -12
-19 -8 -3 -6 -6 5 -6 9 -1 17 5 17 13 0 31 59 29 61 -3 1 -15 2 -15 6 1 5 19
27 30 48 22 10 -4 15 -21 15 -54 0 -38 -4 -49 -19 -53 -22 -5 -36 2 -44 23 -4
12 -6 12 -6 -2 -1 -22 -14 -24 -137 -20 l-104 3 -2 42 -1 42 -4 -42 c-6 -58
-33 -60 -33 -3 0 22 -4 40 -10 40 -5 0 -10 -4 -10 -10 0 -5 -9 -10 -20 -10
-13 0 -20 7 -20 19 0 25 10 28 108 28 l82 1 0 -44z m560 -10 l0 -52 -35 0
c-19 0 -35 4 -35 10 0 5 -7 2 -16 -6 -8 -9 -20 -13 -26 -10 -6 4 -58 7 -114 6
l-104 -1 0 53 0 52 165 0 165 0 0 -52z m35 46 c4 -6 13 -5 25 2 21 13 50 -3
50 -28 0 -17 -27 -18 -33 -1 -3 6 -5 -4 -5 -23 0 -19 2 -29 5 -22 2 6 11 12
19 12 8 0 17 14 21 31 7 34 30 49 44 28 6 -10 9 -10 9 -1 0 8 16 12 45 12 27
0 45 -5 45 -11 0 -8 5 -7 16 2 12 10 20 10 34 1 11 -6 21 -8 24 -3 3 5 20 8
38 7 32 -1 33 -2 36 -54 3 -47 1 -52 -17 -52 -12 0 -21 6 -21 13 0 9 -2 9 -8
0 -7 -11 -15 -13 -67 -13 -11 0 -30 0 -42 0 -20 0 -23 6 -25 43 l-1 42 -4 -43
-4 -42 -62 0 c-34 0 -71 0 -82 0 -70 0 -65 -4 -65 55 0 51 10 69 25 45z m445
-21 c0 -12 -7 -19 -20 -19 -22 0 -29 35 -7 43 18 6 27 -2 27 -24z m63 16 c10
-10 17 -11 19 -4 2 6 23 13 46 15 37 3 42 1 43 -19 l2 -22 4 23 c5 23 33 31
33 10 0 -9 3 -9 8 -2 4 5 24 11 45 12 27 2 37 -1 37 -13 0 -8 -6 -15 -12 -16
-10 0 -10 -2 0 -6 14 -6 16 -33 2 -33 -5 0 -10 -4 -10 -10 0 -5 7 -10 15 -10
11 0 15 12 15 45 0 36 3 45 18 45 31 0 40 -14 40 -62 l1 -48 -64 0 c-45 0 -65
4 -66 13 0 10 -2 10 -6 0 -2 -7 -11 -13 -19 -13 -8 0 -14 6 -14 13 0 8 -3 8
-9 -2 -14 -22 -39 -5 -44 31 l-4 33 -1 -36 c-2 -38 -19 -53 -47 -43 -8 4 -15
16 -15 29 0 18 -4 22 -20 18 -11 -3 -20 -14 -20 -24 0 -11 -7 -19 -15 -19 -12
0 -15 13 -15 55 0 48 3 55 19 55 11 0 26 -7 34 -15z m688 -3 c1 -15 2 -15 6 1
2 9 13 17 24 17 16 0 19 -7 19 -55 l0 -55 -75 0 -75 0 -2 43 -1 42 -4 -42 c-3
-35 -8 -43 -24 -43 -10 0 -19 5 -19 11 0 6 -7 4 -15 -4 -19 -19 -55 -10 -55
13 0 10 4 20 9 22 5 2 3 9 -5 16 -12 11 -14 7 -14 -23 0 -28 -4 -35 -20 -35
-16 0 -20 7 -20 36 0 19 -4 33 -9 30 -4 -3 -6 -16 -4 -30 7 -33 -28 -53 -51
-30 -17 17 -21 34 -7 34 4 0 6 12 3 26 -2 14 0 29 6 33 5 3 83 7 171 8 145 2
161 0 162 -15z m129 -4 c0 -5 7 -2 16 6 19 20 29 20 47 1 10 -10 17 -11 19 -4
6 19 87 19 98 0 8 -14 9 -14 10 2 0 18 15 23 25 7 4 -6 13 -5 26 3 17 10 22 9
35 -7 11 -15 14 -16 14 -5 0 11 10 16 30 16 30 0 30 -1 30 -53 0 -56 -15 -73
-49 -55 -10 6 -23 6 -31 1 -8 -5 -18 -6 -23 -3 -12 7 -123 7 -135 -1 -6 -4
-17 0 -24 7 -11 12 -16 12 -34 0 -19 -12 -24 -12 -38 2 -9 9 -16 25 -16 36 0
12 -7 19 -20 19 -19 0 -28 28 -14 43 8 8 34 -3 34 -15z m388 -26 c2 -23 7 -42
13 -42 5 0 9 -4 9 -10 0 -5 -11 -10 -25 -10 -24 0 -25 3 -25 56 0 67 23 72 28
6z m67 1 l-4 -48 10 48 c9 36 16 47 30 47 13 0 19 -7 20 -22 l0 -23 9 23 c11
26 39 30 41 5 1 -17 2 -17 6 0 5 19 18 22 28 7 4 -6 13 -5 25 2 14 9 22 9 34
-1 9 -8 16 -9 16 -4 0 5 14 10 30 10 34 0 34 -1 18 -62 -15 -54 -38 -61 -38
-10 0 27 -3 33 -16 28 -9 -3 -20 0 -25 8 -6 10 -8 3 -8 -21 0 -19 3 -29 6 -22
7 17 33 15 33 -3 0 -16 -34 -38 -43 -28 -3 3 -51 5 -107 5 l-100 -1 0 38 c0
22 -5 41 -12 43 -19 7 1 28 27 28 23 0 24 -3 20 -47z m-1719 -1278 c4 -8 12
-15 20 -15 10 0 14 -14 14 -50 l0 -51 -43 2 c-24 2 -48 -1 -54 -4 -16 -10 -43
2 -43 19 0 10 -6 8 -20 -6 -16 -16 -25 -18 -39 -10 -13 7 -20 7 -23 -1 -2 -5
-11 -7 -21 -4 -12 5 -18 20 -19 49 l-1 41 -4 -41 c-3 -35 -8 -43 -28 -46 -13
-3 -28 -1 -33 4 -6 6 -17 6 -30 -1 -36 -19 -52 -4 -52 49 l0 48 72 0 c43 0 74
5 76 11 5 16 29 14 35 -3 4 -9 15 -12 33 -8 19 3 31 0 41 -13 12 -17 13 -17
13 -2 0 20 55 24 63 5 3 -7 6 -1 6 15 1 29 27 38 37 12z m-725 -32 c1 -17 2
-17 6 0 5 19 33 23 34 5 0 -10 2 -10 6 0 3 8 28 12 75 12 61 0 69 -2 64 -17
-2 -10 -7 -33 -11 -50 -6 -30 -10 -33 -45 -33 -35 0 -39 3 -46 33 l-8 32 -5
-30 c-6 -27 -10 -30 -49 -32 -39 -3 -42 -1 -42 23 0 14 -4 23 -10 19 -5 -3
-10 -15 -10 -26 0 -16 -7 -19 -40 -19 -34 0 -40 3 -45 25 -3 14 -7 36 -10 50
-5 25 -5 25 65 25 60 0 70 -3 71 -17z m339 -32 c0 -44 -3 -49 -24 -53 -35 -7
-50 5 -44 36 3 14 1 26 -3 26 -5 0 -9 -13 -9 -30 0 -28 -2 -30 -40 -30 -29 0
-40 4 -40 15 0 8 9 15 20 15 16 0 20 7 20 34 l0 34 60 1 60 0 0 -48z m610 -1
c0 -52 -16 -68 -51 -50 -13 7 -25 7 -38 0 -35 -18 -51 -2 -51 50 l0 48 70 0
70 0 0 -48z m118 -2 l3 -48 -35 0 c-35 0 -36 2 -38 38 l-1 37 -4 -37 c-3 -25
-9 -38 -19 -38 -10 0 -14 13 -14 51 l0 50 53 -3 52 -3 3 -47z m-268 -33 c0 -8
-7 -15 -15 -15 -8 0 -15 7 -15 15 0 8 7 15 15 15 8 0 15 -7 15 -15z"/>
<path d="M3804 5426 c-18 -14 -19 -30 -22 -278 -3 -297 0 -311 58 -316 59 -6
60 1 60 298 0 224 -2 269 -16 288 -17 25 -51 29 -80 8z"/>
<path d="M2570 5330 l0 -100 30 0 c20 0 40 9 57 26 23 23 25 31 21 86 -5 69
-21 88 -75 88 l-33 0 0 -100z"/>
<path d="M3230 5360 c-1 -3 -12 -83 -24 -177 l-22 -173 43 0 c40 0 43 2 42 28
0 34 -36 329 -39 322z"/>
<path d="M4412 5209 c-12 -101 -22 -187 -22 -191 0 -5 20 -8 44 -8 l45 0 -5
33 c-3 17 -13 104 -22 191 l-18 160 -22 -185z"/>
<path d="M5040 4201 c-5 -11 -10 -84 -10 -165 0 -118 3 -147 16 -160 12 -12
20 -13 35 -6 17 10 19 23 19 165 0 84 -3 160 -6 169 -8 22 -41 20 -54 -3z"/>
<path d="M4680 4160 c0 -62 6 -69 44 -54 25 9 22 90 -3 104 -36 18 -41 12 -41
-50z"/>
<path d="M5533 3590 c0 -25 2 -35 4 -22 2 12 2 32 0 45 -2 12 -4 2 -4 -23z"/>
<path d="M2412 3280 c0 -19 2 -27 5 -17 2 9 2 25 0 35 -3 9 -5 1 -5 -18z"/>
<path d="M2365 3291 c-3 -5 -1 -12 5 -16 5 -3 10 1 10 9 0 18 -6 21 -15 7z"/>
<path d="M2652 3265 c0 -16 2 -22 5 -12 2 9 2 23 0 30 -3 6 -5 -1 -5 -18z"/>
<path d="M3068 3303 c7 -3 16 -2 19 1 4 3 -2 6 -13 5 -11 0 -14 -3 -6 -6z"/>
<path d="M3122 3280 c0 -19 2 -29 5 -22 2 6 11 12 19 12 8 0 14 5 14 10 0 6
-6 10 -14 10 -8 0 -17 6 -19 13 -3 6 -5 -4 -5 -23z"/>
<path d="M3060 3260 c0 -5 7 -10 15 -10 8 0 15 5 15 10 0 6 -7 10 -15 10 -8 0
-15 -4 -15 -10z"/>
<path d="M4110 3306 c0 -2 7 -6 15 -10 8 -3 15 -1 15 4 0 6 -7 10 -15 10 -8 0
-15 -2 -15 -4z"/>
<path d="M4290 3280 c0 -5 7 -10 15 -10 8 0 15 5 15 10 0 6 -7 10 -15 10 -8 0
-15 -4 -15 -10z"/>
<path d="M4110 3260 c0 -5 7 -10 15 -10 8 0 15 5 15 10 0 6 -7 10 -15 10 -8 0
-15 -4 -15 -10z"/>
<path d="M4230 3260 c0 -5 7 -10 16 -10 8 0 12 5 9 10 -3 6 -10 10 -16 10 -5
0 -9 -4 -9 -10z"/>
<path d="M4902 3285 c0 -16 2 -22 5 -12 2 9 2 23 0 30 -3 6 -5 -1 -5 -18z"/>
<path d="M5022 3280 c0 -19 2 -27 5 -17 2 9 2 25 0 35 -3 9 -5 1 -5 -18z"/>
<path d="M5797 3297 c-3 -8 -1 -20 4 -28 6 -10 9 -7 9 14 0 29 -5 35 -13 14z"/>
<path d="M5898 3303 c14 -6 16 -33 2 -33 -5 0 -10 -4 -10 -10 0 -5 7 -10 15
-10 10 0 15 10 15 30 0 22 -5 30 -17 29 -11 0 -13 -3 -5 -6z"/>
<path d="M6192 3280 c0 -14 2 -19 5 -12 2 6 2 18 0 25 -3 6 -5 1 -5 -13z"/>
<path d="M6365 3291 c-3 -5 -1 -12 5 -16 5 -3 10 1 10 9 0 18 -6 21 -15 7z"/>
<path d="M6130 3280 c0 -5 7 -10 15 -10 8 0 15 5 15 10 0 6 -7 10 -15 10 -8 0
-15 -4 -15 -10z"/>
<path d="M6310 3280 c0 -5 5 -10 11 -10 5 0 7 5 4 10 -3 6 -8 10 -11 10 -2 0
-4 -4 -4 -10z"/>
<path d="M4632 1945 c0 -16 2 -22 5 -12 2 9 2 23 0 30 -3 6 -5 -1 -5 -18z"/>
<path d="M4750 1951 c0 -5 9 -7 20 -4 11 3 20 7 20 9 0 2 -9 4 -20 4 -11 0
-20 -4 -20 -9z"/>
<path d="M4940 1951 c0 -5 9 -7 20 -4 11 3 20 7 20 9 0 2 -9 4 -20 4 -11 0
-20 -4 -20 -9z"/>
</g>
</svg>
