<?xml version="1.0" standalone="no"?>
<!DOCTYPE svg PUBLIC "-//W3C//DTD SVG 20010904//EN"
 "http://www.w3.org/TR/2001/REC-SVG-20010904/DTD/svg10.dtd">
<svg version="1.0" xmlns="http://www.w3.org/2000/svg"
 width="1481.000000pt" height="503.000000pt" viewBox="0 0 1481.000000 503.000000"
 preserveAspectRatio="xMidYMid meet">
<metadata>
Created by potrace 1.16, written by Peter Selinger 2001-2019
</metadata>
<g transform="translate(0.000000,503.000000) scale(0.100000,-0.100000)"
fill="#000000" stroke="none">
<path d="M8620 3900 l0 -210 25 0 25 0 0 210 0 210 -25 0 -25 0 0 -210z"/>
<path d="M8662 3574 c-12 -8 -22 -22 -22 -30 0 -20 -13 -18 -33 6 -21 25 -68
26 -90 2 -13 -15 -17 -39 -17 -110 0 -55 4 -92 10 -92 6 0 10 7 10 15 0 13 22
15 134 15 98 0 136 -3 139 -12 3 -7 6 25 6 71 1 82 0 84 -33 117 -37 37 -69
43 -104 18z"/>
<path d="M5231 3370 c-147 -21 -285 -84 -372 -171 -170 -169 -183 -455 -28
-610 91 -91 196 -136 499 -214 240 -62 306 -85 362 -128 73 -57 83 -77 83
-175 0 -70 -5 -95 -22 -128 -61 -114 -198 -173 -404 -174 -193 0 -350 49 -508
161 -75 53 -116 52 -145 -2 -18 -32 -18 -41 -7 -78 31 -104 274 -220 525 -251
392 -50 715 121 767 405 25 134 -18 275 -108 354 -92 82 -175 115 -503 201
-366 96 -451 164 -438 350 14 196 190 302 477 287 156 -7 250 -44 415 -162 87
-63 146 -40 146 54 0 42 -4 49 -54 97 -146 138 -444 218 -685 184z"/>
<path d="M8980 3342 l-30 -30 0 -821 0 -820 24 -28 24 -28 500 0 c478 0 501 1
521 19 14 13 21 31 21 57 0 101 8 99 -480 99 l-410 0 0 759 0 760 -23 26 c-16
20 -35 28 -69 32 -42 5 -50 3 -78 -25z"/>
<path d="M8785 3315 c-6 -8 -72 -41 -148 -73 -76 -32 -138 -63 -139 -68 0 -5
60 -35 133 -67 74 -32 142 -67 152 -78 17 -21 17 -20 16 32 0 43 -2 49 -9 31
-9 -22 -11 -22 -46 -7 -20 8 -38 15 -40 15 -2 0 -4 27 -4 61 0 59 1 60 35 75
46 19 53 18 58 -8 2 -13 5 5 6 40 0 34 0 62 -2 62 -1 0 -7 -7 -12 -15z"/>
<path d="M8787 2890 c-5 -18 -14 -20 -80 -20 -59 0 -77 -4 -90 -18 -21 -23
-22 -71 -1 -100 14 -20 14 -22 -2 -22 -12 0 -15 -6 -10 -22 3 -13 6 -29 6 -35
0 -7 5 -13 10 -13 6 0 10 7 10 15 0 24 145 22 159 -2 8 -14 10 -5 10 37 0 42
-2 51 -10 38 -8 -14 -24 -18 -72 -18 -71 0 -87 10 -87 56 0 39 11 44 101 44
l69 0 0 40 c0 44 -5 51 -13 20z"/>
<path d="M7536 2758 c-185 -35 -333 -187 -381 -389 -22 -95 -20 -287 5 -383
49 -193 181 -328 361 -371 76 -17 197 -19 271 -4 72 15 189 72 233 113 31 30
36 40 33 72 -6 71 -30 69 -158 -12 -82 -52 -145 -67 -259 -62 -110 5 -165 24
-229 83 -88 79 -132 207 -132 379 0 218 72 366 208 433 47 23 73 28 153 31
122 5 180 -11 283 -78 102 -67 136 -65 136 8 0 27 -8 42 -36 67 -109 100 -312
147 -488 113z"/>
<path d="M10623 2760 c-28 -12 -16 14 -284 -583 -248 -552 -245 -541 -184
-569 48 -22 66 -1 135 151 l63 141 307 0 307 0 58 -136 c36 -83 68 -142 81
-151 39 -25 94 4 94 50 0 8 -106 250 -235 538 -156 348 -244 532 -261 547 -27
23 -45 26 -81 12z m162 -450 c64 -146 119 -271 122 -277 4 -10 -49 -13 -247
-13 -236 0 -252 1 -246 18 33 88 242 549 247 544 4 -4 59 -126 124 -272z"/>
<path d="M12526 2749 l-26 -20 0 -545 c0 -531 0 -544 20 -564 25 -25 51 -25
79 -2 21 17 21 23 24 440 l2 422 175 -330 c96 -182 183 -340 193 -350 28 -31
81 -27 105 8 10 15 95 173 188 352 l169 325 5 -428 c5 -414 6 -429 25 -443 23
-17 64 -11 83 13 9 13 12 141 12 559 l0 543 -26 20 c-34 27 -47 26 -78 -1 -14
-13 -116 -200 -227 -417 -183 -357 -204 -392 -216 -375 -8 10 -100 185 -206
389 -105 203 -204 382 -218 398 -33 32 -48 34 -83 6z"/>
<path d="M6266 2739 l-26 -20 0 -534 0 -534 22 -21 c21 -19 34 -20 348 -20
352 0 370 3 370 54 0 56 0 56 -315 58 l-290 3 0 205 0 205 270 2 c261 3 271 4
288 24 22 28 22 44 -3 69 -19 19 -33 20 -290 20 l-270 0 0 195 0 194 291 3
c274 3 291 4 305 22 19 27 18 52 -6 76 -19 19 -33 20 -344 20 -312 0 -324 -1
-350 -21z"/>
<path d="M11412 2744 l-22 -15 0 -543 c0 -418 3 -546 13 -559 21 -27 60 -31
90 -7 l27 21 0 225 0 224 140 0 c209 0 197 9 384 -287 123 -195 147 -219 194
-193 51 29 43 56 -69 233 -113 178 -138 212 -180 243 -31 22 -29 34 5 34 36 0
123 47 164 88 108 108 111 329 6 442 -86 92 -168 110 -499 110 -193 0 -234 -3
-253 -16z m571 -120 c77 -26 127 -101 127 -192 0 -62 -22 -123 -56 -158 -54
-54 -108 -64 -336 -64 l-198 0 0 215 0 215 208 0 c164 0 218 -3 255 -16z"/>
<path d="M8626 2619 c-52 -41 -26 -140 42 -158 48 -14 48 -14 87 4 50 25 69
84 43 140 -17 38 -26 30 -21 -19 4 -35 1 -48 -16 -65 -11 -11 -30 -21 -41 -21
-18 0 -20 7 -20 70 0 67 -1 70 -24 70 -13 0 -35 -9 -50 -21z"/>
<path d="M8790 2416 c0 -20 -92 -30 -207 -23 -101 7 -102 6 -87 -50 7 -25 24
-31 24 -9 0 9 14 15 40 18 l40 4 0 -40 c0 -84 71 -141 145 -116 58 19 84 90
45 125 -24 21 -26 37 -5 29 12 -5 15 3 15 35 0 23 -2 41 -5 41 -3 0 -5 -6 -5
-14z m-25 -87 c45 -44 -27 -108 -99 -88 -48 14 -60 54 -30 98 15 20 22 22 63
16 25 -3 55 -15 66 -26z"/>
<path d="M8631 1964 c-27 -22 -31 -32 -31 -76 0 -41 5 -54 29 -79 66 -65 180
-18 181 75 0 30 -7 45 -34 72 -44 44 -99 47 -145 8z m145 -35 c19 -16 18 -63
-3 -82 -26 -23 -88 -31 -123 -17 -56 23 -48 91 13 109 38 12 93 7 113 -10z"/>
<path d="M8500 1699 c0 -31 4 -48 10 -44 6 3 10 13 10 21 0 11 22 14 116 14
l116 0 -44 -36 c-23 -20 -80 -66 -125 -101 -79 -62 -83 -66 -83 -104 0 -24 4
-38 10 -34 6 3 10 13 10 21 0 11 24 14 130 14 126 0 131 -1 140 -22 7 -18 9
-10 8 32 0 30 -2 47 -5 38 -6 -25 -33 -29 -143 -26 l-95 3 122 98 c110 89 133
112 133 137 0 4 -40 5 -89 2 -113 -6 -201 4 -201 24 0 8 -4 14 -10 14 -5 0
-10 -23 -10 -51z"/>
<path d="M8622 1143 c3 -200 4 -208 23 -208 19 0 20 8 23 208 l2 207 -25 0
-25 0 2 -207z"/>
</g>
</svg>
