<svg width="209" height="224" viewBox="0 0 209 224" fill="none" xmlns="http://www.w3.org/2000/svg">
<path d="M207.91 155.97C208.979 157.803 209.276 159.985 208.736 162.036C208.196 164.088 206.863 165.841 205.031 166.91L109.031 222.91C107.808 223.624 106.416 224 105 224C103.584 224 102.192 223.624 100.969 222.91L4.96902 166.91C4.05405 166.385 3.25206 165.683 2.60924 164.847C1.96642 164.01 1.49547 163.054 1.22351 162.035C0.951543 161.015 0.883941 159.952 1.02459 158.906C1.16524 157.861 1.51137 156.853 2.04304 155.942C2.57471 155.03 3.28142 154.233 4.12247 153.596C4.96353 152.959 5.92231 152.494 6.94362 152.229C7.96492 151.964 9.02857 151.904 10.0733 152.051C11.1181 152.199 12.1232 152.552 13.031 153.09L105 206.738L196.969 153.09C198.802 152.021 200.984 151.724 203.036 152.264C205.088 152.804 206.841 154.137 207.91 155.97ZM196.969 105.09L105 158.738L13.03 105.09C12.122 104.544 11.1146 104.184 10.0663 104.031C9.01803 103.878 7.94978 103.935 6.92354 104.198C5.8973 104.461 4.93351 104.925 4.08811 105.563C3.24272 106.202 2.53255 107.002 1.99883 107.917C1.46511 108.832 1.11847 109.844 0.979027 110.894C0.839584 111.944 0.910115 113.012 1.18653 114.034C1.46294 115.057 1.93973 116.015 2.58922 116.852C3.23871 117.689 4.04797 118.388 4.97002 118.91L100.97 174.91C102.193 175.623 103.584 175.999 105 175.999C106.416 175.999 107.807 175.623 109.03 174.91L205.031 118.91C206.848 117.833 208.166 116.082 208.697 114.037C209.227 111.992 208.928 109.821 207.863 107.996C206.799 106.172 205.056 104.842 203.015 104.298C200.974 103.753 198.801 104.038 196.969 105.09V105.09ZM1.00002 64C1.00016 62.6017 1.36679 61.2279 2.06336 60.0155C2.75994 58.8031 3.76212 57.7944 4.97002 57.09L100.97 1.09C102.193 0.376564 103.584 0.000640869 105 0.000640869C106.416 0.000640869 107.807 0.376564 109.03 1.09L205.031 57.09C206.239 57.7946 207.241 58.8033 207.937 60.0157C208.633 61.2281 209 62.6019 209 64C209 65.3981 208.633 66.7719 207.937 67.9843C207.241 69.1967 206.239 70.2054 205.031 70.91L109.031 126.91C107.808 127.624 106.416 128 105 128C103.584 128 102.192 127.624 100.969 126.91L4.96902 70.91C3.76131 70.2055 2.75932 69.1968 2.06293 67.9844C1.36654 66.7719 1.00006 65.3982 1.00002 64ZM24.877 64L105 110.738L185.123 64L105 17.262L24.877 64Z" fill="#EC5043"/>
</svg>
