<svg width="128" height="128" viewBox="0 0 128 128" fill="none" xmlns="http://www.w3.org/2000/svg">
<path d="M24.1 1.68001C11.08 10.61 -0.699955 20.41 0.860045 32.01C2.50005 44.44 17.34 71.87 36.74 91.27C56.14 110.66 83.54 125.49 96 127.15C107.6 128.7 117.39 116.92 126.32 103.9C127.71 102.08 127.59 99.46 125.93 97.8C125.73 97.6 125.51 97.44 125.3 97.28V97.24L98.11 77.82H98.08C96.25 76.49 93.7 76.62 92.05 78.28C91.88 78.44 91.75 78.63 91.62 78.8C91.61 78.8 91.61 78.81 91.61 78.81C91.53 78.93 91.46 79.04 91.38 79.14C89.56 81.76 89.58 82.09 88.1 84.35C86.02 87.64 83.6 92.71 81.21 98.45C73.58 97.29 62.21 90.66 49.78 78.22C37.33 65.8 30.7 54.43 29.53 46.79C35.29 44.4 40.35 41.99 43.63 39.9C45.9 38.42 46.23 38.44 48.84 36.62C48.96 36.55 49.07 36.47 49.17 36.39C49.36 36.26 49.54 36.11 49.7 35.96C50.4872 35.1768 50.9659 34.1362 51.0486 33.0288C51.1312 31.9215 50.8122 30.8214 50.15 29.93L50.17 29.89L30.76 2.72001L30.73 2.71001C30.58 2.49001 30.41 2.27001 30.22 2.08001C29.4214 1.28347 28.3608 0.803886 27.2352 0.730319C26.1096 0.656752 24.9956 0.994207 24.1 1.68001" fill="#FCC21B"/>
<path d="M111.03 95.04C112.17 95.67 113.64 96.8 114.14 97.1C115.15 97.71 116.12 98.26 117.09 98.94C119.25 100.47 120.09 102.49 118.51 104.77C116.41 107.79 110.96 114.15 106.79 112.14C105.25 111.38 107.98 104.34 108.25 103.11C108.63 101.41 108.57 93.69 111.03 95.04V95.04Z" fill="white"/>
<path d="M30.8699 38.31C30.5399 37.59 31.0599 36.35 31.7899 35.4C32.4899 34.5 33.4099 33.64 33.9799 32.66C35.2699 30.45 33.5899 21.26 35.8699 21.26C37.0799 21.26 38.4899 22.82 39.1599 23.66C40.1899 24.94 40.7799 26.54 41.7799 27.87C42.4899 28.82 43.5199 29.83 43.7999 31.01C44.4199 33.62 41.4799 34.71 39.6699 35.79C37.4599 37.1 35.0699 38.64 32.4399 38.88C31.5499 38.97 31.0599 38.73 30.8699 38.31V38.31Z" fill="white"/>
</svg>
