<?xml version="1.0" standalone="no"?>
<!DOCTYPE svg PUBLIC "-//W3C//DTD SVG 20010904//EN"
 "http://www.w3.org/TR/2001/REC-SVG-20010904/DTD/svg10.dtd">
<svg version="1.0" xmlns="http://www.w3.org/2000/svg"
 width="350.000000pt" height="250.000000pt" viewBox="0 0 350.000000 250.000000"
 preserveAspectRatio="xMidYMid meet">

<g transform="translate(0.000000,250.000000) scale(0.100000,-0.100000)"
fill="#000000" stroke="none">
<path d="M708 2387 c6 -7 12 -30 14 -52 3 -37 6 -40 35 -43 24 -2 34 2 43 18
6 12 9 28 6 37 -3 8 -1 23 4 34 9 17 7 19 -17 19 -21 0 -24 -3 -15 -12 16 -16
15 -63 -1 -77 -29 -24 -53 49 -25 77 9 9 5 12 -21 12 -26 0 -31 -3 -23 -13z"/>
<path d="M835 2345 c0 -43 3 -55 15 -55 12 0 15 9 13 38 l-4 37 21 -37 c30
-55 47 -49 52 17 3 52 2 55 -21 55 -19 0 -21 -2 -11 -15 6 -8 10 -20 7 -27 -3
-8 -10 -2 -17 15 -8 17 -21 27 -34 27 -19 0 -21 -6 -21 -55z"/>
<path d="M955 2345 c0 -49 2 -55 21 -55 17 0 20 6 20 43 -1 59 15 61 42 5 20
-43 52 -65 52 -38 0 6 9 30 20 52 24 51 24 48 -1 48 -13 0 -19 -5 -16 -13 3
-7 -1 -26 -8 -42 l-12 -30 -9 30 c-4 17 -7 36 -6 43 2 8 -13 12 -50 12 l-53 0
0 -55z"/>
<path d="M1145 2345 l0 -55 46 0 c38 0 48 4 52 20 6 23 -1 25 -27 5 -21 -16
-36 -11 -36 12 0 13 3 13 15 3 13 -11 15 -8 15 15 0 23 -2 26 -15 15 -12 -10
-15 -10 -15 4 0 19 30 21 49 4 10 -11 12 -9 9 7 -2 16 -12 21 -48 23 l-45 3 0
-56z"/>
<path d="M1258 2388 c16 -16 16 -70 0 -86 -9 -9 -5 -12 19 -12 27 0 30 3 26
23 l-6 22 25 -22 c13 -13 32 -23 41 -23 15 0 14 3 -4 21 -20 20 -20 22 -3 40
26 29 3 49 -59 49 -40 0 -48 -3 -39 -12z m75 -23 c1 -5 -6 -11 -15 -13 -11 -2
-18 3 -18 13 0 17 30 18 33 0z"/>
<path d="M1397 2393 c-18 -18 -5 -45 29 -59 26 -11 34 -18 26 -26 -8 -8 -18
-6 -36 6 -32 21 -35 20 -29 -5 5 -17 12 -20 47 -17 34 2 42 7 44 26 3 18 -4
26 -35 39 -28 12 -33 18 -20 21 10 2 25 -2 33 -9 18 -15 27 -8 18 15 -6 16
-63 23 -77 9z"/>
<path d="M1498 2388 c7 -7 12 -26 12 -43 0 -17 -5 -36 -12 -43 -9 -9 -4 -12
22 -12 26 0 31 3 22 12 -7 7 -12 26 -12 43 0 17 5 36 12 43 9 9 4 12 -22 12
-26 0 -31 -3 -22 -12z"/>
<path d="M1560 2378 c0 -17 3 -19 12 -10 7 7 16 12 20 12 13 0 9 -65 -4 -78
-9 -9 -4 -12 22 -12 26 0 31 3 22 12 -13 13 -17 78 -4 78 4 0 13 -5 20 -12 9
-9 12 -7 12 10 0 20 -5 22 -50 22 -45 0 -50 -2 -50 -22z"/>
<path d="M1670 2395 c0 -3 10 -19 21 -35 13 -17 20 -37 16 -49 -4 -17 0 -21
18 -21 18 0 22 4 18 21 -4 12 3 32 16 49 26 36 26 40 1 40 -14 0 -20 -6 -18
-16 2 -10 -3 -19 -9 -21 -8 -3 -13 4 -13 16 0 16 -6 21 -25 21 -14 0 -25 -2
-25 -5z"/>
<path d="M1860 2385 c-7 -8 -12 -26 -12 -40 0 -36 20 -55 57 -55 37 0 58 19
58 55 0 36 -21 55 -58 55 -18 0 -38 -7 -45 -15z m65 -45 c0 -28 -4 -35 -20
-35 -13 0 -21 8 -23 23 -5 34 5 54 25 50 13 -2 18 -13 18 -38z"/>
<path d="M1985 2345 c0 -50 2 -55 22 -55 17 0 20 4 15 22 -4 17 -2 20 11 15
13 -5 17 0 17 20 0 21 -2 24 -15 13 -12 -10 -15 -10 -15 4 0 19 30 21 49 4 10
-11 12 -9 9 7 -2 16 -12 21 -48 23 l-45 3 0 -56z"/>
<path d="M2155 2345 c0 -48 2 -55 20 -55 18 0 20 7 20 55 0 48 -2 55 -20 55
-18 0 -20 -7 -20 -55z"/>
<path d="M2218 2388 c7 -7 12 -26 12 -43 0 -17 -5 -36 -12 -43 -9 -9 0 -12 40
-12 55 0 76 17 54 43 -7 8 -7 18 -2 27 15 24 -9 40 -58 40 -36 0 -43 -3 -34
-12z m72 -17 c0 -11 -26 -22 -34 -14 -12 12 -5 23 14 23 11 0 20 -4 20 -9z
m-4 -42 c8 -14 -18 -31 -30 -19 -9 9 0 30 14 30 5 0 12 -5 16 -11z"/>
<path d="M2355 2358 c-9 -24 -19 -49 -22 -55 -3 -8 3 -13 16 -13 14 0 19 5 15
15 -4 11 0 15 16 15 16 0 20 -4 16 -15 -4 -11 2 -15 20 -15 14 0 24 3 22 8 -1
4 -11 28 -22 55 -10 26 -24 47 -31 47 -7 0 -21 -19 -30 -42z m35 -8 c0 -5 -4
-10 -10 -10 -5 0 -10 5 -10 10 0 6 5 10 10 10 6 0 10 -4 10 -10z"/>
<path d="M2458 2388 c7 -7 12 -26 12 -43 0 -17 -5 -36 -12 -43 -9 -9 -2 -12
33 -12 70 0 105 54 61 93 -22 20 -114 25 -94 5z m80 -40 c2 -18 -3 -30 -16
-37 -25 -13 -32 -5 -32 36 0 30 3 34 23 31 15 -2 23 -11 25 -30z"/>
<path d="M2609 2373 c-6 -16 -16 -40 -24 -55 -13 -27 -12 -28 10 -28 18 0 23
4 19 15 -4 11 0 15 16 15 16 0 20 -4 16 -15 -4 -11 1 -15 18 -15 l24 0 -21 55
c-24 61 -42 69 -58 28z m26 -23 c3 -5 1 -10 -4 -10 -6 0 -11 5 -11 10 0 6 2
10 4 10 3 0 8 -4 11 -10z"/>
<path d="M2705 2345 c0 -43 3 -55 15 -55 12 0 15 9 13 38 l-4 37 21 -37 c30
-55 47 -49 52 17 3 52 2 55 -21 55 -19 0 -21 -2 -11 -15 6 -8 10 -20 7 -27 -3
-8 -10 -2 -17 15 -8 17 -21 27 -34 27 -19 0 -21 -6 -21 -55z"/>
<path d="M1503 2083 c-172 -2 -313 -7 -313 -11 0 -4 36 -38 80 -77 56 -48 96
-96 133 -152 28 -46 55 -83 60 -83 4 0 6 4 3 9 -3 5 -3 24 1 42 l6 32 28 -54
c15 -30 42 -67 59 -84 33 -30 33 -30 25 -5 -14 47 -18 153 -6 146 6 -4 11 -15
11 -24 0 -24 47 -122 58 -122 5 0 12 27 16 61 7 70 25 114 26 63 0 -18 8 -39
20 -49 19 -18 20 -17 20 3 0 12 13 36 30 54 l29 33 1 -66 c0 -73 15 -104 44
-93 16 6 18 14 12 63 l-6 56 25 -40 c13 -22 25 -46 25 -52 0 -30 20 -9 35 38
22 65 28 58 14 -15 -6 -32 -8 -60 -5 -63 3 -3 28 31 56 76 29 44 54 81 57 81
3 0 3 -19 0 -42 l-6 -43 20 24 c11 14 47 70 79 126 33 55 73 114 90 130 16 16
30 32 30 37 0 4 -100 7 -222 6 -123 -2 -364 -4 -535 -5z"/>
<path d="M2282 2040 c-29 -29 -82 -104 -123 -173 -81 -137 -206 -275 -238
-261 -31 14 -92 16 -121 4 -23 -10 -40 -9 -80 1 -43 11 -57 11 -99 -3 l-48
-15 -67 60 c-41 36 -91 97 -131 156 -35 54 -79 109 -97 124 -18 14 -59 51 -91
81 -31 31 -62 56 -67 56 -6 0 -10 -33 -10 -75 0 -69 2 -76 26 -91 31 -21 104
-114 133 -172 12 -24 53 -83 92 -131 38 -49 69 -91 69 -95 0 -4 -20 -16 -45
-27 -41 -18 -45 -23 -45 -56 0 -34 -1 -35 -17 -21 -10 9 -36 25 -58 36 -33 17
-37 22 -22 27 10 4 33 5 52 2 19 -3 35 -3 35 1 0 20 -34 53 -63 61 -29 8 -27
9 26 10 31 1 57 4 57 7 0 4 -20 32 -45 62 -25 30 -59 80 -76 112 -16 31 -50
79 -74 106 l-45 49 3 -360 c3 -407 4 -413 82 -572 51 -103 133 -213 216 -287
59 -53 177 -136 194 -136 6 0 17 16 24 35 10 28 10 47 0 93 -6 33 -9 86 -5
127 l6 70 -20 -25 c-24 -30 -25 -25 -5 30 8 23 15 49 15 58 0 13 -2 13 -17 0
-19 -15 -74 -41 -79 -36 -1 2 17 30 42 62 39 53 54 86 39 86 -19 0 -68 -36
-99 -72 -48 -55 -48 -27 0 87 8 20 8 20 -21 2 -17 -10 -43 -33 -59 -50 -27
-30 -28 -31 -21 -7 4 14 15 40 26 57 10 18 17 33 16 33 -2 0 -22 -9 -45 -20
-44 -21 -78 -25 -101 -11 -11 7 -7 13 17 25 24 12 62 16 171 16 133 0 171 4
171 19 0 3 -64 6 -142 6 l-142 0 2 168 c0 92 4 172 7 177 19 31 25 -5 25 -155
l0 -165 23 4 c43 9 262 17 251 9 -7 -5 -11 -60 -11 -153 -1 -80 -2 -190 -3
-245 -1 -56 3 -112 9 -128 8 -22 8 -34 -3 -55 -31 -60 -26 -74 36 -99 l57 -22
48 20 48 20 -3 152 c-1 84 -3 184 -4 222 -1 39 7 107 17 153 l18 82 119 0 c91
0 118 -3 118 -13 0 -8 11 -34 23 -60 l24 -46 -31 16 c-17 8 -41 25 -53 36 -27
24 -28 21 -9 -24 7 -19 16 -50 20 -69 l6 -35 -46 48 c-49 49 -71 60 -59 30 9
-23 26 -126 21 -130 -2 -2 -16 16 -32 39 l-29 43 -3 -37 c-4 -44 -13 -48 -36
-13 -9 14 -21 25 -26 25 -14 0 -12 -65 3 -130 10 -41 11 -79 4 -143 -12 -125
-8 -129 88 -66 194 127 324 302 391 526 33 111 39 233 29 568 l-7 250 -39 -45
c-22 -25 -54 -74 -73 -110 -19 -36 -55 -92 -80 -125 -25 -33 -41 -61 -36 -63
4 -2 33 6 64 16 31 10 56 17 56 15 0 -1 -16 -21 -36 -43 l-36 -40 26 0 c31 0
66 -16 66 -30 0 -6 -16 -10 -36 -10 -42 0 -74 -15 -74 -35 0 -11 8 -13 29 -9
23 5 91 -17 91 -29 0 -2 -18 -3 -39 -4 -41 -2 -101 -27 -101 -42 0 -5 18 -11
41 -14 37 -5 89 -39 89 -58 0 -4 -14 -4 -31 1 -61 18 -110 -29 -53 -50 42 -16
85 -51 78 -62 -4 -6 -26 -8 -55 -5 -53 6 -57 3 -34 -29 16 -24 36 -104 26
-104 -4 0 -19 13 -34 28 -26 27 -27 34 -32 162 -3 74 -8 167 -11 206 l-5 72
-40 6 c-21 3 -39 10 -39 14 0 4 32 50 71 102 39 52 80 113 91 135 34 66 79
128 120 163 37 33 38 35 38 103 l0 69 -39 0 c-33 0 -46 -7 -89 -50z m-314
-482 c34 -17 67 -37 74 -45 13 -16 22 -227 12 -277 -5 -25 -9 -27 -36 -22 -17
3 -56 22 -88 41 -56 34 -112 45 -125 25 -3 -5 -13 -10 -21 -10 -13 0 -15 23
-13 151 l2 151 31 14 c41 18 87 10 164 -28z m-224 26 c14 -5 16 -29 16 -160 0
-141 -6 -175 -25 -144 -11 18 -55 11 -125 -20 -65 -29 -133 -39 -144 -22 -2 4
-1 64 4 132 8 120 10 126 37 148 73 59 179 88 237 66z m389 -101 c3 -5 8 -90
12 -190 l8 -183 -150 0 c-137 0 -151 2 -168 20 -18 19 -17 19 130 13 l148 -6
-7 176 c-6 152 -5 177 8 177 8 0 17 -3 19 -7z m-793 -216 l0 -102 -47 -12
c-27 -6 -50 -9 -53 -6 -3 3 13 20 34 39 31 27 35 34 20 34 -22 0 -64 26 -64
41 0 5 9 9 19 9 10 0 29 9 42 19 23 19 24 19 5 40 -11 12 -31 21 -45 21 -20 0
-23 2 -11 10 8 5 34 10 58 10 l42 0 0 -103z m457 -139 c-16 -10 -69 -10 -84 0
-7 5 11 8 41 8 30 -1 49 -4 43 -8z"/>
<path d="M2488 1133 c28 -5 46 -32 72 -107 11 -32 29 -74 41 -93 22 -35 22
-35 1 -24 -11 6 -27 11 -34 11 -7 0 6 -9 30 -20 32 -15 42 -24 41 -42 -1 -53
-11 -61 -80 -63 -62 -3 -65 -2 -93 31 -28 34 -28 35 -10 57 14 16 14 18 2 9
-18 -14 -22 -11 -33 33 l-8 30 -7 -30 c-6 -31 4 -55 47 -108 13 -16 23 -32 23
-35 0 -4 -26 -21 -58 -39 -58 -32 -101 -67 -258 -207 -184 -164 -311 -214
-463 -182 -130 27 -217 83 -386 246 -129 125 -166 152 -233 170 l-43 11 23 32
c24 32 55 133 45 144 -3 3 -11 -13 -18 -36 -7 -23 -14 -41 -16 -41 -2 0 -15 7
-29 16 -17 12 -39 15 -72 12 l-48 -5 23 56 c12 31 23 63 23 71 0 31 39 79 67
83 l28 4 -31 2 c-41 1 -55 -17 -88 -114 -16 -44 -36 -89 -46 -100 -18 -20 -25
-48 -22 -92 1 -13 18 -41 38 -63 40 -44 41 -35 -10 -155 -43 -101 -30 -162 40
-191 46 -19 101 -17 151 6 l42 19 78 -81 c92 -94 160 -143 286 -203 172 -83
315 -94 482 -37 119 42 232 112 336 210 81 77 90 82 111 71 69 -37 150 -28
201 22 34 34 34 56 -2 229 l-22 105 21 36 c11 20 20 51 20 69 0 17 4 39 10 49
7 15 2 23 -27 42 -30 20 -41 37 -60 93 -27 81 -47 106 -82 105 -24 -2 -24 -2
-3 -6z m-1448 -258 c17 -9 30 -20 30 -24 0 -5 -23 -37 -52 -71 l-51 -62 -34
34 c-21 21 -36 48 -39 70 -6 32 -3 38 22 52 37 20 87 20 124 1z m1569 -210
c13 -63 21 -121 18 -129 -3 -7 -20 -16 -38 -20 -59 -12 -155 -74 -255 -167
-194 -179 -364 -259 -547 -259 -200 0 -396 99 -587 297 -118 122 -171 155
-250 155 l-49 0 20 51 c42 106 88 167 127 167 59 0 130 -48 259 -172 193 -186
297 -245 445 -256 63 -4 90 -1 148 18 96 31 159 73 324 219 147 129 199 165
281 193 81 28 78 31 104 -97z m-1591 -155 c51 -23 102 -58 102 -70 0 -13 -60
-30 -109 -30 -58 0 -106 28 -114 67 -11 53 43 68 121 33z m1632 -20 c0 -59
-58 -110 -123 -110 -37 0 -97 18 -97 29 0 10 99 68 145 85 57 21 75 20 75 -4z"/>
<path d="M1046 648 c-24 -55 -23 -88 2 -50 19 29 32 28 32 -4 0 -18 13 -38 43
-65 23 -21 45 -38 50 -39 13 0 8 23 -10 42 -11 13 -13 22 -6 29 7 7 14 5 23
-6 12 -15 40 -21 40 -8 0 3 -7 15 -17 25 -21 24 -9 36 15 15 35 -32 45 -15 13
21 -10 12 -23 22 -28 22 -5 0 -27 -18 -48 -41 l-40 -40 -5 28 c-4 20 -1 32 12
41 25 18 23 48 -4 66 -36 25 -47 19 -72 -36z m58 16 c18 -7 12 -24 -10 -24 -8
0 -14 7 -14 15 0 17 2 18 24 9z"/>
<path d="M2448 680 c-32 -26 -14 -54 36 -58 23 -2 36 -8 33 -15 -2 -7 -14 -11
-26 -9 -15 1 -21 -3 -19 -10 7 -19 49 -16 62 5 16 25 -4 51 -43 55 -17 2 -31
8 -31 13 0 6 9 7 20 4 14 -4 20 -2 20 8 0 24 -27 27 -52 7z"/>
<path d="M2380 627 c0 -8 9 -22 20 -32 27 -25 20 -28 -23 -10 -52 22 -56 2
-10 -50 21 -23 41 -44 46 -44 13 -2 7 22 -10 42 -20 22 -21 22 47 1 32 -10 24
17 -21 64 -43 46 -49 49 -49 29z"/>
<path d="M2277 542 c-24 -26 -21 -55 8 -86 28 -30 55 -33 78 -8 24 27 21 50
-12 83 -34 34 -51 36 -74 11z m55 -29 c24 -21 24 -53 0 -53 -25 0 -56 35 -49
55 8 20 26 19 49 -2z"/>
<path d="M1221 524 c-12 -15 -21 -34 -21 -44 0 -24 34 -52 54 -44 23 9 20 22
-6 26 -29 4 -32 20 -8 46 26 27 50 28 50 2 0 -11 7 -20 15 -20 8 0 15 8 15 18
0 47 -66 58 -99 16z"/>
<path d="M1333 480 c4 -17 -2 -32 -23 -57 -17 -19 -30 -38 -30 -43 0 -20 20
-9 47 25 18 23 34 33 45 29 32 -10 27 14 -9 42 -36 27 -36 27 -30 4z"/>
<path d="M2196 475 l-29 -23 39 -46 c47 -56 70 -64 43 -15 -8 15 -7 24 2 35
15 18 3 32 -13 16 -28 -28 -39 -1 -12 29 24 27 2 30 -30 4z"/>
<path d="M1376 377 l-36 -52 27 -22 c16 -13 31 -23 36 -23 13 0 7 28 -8 34 -8
3 -15 13 -15 22 0 10 5 14 15 10 8 -3 22 -9 30 -12 8 -3 15 -2 15 4 0 5 -7 15
-15 22 -21 17 -19 34 3 25 9 -4 23 -9 30 -12 23 -10 12 16 -16 36 l-29 20 -37
-52z"/>
<path d="M2063 351 c-13 -11 -23 -22 -23 -24 0 -3 14 -28 32 -56 l31 -51 31
19 c17 11 32 25 34 30 5 14 -25 14 -33 1 -9 -15 -35 -12 -35 4 0 8 7 16 15 20
8 3 15 12 15 20 0 13 -4 14 -25 4 -33 -15 -45 -2 -17 18 12 8 22 19 22 25 0
15 -23 10 -47 -10z"/>
<path d="M1566 324 c-20 -19 -20 -38 -1 -54 17 -14 20 -40 4 -40 -6 0 -13 9
-16 20 -6 21 -18 26 -28 10 -8 -13 11 -46 31 -54 20 -7 54 20 54 42 0 9 -7 24
-17 34 -9 10 -13 21 -9 26 4 4 13 -1 20 -11 17 -22 26 -22 26 3 0 10 -9 24
-19 30 -25 13 -27 13 -45 -6z"/>
<path d="M1975 308 c-11 -6 -22 -12 -24 -14 -8 -7 44 -114 56 -114 9 0 10 6 3
25 -11 29 3 33 34 10 29 -22 41 -6 16 20 -12 13 -20 28 -16 33 7 12 -22 52
-37 52 -7 0 -21 -6 -32 -12z m45 -28 c0 -12 -28 -25 -36 -17 -9 9 6 27 22 27
8 0 14 -5 14 -10z"/>
<path d="M1651 245 c-36 -59 -36 -75 -2 -53 20 12 24 10 41 -12 10 -14 21 -22
25 -19 9 10 -9 132 -20 136 -6 2 -26 -22 -44 -52z m35 -22 c-10 -10 -19 5 -10
18 6 11 8 11 12 0 2 -7 1 -15 -2 -18z"/>
<path d="M1750 226 c0 -36 5 -68 10 -71 6 -4 10 5 10 19 0 18 5 26 18 26 24 0
42 19 42 45 0 29 -19 45 -52 45 -28 0 -28 -1 -28 -64z m53 19 c1 -5 -6 -11
-15 -13 -11 -2 -18 3 -18 13 0 17 30 18 33 0z"/>
<path d="M1876 283 c-17 -4 -18 -12 -12 -66 3 -33 8 -62 10 -64 7 -8 76 9 76
18 0 5 -13 9 -30 9 -20 0 -30 5 -30 15 0 9 9 15 25 15 16 0 25 6 25 16 0 12
-7 15 -25 12 -17 -4 -25 -1 -25 8 0 8 11 14 25 14 16 0 25 6 25 15 0 15 -24
18 -64 8z"/>
<path d="M2486 911 c-4 -5 3 -7 14 -4 23 6 26 13 6 13 -8 0 -17 -4 -20 -9z"/>
</g>
</svg>
