<svg width="42" height="42" viewBox="0 0 42 42" fill="none" xmlns="http://www.w3.org/2000/svg">
<path d="M20.474 40.996C20.821 40.996 21.179 41.006 21.525 40.996C28.298 40.896 34.746 40.135 35.914 39.023C36.184 36.56 36.512 35.368 25.589 30.201C24.035 29.33 24.858 25.955 24.858 25.955C28.147 23.473 30.405 17.724 30.405 13.117C30.405 5.156 26.815 1.391 21.528 1H20.476C15.198 1.391 11.609 5.156 11.609 13.117C11.609 17.724 13.857 23.471 17.148 25.955C17.148 25.955 17.968 29.33 16.423 30.201C5.489 35.368 5.817 36.561 6.088 39.023C7.255 40.134 13.701 40.896 20.474 40.996V40.996Z" fill="#4586F7"/>
</svg>
