<?xml version="1.0" standalone="no"?>
<!DOCTYPE svg PUBLIC "-//W3C//DTD SVG 20010904//EN"
 "http://www.w3.org/TR/2001/REC-SVG-20010904/DTD/svg10.dtd">
<svg version="1.0" xmlns="http://www.w3.org/2000/svg"
 width="3000.000000pt" height="3000.000000pt" viewBox="0 0 3000.000000 3000.000000"
 preserveAspectRatio="xMidYMid meet">
<metadata>
Created by potrace 1.16, written by Peter Selinger 2001-2019
</metadata>
<g transform="translate(0.000000,3000.000000) scale(0.100000,-0.100000)"
fill="#000000" stroke="none">
<path d="M10195 27934 c-330 -59 -632 -249 -829 -523 -115 -160 -134 -210
-486 -1261 -32 -96 -154 -456 -270 -800 -116 -344 -243 -719 -282 -835 -38
-115 -121 -361 -184 -545 -301 -892 -581 -1722 -634 -1880 -32 -96 -120 -357
-196 -580 -75 -223 -199 -589 -275 -815 -76 -225 -231 -684 -344 -1020 -113
-335 -235 -695 -270 -800 -109 -325 -528 -1566 -630 -1865 -53 -157 -127 -377
-165 -490 -65 -195 -160 -476 -481 -1425 -78 -231 -204 -604 -279 -830 -184
-546 -607 -1798 -677 -2005 -49 -144 -373 -1106 -513 -1520 -27 -80 -144 -426
-260 -770 -116 -344 -244 -724 -285 -845 -233 -692 -379 -1123 -494 -1465 -72
-212 -225 -666 -341 -1010 -116 -344 -254 -753 -307 -910 -53 -157 -142 -422
-199 -590 -56 -168 -155 -460 -219 -650 -65 -190 -153 -451 -196 -580 -100
-296 -120 -391 -121 -575 -2 -213 42 -396 138 -585 165 -326 466 -572 812
-666 170 -46 30 -44 3501 -44 3648 0 3368 -6 3589 72 198 69 348 162 487 302
97 98 122 128 184 225 77 121 106 191 224 541 102 304 407 1208 564 1670 42
124 120 356 174 515 53 160 206 612 338 1005 133 393 278 823 323 955 44 132
82 242 84 244 2 2 25 -18 52 -45 27 -27 73 -71 103 -98 55 -50 270 -250 414
-387 44 -41 113 -106 154 -145 41 -38 85 -78 96 -89 12 -11 73 -67 135 -125
126 -118 138 -129 311 -290 68 -63 155 -144 194 -180 38 -36 106 -99 150 -141
294 -276 487 -456 546 -510 68 -62 258 -239 300 -279 25 -25 70 -67 100 -94
47 -43 185 -171 398 -373 36 -34 80 -74 96 -89 17 -15 66 -61 110 -103 45 -42
132 -123 194 -181 63 -58 130 -121 151 -140 20 -19 92 -87 161 -150 68 -63
137 -128 154 -145 17 -16 53 -50 80 -74 28 -25 120 -110 205 -190 219 -207
296 -279 369 -346 36 -33 99 -92 140 -131 42 -39 109 -102 150 -140 99 -92
117 -109 192 -179 35 -33 125 -116 199 -185 74 -69 171 -159 215 -201 93 -88
208 -193 251 -229 31 -26 152 -110 158 -110 2 0 31 -15 63 -33 73 -41 210 -92
323 -119 77 -19 122 -21 470 -24 212 -1 372 1 355 6 l-30 8 36 1 c19 0 39 5
45 9 5 5 34 14 64 22 30 7 62 17 70 21 8 5 49 24 90 44 165 78 236 128 365
259 190 192 317 432 360 680 35 202 7 549 -55 681 -5 11 -23 65 -40 120 -17
55 -35 109 -40 120 -5 11 -24 65 -41 120 -17 55 -35 109 -40 120 -5 11 -22 63
-39 115 -17 52 -35 104 -40 115 -4 11 -23 65 -41 120 -17 55 -36 109 -40 120
-10 22 -125 363 -140 410 -5 17 -13 39 -18 50 -5 11 -21 61 -37 110 -15 50
-33 104 -40 120 -7 17 -25 71 -40 120 -15 50 -33 104 -40 120 -7 17 -27 75
-44 130 -17 55 -35 109 -40 120 -5 11 -56 162 -114 335 -58 173 -165 488 -236
700 -72 212 -173 511 -225 665 -112 334 -439 1300 -520 1540 -120 353 -426
1259 -499 1480 -43 127 -81 239 -86 250 -5 11 -28 79 -52 151 l-43 131 -2103
-5 c-1438 -3 -2107 -1 -2114 6 -7 7 -1 34 17 88 15 44 83 243 151 444 67 201
212 631 322 955 109 325 243 721 297 880 54 160 142 421 196 580 53 160 150
445 214 635 65 190 170 503 235 695 217 642 501 1478 572 1685 113 331 107
271 43 461 -31 90 -62 184 -70 209 -7 25 -90 272 -185 550 -295 873 -726 2148
-815 2415 -30 88 -117 347 -195 575 -77 228 -174 514 -215 635 -40 121 -180
535 -310 920 -130 385 -267 792 -305 905 -86 255 -367 1085 -460 1360 -167
496 -556 1650 -607 1800 -96 287 -177 432 -330 591 -191 198 -410 321 -675
378 -82 18 -129 21 -300 20 -127 0 -233 -6 -283 -15z"/>
<path d="M23017 2073 c431 -2 1135 -2 1565 0 431 1 79 2 -782 2 -861 0 -1213
-1 -783 -2z"/>
<path d="M26505 2070 l-1070 -5 1083 -3 c716 -1 1082 1 1082 8 0 6 -6 9 -12 8
-7 -2 -494 -5 -1083 -8z"/>
<path d="M20393 2053 c922 -2 2432 -2 3355 0 922 1 167 2 -1678 2 -1845 0
-2600 -1 -1677 -2z"/>
</g>
</svg>
