<svg width="49" height="43" viewBox="0 0 49 43" fill="none" xmlns="http://www.w3.org/2000/svg">
<g clip-path="url(#clip0)">
<path d="M2.50576 -0.000543744C2.28129 -0.00342535 2.05891 0.0425152 1.85423 0.134052C1.64955 0.225588 1.46754 0.3605 1.32098 0.529314C1.17442 0.698128 1.06687 0.89675 1.00586 1.11123C0.944864 1.32571 0.9319 1.55085 0.967883 1.77083L7.49644 41.1173C7.57777 41.5988 7.82739 42.0365 8.20146 42.3534C8.57553 42.6704 9.05012 42.8463 9.54188 42.8504H40.8619C41.2305 42.855 41.5885 42.7281 41.8707 42.4927C42.153 42.2573 42.3406 41.9291 42.3996 41.5678L48.9283 1.77846C48.9642 1.55849 48.9512 1.33338 48.8902 1.11893C48.8292 0.904484 48.7216 0.705901 48.575 0.537127C48.4284 0.368353 48.2464 0.233479 48.0417 0.141977C47.8371 0.0504742 47.6147 0.00456086 47.3903 0.00746059L2.50576 -0.000543744ZM29.9963 28.4368H19.9997L17.2929 14.3976H32.4186L29.9963 28.4368Z" fill="#2684FF"/>
<path d="M46.8123 14.3784H32.3906L29.9701 28.4065H19.9816L8.1875 42.3048C8.56132 42.6256 9.03791 42.804 9.53206 42.8081H40.8348C41.2031 42.8128 41.5609 42.686 41.843 42.4508C42.125 42.2156 42.3126 41.8877 42.3716 41.5267L46.8127 14.3784H46.8123Z" fill="url(#paint0_linear)"/>
</g>
<defs>
<linearGradient id="paint0_linear" x1="50.1472" y1="18.3069" x2="33.6487" y2="41.9033" gradientUnits="userSpaceOnUse">
<stop offset="0.18" stop-color="#0052CC"/>
<stop offset="1" stop-color="#2684FF"/>
</linearGradient>
<clipPath id="clip0">
<rect width="48" height="43" fill="white" transform="translate(0.947998)"/>
</clipPath>
</defs>
</svg>
