<svg width="64" height="72" viewBox="0 0 64 72" fill="none" xmlns="http://www.w3.org/2000/svg">
<path d="M63.8923 21.1131C63.8918 19.9056 63.6335 18.8386 63.1113 17.9231C62.5983 17.0223 61.83 16.2676 60.7995 15.6708C52.2932 10.7661 43.7787 5.87635 35.2752 0.966595C32.9827 -0.356905 30.76 -0.308405 28.4845 1.0341C25.0988 3.0306 8.1475 12.7423 3.09625 15.6681C1.016 16.8726 0.00375 18.7156 0.00325 21.1108C0 30.9746 0.00325 40.8383 0 50.7021C0 51.8831 0.24775 52.9296 0.747 53.8313C1.26025 54.7591 2.03925 55.5346 3.0935 56.1448C8.145 59.0706 25.0985 68.7816 28.4835 70.7788C30.76 72.1221 32.9828 72.1701 35.276 70.8463C43.7798 65.9363 52.2948 61.0466 60.8022 56.1418C61.8565 55.5318 62.6355 54.7558 63.1488 53.8288C63.6473 52.9268 63.8955 51.8806 63.8955 50.6993C63.8955 50.6993 63.8955 30.9771 63.8923 21.1131Z" fill="#A179DC"/>
<path d="M32.0455 35.8103L0.746948 53.8313C1.2602 54.7591 2.0392 55.5346 3.09345 56.1448C8.14495 59.0706 25.0984 68.7816 28.4834 70.7788C30.7599 72.1221 32.9827 72.1701 35.2759 70.8463C43.7797 65.9363 52.2947 61.0466 60.8022 56.1418C61.8564 55.5318 62.6354 54.7558 63.1487 53.8288L32.0455 35.8103" fill="#280068"/>
<path d="M63.8923 21.113C63.8918 19.9055 63.6335 18.8385 63.1113 17.923L32.0455 35.8105L63.1488 53.8287C63.6473 52.9267 63.895 51.8805 63.8955 50.6992C63.8955 50.6992 63.8955 30.977 63.8923 21.113" fill="#390091"/>
<path d="M50.473 29.0735V32.442H53.8415V29.0735H55.5258V32.442H58.8943V34.1262H55.5258V37.4945H58.8943V39.1787H55.5258V42.5472H53.8415V39.1787H50.473V42.5472H48.7888V39.1787H45.4205V37.4945H48.7888V34.1262H45.4205V32.442H48.7888V29.0735H50.473ZM53.8415 34.126H50.473V37.4945H53.8415V34.1262V34.126Z" fill="white"/>
<path d="M32.1143 12.1565C40.9003 12.1565 48.571 16.928 52.6798 24.0205L52.6398 23.9522L42.3023 29.9042C40.2658 26.456 36.5323 24.1287 32.249 24.0807L32.114 24.08C25.5828 24.08 20.2878 29.375 20.2878 35.9062C20.2856 37.9648 20.8234 39.988 21.8475 41.7738C23.886 45.3325 27.7183 47.7327 32.1143 47.7327C36.5375 47.7327 40.3915 45.302 42.4195 41.7052L42.3703 41.7915L52.692 47.771C48.6283 54.8035 41.0625 59.5602 32.3788 59.655L32.1143 59.6565C23.3005 59.6565 15.608 54.8555 11.5095 47.7255C9.50876 44.2447 8.36401 40.2095 8.36401 35.9062C8.36401 22.7898 18.997 12.1562 32.114 12.1562L32.1143 12.1565Z" fill="white"/>
</svg>
