<?xml version="1.0" standalone="no"?>
<!DOCTYPE svg PUBLIC "-//W3C//DTD SVG 20010904//EN"
 "http://www.w3.org/TR/2001/REC-SVG-20010904/DTD/svg10.dtd">
<svg version="1.0" xmlns="http://www.w3.org/2000/svg"
 width="2000.000000pt" height="1813.000000pt" viewBox="0 0 2000.000000 1813.000000"
 preserveAspectRatio="xMidYMid meet">
<metadata>
Created by potrace 1.16, written by Peter Selinger 2001-2019
</metadata>
<g transform="translate(0.000000,1813.000000) scale(0.100000,-0.100000)"
fill="#000000" stroke="none">
<path d="M7514 15259 c-49 -14 -81 -54 -108 -137 -136 -416 -846 -2612 -846
-2616 0 -3 452 -6 1004 -6 l1005 0 55 -167 c57 -174 615 -1893 807 -2488 61
-187 141 -434 179 -550 38 -115 121 -372 185 -570 197 -608 207 -637 215 -628
4 4 51 143 104 308 208 642 348 1072 361 1110 8 22 43 130 79 240 106 330 323
996 396 1220 38 116 121 372 185 570 64 198 159 490 211 649 52 159 94 293 94
298 0 4 -646 9 -1436 10 l-1437 3 -72 225 c-40 124 -139 428 -220 675 -80 248
-203 623 -272 835 -251 774 -304 934 -319 962 -16 31 -83 68 -119 67 -11 0
-34 -5 -51 -10z"/>
<path d="M12395 15256 c-69 -31 -17 119 -911 -2639 -20 -60 -34 -111 -31 -113
2 -2 454 -3 1003 -2 l1000 3 -77 240 c-72 223 -276 853 -605 1865 -75 228
-147 451 -161 495 -32 100 -52 128 -103 149 -48 19 -75 20 -115 2z"/>
</g>
</svg>
