<?xml version="1.0" standalone="no"?>
<!DOCTYPE svg PUBLIC "-//W3C//DTD SVG 20010904//EN"
 "http://www.w3.org/TR/2001/REC-SVG-20010904/DTD/svg10.dtd">
<svg version="1.0" xmlns="http://www.w3.org/2000/svg"
 width="1576.000000pt" height="890.000000pt" viewBox="0 0 1576.000000 890.000000"
 preserveAspectRatio="xMidYMid meet">

<g transform="translate(0.000000,890.000000) scale(0.100000,-0.100000)"
fill="#000000" stroke="none">
<path d="M12680 7609 c-543 -57 -942 -189 -1197 -395 l-41 -34 -49 25 c-150
78 -337 72 -472 -14 -160 -103 -255 -302 -222 -463 7 -34 22 -80 33 -102 32
-62 116 -139 194 -177 l70 -34 -8 -35 c-72 -324 -80 -666 -28 -1280 19 -225
40 -531 40 -576 0 -19 -7 -22 -77 -27 -186 -13 -344 -117 -360 -236 -5 -33 -1
-44 21 -66 14 -14 26 -34 26 -43 0 -30 38 -81 66 -88 43 -11 120 3 175 33 29
15 71 38 93 50 l41 22 3 -39 c2 -21 -6 -155 -18 -299 -11 -143 -25 -359 -30
-481 -32 -698 87 -1147 384 -1452 l55 -57 -67 -47 c-92 -66 -169 -140 -200
-194 -48 -81 -29 -204 37 -236 12 -6 36 -26 53 -43 74 -76 157 -51 343 106
100 83 196 135 253 135 20 1 96 -20 167 -45 234 -82 473 -123 780 -134 464
-15 932 71 1248 229 l58 29 35 -22 c20 -12 74 -65 120 -118 172 -193 239 -214
364 -111 91 77 103 156 40 267 -34 59 -133 169 -184 204 l-34 23 61 71 c230
266 366 659 406 1174 18 227 11 713 -15 978 l-5 62 79 -41 c51 -26 98 -42 131
-46 47 -4 53 -2 86 31 19 19 35 44 35 54 0 11 11 33 25 49 77 90 -45 239 -238
290 -28 7 -65 14 -82 14 -16 0 -36 4 -43 9 -11 6 -15 129 -22 597 -11 711 -23
868 -90 1207 -17 81 -30 149 -30 152 0 2 26 17 57 32 167 81 259 249 233 422
-33 211 -214 384 -417 398 -97 7 -164 -7 -255 -53 l-68 -33 -82 59 c-192 138
-445 231 -748 274 -225 33 -548 43 -730 25z m680 -54 c553 -76 899 -278 1130
-659 118 -196 215 -571 255 -981 17 -177 22 -309 35 -1040 6 -281 19 -629 30
-795 24 -360 26 -829 5 -1035 -33 -323 -92 -549 -205 -780 -218 -450 -641
-715 -1300 -816 -171 -26 -570 -37 -745 -20 -774 74 -1292 397 -1480 921 -124
348 -142 712 -73 1525 26 312 28 713 4 990 -9 105 -24 278 -33 385 -24 276
-23 734 0 895 53 353 147 608 302 813 258 344 649 522 1325 607 149 19 585 13
750 -10z m1230 -255 c171 -32 315 -175 351 -348 33 -162 -49 -322 -205 -399
-31 -15 -57 -25 -58 -22 -2 2 -24 66 -49 141 -36 106 -44 140 -34 148 6 5 20
28 30 50 16 35 16 46 6 81 -7 22 -27 57 -46 77 -32 35 -37 37 -98 37 l-64 1
-76 80 -76 80 57 28 c51 25 149 53 193 55 9 1 40 -4 69 -9z m-3354 -81 c32 -6
85 -22 117 -36 l58 -26 -54 -56 c-42 -44 -124 -142 -133 -159 0 -1 -17 5 -37
13 -47 19 -107 22 -146 5 -44 -18 -81 -84 -81 -143 0 -40 5 -51 38 -84 20 -22
46 -45 57 -53 20 -15 20 -16 -15 -123 l-36 -107 -65 32 c-77 39 -146 105 -179
173 -21 43 -25 64 -25 146 0 90 2 99 38 171 61 124 176 216 307 244 71 16 85
16 156 3z m3754 -2762 c116 -43 190 -113 190 -180 0 -41 -19 -49 -62 -25 -21
12 -41 18 -45 14 -11 -11 10 -39 40 -54 32 -16 34 -31 6 -66 -36 -46 -110 -34
-226 36 l-52 31 -5 76 c-4 42 -9 105 -12 140 l-5 63 58 -7 c32 -4 82 -16 113
-28z m-3990 -79 c0 -142 -7 -168 -46 -184 -18 -8 -55 -28 -81 -44 -68 -44
-146 -65 -182 -50 -25 10 -51 45 -51 69 0 4 16 15 35 24 23 11 35 24 35 37 0
25 -1 25 -45 -1 -45 -27 -65 -20 -65 24 0 104 179 207 373 216 l27 1 0 -92z
m3480 -2617 c121 -122 162 -237 109 -305 -11 -14 -24 -26 -27 -26 -4 0 -17 27
-30 59 -26 68 -57 111 -78 111 -19 0 -18 -16 6 -48 11 -15 31 -55 44 -89 l24
-62 -23 -15 c-23 -15 -51 -20 -95 -18 -17 2 -65 44 -167 149 -79 81 -143 148
-143 149 0 1 26 17 58 37 31 20 91 63 132 96 88 71 82 72 190 -38z m-2981 -14
c48 -34 124 -82 170 -106 l82 -43 -68 -33 c-37 -18 -108 -67 -158 -108 -170
-143 -237 -168 -295 -112 -36 34 -34 45 22 132 42 65 51 93 32 100 -12 4 -84
-102 -106 -157 l-14 -35 -18 28 c-47 71 -25 165 56 244 47 45 188 152 201 153
4 0 47 -28 96 -63z"/>
<path d="M13382 7254 c-95 -28 -124 -41 -203 -95 -116 -78 -211 -217 -238
-347 -76 -365 221 -681 619 -659 386 22 638 289 591 626 -35 248 -177 418
-401 480 -108 30 -257 28 -368 -5z m323 -19 c251 -53 414 -264 415 -536 0
-233 -155 -418 -410 -488 -93 -26 -253 -28 -344 -5 -206 53 -358 210 -398 412
-26 135 28 312 133 426 148 162 385 237 604 191z"/>
<path d="M13157 6835 c-51 -35 -81 -96 -81 -165 1 -65 20 -105 68 -148 83 -73
205 -43 255 61 46 96 9 216 -81 263 -44 23 -118 18 -161 -11z m195 -172 c22
-20 23 -46 2 -67 -22 -23 -41 -20 -60 9 -15 23 -15 27 0 50 19 29 33 31 58 8z"/>
<path d="M11934 7205 c-233 -53 -398 -197 -462 -399 -11 -34 -16 -88 -16 -161
0 -92 5 -122 26 -181 64 -182 201 -305 394 -354 287 -74 618 60 737 298 47 94
61 165 55 282 -13 245 -144 418 -375 496 -96 33 -262 41 -359 19z m346 -51
c195 -61 319 -208 351 -417 53 -338 -211 -610 -591 -611 -170 0 -314 57 -413
163 -97 105 -137 212 -137 361 1 148 37 244 131 344 160 171 422 234 659 160z"/>
<path d="M11717 6806 c-64 -23 -101 -69 -118 -146 -29 -128 92 -252 213 -219
75 20 138 104 138 185 0 77 -64 163 -137 183 -47 13 -49 13 -96 -3z m161 -188
c19 -19 15 -66 -7 -78 -25 -13 -27 -13 -45 6 -30 29 -14 84 24 84 9 0 21 -5
28 -12z"/>
<path d="M12786 6319 c-96 -23 -170 -87 -185 -161 -5 -24 -14 -33 -45 -43 -92
-32 -166 -133 -166 -228 0 -91 54 -168 128 -183 l29 -6 5 -96 c11 -226 130
-316 260 -195 l26 25 36 -35 c19 -19 51 -40 70 -47 32 -10 42 -9 90 13 83 38
89 53 85 204 l-4 128 66 0 c56 0 71 4 101 27 81 61 105 157 59 232 -30 48
-115 123 -173 152 -41 21 -48 28 -48 55 0 116 -170 196 -334 158z m464 -316
c59 -53 84 -103 77 -150 -8 -50 -50 -99 -99 -118 -47 -18 -48 -17 -233 49 -94
34 -143 32 -275 -9 -169 -53 -228 -47 -275 28 -21 34 -23 109 -2 158 19 46 80
105 122 119 29 10 35 8 63 -18 41 -39 110 -57 207 -56 96 1 177 23 231 63 l39
29 49 -27 c27 -14 71 -45 96 -68z m-428 -385 c-4 -139 -6 -155 -26 -176 -27
-30 -68 -52 -99 -52 -65 0 -127 146 -112 261 l7 47 106 35 c59 19 112 35 118
36 8 1 10 -44 6 -151z m196 121 l59 -23 6 -105 c3 -58 2 -124 -1 -146 -6 -35
-13 -43 -52 -63 -55 -28 -83 -23 -130 24 l-35 34 2 131 c1 72 4 142 8 156 5
23 10 25 45 20 21 -3 66 -15 98 -28z"/>
</g>
</svg>
