<svg width="33" height="32" viewBox="0 0 33 32" fill="none" xmlns="http://www.w3.org/2000/svg">
<g clip-path="url(#clip0)">
<path d="M0.947998 0.401001V31.599H32.948V0.401001H0.947998ZM2.281 1.734H31.614V30.265H2.281V1.734ZM12.047 18.068L10.99 22.063C10.969 22.178 10.927 22.198 10.797 22.198H8.839C8.704 22.198 8.683 22.156 8.704 22.005L12.49 8.745C12.558 8.505 12.599 8.292 12.62 7.63C12.62 7.541 12.667 7.5 12.735 7.5H15.527C15.616 7.5 15.662 7.521 15.683 7.63L19.928 22.026C19.954 22.135 19.928 22.198 19.819 22.198H17.621C17.506 22.198 17.444 22.172 17.423 22.083L16.319 18.067H12.043L12.047 18.068ZM15.766 15.901C15.391 14.427 14.511 11.198 14.183 9.635H14.157C13.876 11.192 13.167 13.833 12.621 15.901H15.766ZM21.766 8.49C21.766 7.631 22.36 7.125 23.131 7.125C23.944 7.125 24.496 7.677 24.496 8.49C24.496 9.37 23.923 9.855 23.105 9.855C22.308 9.855 21.761 9.371 21.761 8.49H21.766ZM21.917 11.521C21.917 11.417 21.959 11.375 22.068 11.375H24.162C24.282 11.375 24.323 11.417 24.323 11.531V22.057C24.323 22.166 24.302 22.208 24.167 22.208H22.104C21.969 22.208 21.927 22.145 21.927 22.036V11.52L21.917 11.521Z" fill="#FF9900"/>
</g>
<defs>
<clipPath id="clip0">
<rect width="32" height="32" fill="white" transform="translate(0.947998)"/>
</clipPath>
</defs>
</svg>
