<?xml version="1.0" standalone="no"?>
<!DOCTYPE svg PUBLIC "-//W3C//DTD SVG 20010904//EN"
 "http://www.w3.org/TR/2001/REC-SVG-20010904/DTD/svg10.dtd">
<svg version="1.0" xmlns="http://www.w3.org/2000/svg"
 width="191.000000pt" height="264.000000pt" viewBox="0 0 191.000000 264.000000"
 preserveAspectRatio="xMidYMid meet">
<metadata>
Created by potrace 1.16, written by Peter Selinger 2001-2019
</metadata>
<g transform="translate(0.000000,264.000000) scale(0.100000,-0.100000)"
fill="#000000" stroke="none">
<path d="M932 2629 c-83 -13 -176 -48 -290 -111 -104 -58 -157 -104 -181 -159
-9 -20 -31 -49 -49 -64 -33 -27 -62 -101 -62 -156 0 -18 -7 -32 -20 -39 -31
-17 -144 -154 -189 -229 -51 -86 -94 -194 -117 -296 -28 -122 -24 -330 9 -455
45 -171 122 -311 241 -437 l66 -70 0 -66 c0 -75 12 -115 37 -124 10 -3 67 -28
126 -56 83 -37 124 -51 173 -55 41 -3 64 -9 64 -17 0 -7 18 -69 40 -138 l40
-126 58 -13 c61 -14 321 -17 383 -5 54 11 81 41 73 82 -6 33 -5 34 35 45 24 6
48 21 57 35 15 23 15 31 0 96 -22 100 -21 123 9 143 14 9 25 23 25 31 0 9 14
16 38 20 20 3 46 8 57 10 11 2 29 -5 41 -16 18 -17 36 -21 97 -21 42 -1 89 4
105 11 38 16 72 78 79 144 6 64 -34 200 -74 247 l-25 31 36 81 c67 144 80 210
80 408 1 136 -3 189 -16 237 -47 171 -127 320 -227 427 -45 47 -49 56 -56 116
-10 88 -41 185 -77 242 -37 59 -155 171 -208 198 -90 46 -257 68 -378 49z
m233 -64 c113 -30 172 -63 241 -138 58 -63 82 -99 53 -82 -26 16 -89 -20 -89
-51 0 -12 4 -13 21 -3 30 16 83 3 117 -30 45 -41 55 -95 55 -271 0 -127 -4
-170 -21 -235 -41 -152 -127 -293 -210 -346 -54 -34 -159 -69 -208 -69 -93 0
-211 71 -297 179 -32 42 -61 78 -64 81 -6 7 15 -47 29 -73 17 -34 85 -108 130
-144 l41 -33 -40 0 c-22 0 -45 -6 -52 -13 -8 -10 -26 -12 -76 -6 -119 15 -166
59 -219 207 -31 88 -32 113 -6 137 39 35 16 62 -26 30 -91 -69 -218 110 -159
225 17 34 62 60 100 60 33 0 74 -40 81 -80 5 -24 11 -30 33 -30 15 0 35 6 45
13 16 12 16 16 0 81 -16 65 -16 73 1 164 11 62 15 115 12 153 l-7 58 51 55
c53 58 155 128 229 157 57 23 157 24 235 4z m110 -1452 l37 -18 -6 -105 c-3
-58 -10 -118 -14 -135 -9 -29 -12 -25 -66 89 -31 66 -63 127 -71 137 -13 13
-13 18 -3 26 31 25 78 27 123 6z m150 -29 c14 -9 25 -20 25 -24 0 -10 -83
-151 -117 -200 -22 -30 -24 -31 -19 -10 3 14 11 76 18 138 l12 112 28 0 c16 0
40 -7 53 -16z m-279 -66 c17 -29 33 -60 37 -68 3 -8 17 -41 31 -74 l27 -58
-28 6 c-40 10 -233 103 -233 113 0 18 42 70 82 100 24 18 45 33 48 33 3 0 19
-24 36 -52z m617 -208 c27 -22 67 -147 67 -214 0 -82 -52 -126 -150 -126 -62
0 -58 16 5 26 26 3 42 10 39 16 -4 7 -37 8 -90 4 l-83 -7 -5 33 c-28 193 -28
202 -10 215 9 7 44 22 78 33 34 11 68 25 76 30 23 15 45 12 73 -10z m-558 -78
l40 -7 8 -75 c18 -188 35 -565 24 -572 -53 -33 -396 -21 -426 15 -12 15 -55
167 -76 267 -20 95 -54 333 -49 341 3 6 74 17 199 32 55 7 239 6 280 -1z m282
-29 c8 -21 18 -74 21 -119 l5 -81 -28 -7 c-15 -4 -29 -5 -31 -4 -5 6 -34 190
-34 221 0 22 4 27 26 27 20 0 28 -8 41 -37z m-117 -365 c8 -34 14 -80 14 -102
1 -37 -1 -40 -33 -48 -18 -5 -36 -6 -39 -3 -4 3 -8 50 -10 105 -4 97 -4 98 19
103 13 2 27 5 30 6 4 0 12 -27 19 -61z"/>
<path d="M1270 2091 c0 -47 29 -104 93 -182 61 -73 68 -87 56 -111 -17 -32
-155 -83 -192 -72 -10 3 -23 18 -30 32 l-11 27 -4 -34 c-2 -21 2 -39 11 -49
23 -23 114 -7 196 34 65 32 70 37 76 75 7 38 4 43 -42 92 -64 69 -96 111 -127
172 l-25 50 -1 -34z"/>
</g>
</svg>
