<?xml version="1.0" standalone="no"?>
<!DOCTYPE svg PUBLIC "-//W3C//DTD SVG 20010904//EN"
 "http://www.w3.org/TR/2001/REC-SVG-20010904/DTD/svg10.dtd">
<svg version="1.0" xmlns="http://www.w3.org/2000/svg"
 width="3000.000000pt" height="2000.000000pt" viewBox="0 0 3000.000000 2000.000000"
 preserveAspectRatio="xMidYMid meet">

<g transform="translate(0.000000,2000.000000) scale(0.100000,-0.100000)"
fill="#000000" stroke="none">
<path d="M14835 16649 c-27 -5 -79 -19 -115 -31 -105 -33 -4914 -2333 -5006
-2394 -175 -115 -303 -287 -363 -490 -36 -121 -1202 -5206 -1213 -5292 -23
-175 29 -400 127 -556 39 -61 2871 -3596 3353 -4184 163 -200 357 -317 584
-352 54 -8 808 -10 2843 -8 l2770 3 90 28 c170 53 335 158 436 278 88 104
3327 4136 3362 4185 121 170 183 403 159 602 -10 84 -1186 5215 -1219 5317
-58 181 -195 362 -358 472 -94 63 -4928 2368 -5033 2399 -72 22 -111 27 -227
30 -77 1 -162 -1 -190 -7z m285 -1754 c56 -29 115 -91 143 -154 29 -64 35
-226 13 -356 -44 -257 -69 -578 -52 -669 5 -24 23 -54 48 -82 36 -39 42 -52
47 -106 l6 -62 138 -17 c412 -52 811 -175 1203 -372 329 -165 599 -355 892
-626 72 -67 134 -121 137 -121 4 0 27 15 52 32 40 29 52 33 118 33 68 1 78 4
127 38 75 51 262 228 407 384 186 200 272 260 391 270 135 13 259 -68 295
-191 22 -76 15 -141 -25 -223 -46 -92 -119 -153 -327 -269 -242 -136 -473
-300 -513 -366 -10 -17 -22 -54 -25 -81 -7 -45 -14 -57 -56 -95 l-49 -44 39
-56 c64 -95 161 -269 227 -407 302 -636 419 -1347 337 -2052 l-6 -52 57 -16
c46 -14 61 -24 88 -61 18 -25 46 -53 62 -63 65 -39 376 -90 651 -106 269 -16
397 -73 464 -207 98 -194 -48 -404 -279 -402 -86 1 -162 22 -355 99 -194 77
-388 139 -494 159 -87 17 -133 10 -185 -27 -25 -18 -35 -19 -91 -11 l-63 10
-17 -56 c-34 -109 -108 -288 -185 -445 -252 -517 -611 -959 -1070 -1316 -69
-54 -282 -200 -355 -244 -15 -9 -15 -14 5 -64 20 -51 20 -58 7 -111 -8 -31
-13 -70 -10 -86 14 -79 152 -325 306 -544 157 -225 202 -358 162 -484 -21 -66
-79 -137 -139 -169 -63 -33 -183 -31 -251 5 -111 58 -180 172 -255 423 -80
269 -183 519 -238 577 -14 15 -47 35 -73 43 -41 14 -52 24 -78 70 l-30 53
-163 -53 c-760 -247 -1577 -243 -2325 10 -73 25 -137 45 -143 45 -6 0 -22 -24
-37 -54 -24 -49 -31 -56 -71 -67 -55 -15 -97 -56 -140 -137 -37 -70 -146 -368
-193 -532 -35 -121 -93 -250 -133 -298 -73 -85 -194 -132 -290 -112 -108 22
-193 108 -217 219 -25 118 17 234 163 447 159 231 299 478 314 552 3 16 -2 56
-11 89 -17 59 -16 60 8 118 l24 58 -161 108 c-263 177 -450 335 -674 574 -334
357 -601 793 -767 1255 -21 58 -41 108 -45 113 -3 4 -32 2 -63 -4 -51 -9 -61
-8 -90 9 -64 40 -107 46 -195 28 -111 -23 -307 -86 -498 -162 -200 -79 -275
-97 -374 -92 -252 15 -370 282 -205 466 80 89 196 126 443 142 250 16 542 60
607 92 11 5 43 35 71 65 40 44 62 60 105 73 43 13 54 20 52 36 -1 10 -8 71
-15 134 -17 147 -17 599 0 745 65 570 256 1127 541 1579 l60 96 -44 41 c-25
23 -45 47 -45 53 0 35 -35 121 -61 151 -61 69 -313 241 -512 349 -113 61 -236
154 -271 204 -112 163 -74 356 86 436 41 21 67 26 123 26 144 0 207 -43 475
-321 179 -186 329 -322 390 -354 18 -9 56 -15 98 -15 60 0 73 -3 108 -30 21
-16 43 -30 48 -30 4 0 63 53 130 118 567 544 1299 897 2066 997 213 28 190 19
190 73 0 47 3 54 65 142 28 41 30 50 33 157 4 123 -17 346 -49 538 -27 156
-23 317 8 386 39 87 121 157 208 180 46 12 122 1 175 -26z"/>
<path d="M14440 12665 c-495 -100 -934 -302 -1300 -599 -95 -78 -213 -186
-208 -191 38 -34 1237 -874 1268 -888 50 -23 137 -26 185 -7 77 30 138 103
155 185 9 47 90 1362 90 1473 l0 52 -37 -1 c-21 0 -90 -11 -153 -24z"/>
<path d="M15370 12644 c0 -84 79 -1447 86 -1479 15 -72 64 -135 134 -171 55
-29 162 -26 223 6 26 14 318 217 648 450 l600 425 -83 79 c-288 272 -722 516
-1137 641 -131 39 -319 80 -413 91 l-58 7 0 -49z"/>
<path d="M12432 11238 c-61 -107 -165 -329 -205 -438 -139 -376 -207 -831
-179 -1199 6 -73 12 -135 14 -136 3 -4 1261 358 1395 401 141 45 212 128 213
247 0 63 -17 113 -56 165 -14 18 -261 243 -547 499 -287 256 -538 481 -558
500 l-35 33 -42 -72z"/>
<path d="M16950 10801 c-305 -274 -567 -516 -583 -537 -89 -126 -38 -298 109
-366 49 -23 1433 -428 1462 -428 6 0 13 67 17 153 20 426 -66 891 -241 1304
-56 133 -184 373 -199 372 -5 0 -260 -224 -565 -498z"/>
<path d="M14638 10063 c-74 -93 -137 -173 -141 -180 -6 -9 87 -442 96 -448 1
-1 93 -45 205 -99 l202 -96 204 97 204 98 50 219 c41 176 49 223 39 236 -7 9
-70 89 -141 178 l-130 162 -227 0 -227 0 -134 -167z"/>
<path d="M16203 9001 c-130 -33 -214 -165 -185 -293 7 -28 141 -363 299 -744
l287 -693 29 17 c60 35 275 203 357 279 285 264 488 531 654 863 76 152 144
316 135 324 -6 4 -1444 245 -1499 250 -25 3 -59 1 -77 -3z"/>
<path d="M12957 8875 c-395 -68 -721 -126 -725 -129 -8 -9 64 -183 133 -321
187 -371 468 -714 795 -975 109 -86 238 -176 243 -169 16 21 564 1367 574
1409 38 166 -81 312 -251 309 -28 -1 -374 -56 -769 -124z"/>
<path d="M14892 8369 c-23 -12 -57 -38 -75 -59 -29 -34 -747 -1321 -751 -1345
-2 -13 190 -70 339 -100 223 -45 355 -58 595 -58 308 0 551 33 827 113 57 17
106 30 108 30 3 0 5 4 5 9 0 20 -715 1300 -749 1341 -53 62 -110 89 -191 90
-46 0 -77 -6 -108 -21z"/>
</g>
</svg>
