<?xml version="1.0" standalone="no"?>
<!DOCTYPE svg PUBLIC "-//W3C//DTD SVG 20010904//EN"
 "http://www.w3.org/TR/2001/REC-SVG-20010904/DTD/svg10.dtd">
<svg version="1.0" xmlns="http://www.w3.org/2000/svg"
 width="500.000000pt" height="316.000000pt" viewBox="0 0 500.000000 316.000000"
 preserveAspectRatio="xMidYMid meet">

<g transform="translate(0.000000,316.000000) scale(0.100000,-0.100000)"
fill="#000000" stroke="none">
<path d="M3745 2451 c-83 -23 -137 -63 -161 -120 -14 -31 -15 -68 -9 -252 l6
-215 -69 -95 c-80 -109 -88 -122 -136 -249 -21 -52 -50 -115 -66 -141 -24 -37
-29 -53 -25 -88 6 -54 8 -57 36 -37 24 17 46 10 85 -25 l21 -19 -5 52 c-5 72
20 173 68 269 22 44 47 104 55 133 9 30 30 75 47 101 21 31 33 64 36 96 l5 49
43 -40 c49 -45 92 -52 144 -25 39 20 38 27 -2 20 -64 -12 -73 -12 -90 -3 -10
5 -18 15 -18 23 0 8 -6 15 -14 15 -8 0 -28 16 -45 36 -26 29 -30 39 -20 50 9
11 8 26 -5 67 -14 45 -15 59 -4 92 7 21 21 43 30 49 26 16 76 -36 80 -83 3
-34 5 -36 43 -39 l40 -3 -3 43 c-3 35 1 47 20 65 13 13 38 25 55 29 28 6 34 2
59 -36 31 -47 37 -107 14 -135 -11 -13 -11 -20 0 -40 7 -13 10 -33 7 -45 -3
-13 11 -58 37 -118 24 -53 49 -115 56 -137 7 -22 27 -67 45 -100 44 -80 55
-141 55 -298 1 -164 2 -176 25 -193 21 -15 100 -19 91 -5 -3 5 5 12 18 15 14
3 39 26 57 51 18 25 36 45 40 45 13 0 29 62 29 116 0 101 -75 294 -149 383
-45 54 -76 103 -120 188 -29 56 -33 74 -42 192 -10 152 -31 218 -89 284 -22
25 -58 52 -81 61 -49 20 -151 29 -194 17z"/>
<path d="M1161 2373 c-12 -10 -24 -34 -27 -53 -5 -28 -1 -40 20 -63 50 -54
136 -21 136 52 0 69 -77 106 -129 64z"/>
<path d="M462 2308 c2 -19 11 -24 43 -28 l40 -5 3 -299 c1 -174 -2 -304 -7
-309 -5 -5 -24 -12 -43 -16 -24 -5 -34 -13 -36 -29 l-3 -22 280 0 281 0 0 105
0 105 -39 0 c-42 0 -51 -13 -51 -78 0 -67 -9 -72 -125 -72 l-105 0 0 304 c0
330 -3 316 56 316 19 0 24 5 24 25 l0 25 -161 0 -160 0 3 -22z"/>
<path d="M3260 2179 c0 -5 5 -7 11 -3 8 5 10 -1 7 -20 -3 -16 -1 -26 7 -26 7
0 10 9 8 23 -4 18 0 23 17 23 17 0 20 -5 15 -23 -5 -20 -2 -23 25 -23 27 0 30
3 30 30 0 30 -14 40 -24 18 -5 -10 -7 -10 -12 0 -7 15 -84 16 -84 1z m104 -31
c-3 -4 -9 -8 -15 -8 -5 0 -9 4 -9 8 0 5 7 9 15 9 8 0 12 -4 9 -9z"/>
<path d="M1730 2131 c-30 -9 -70 -25 -87 -35 l-33 -17 0 31 c0 27 -3 30 -33
30 -18 0 -64 -11 -103 -23 -54 -19 -70 -28 -72 -45 -3 -19 1 -22 32 -22 l35 0
3 -191 c2 -119 -1 -194 -7 -199 -5 -4 -21 -10 -35 -12 -17 -2 -26 -10 -28 -25
-3 -23 -3 -23 136 -23 l139 0 -4 24 c-4 18 -13 26 -32 28 l-26 3 -3 187 -2
187 37 10 c77 22 134 8 153 -38 6 -16 9 -87 8 -186 l-3 -159 -25 -6 c-16 -4
-26 -14 -28 -28 -3 -22 -2 -22 132 -22 l136 0 0 24 c0 21 -6 25 -32 28 l-33 3
-5 195 c-5 179 -7 198 -27 231 -38 61 -107 79 -193 50z"/>
<path d="M2140 2122 c-60 -22 -76 -31 -78 -49 -3 -20 1 -23 32 -23 l34 0 4
-182 c3 -160 5 -187 23 -215 41 -70 138 -83 243 -33 35 17 66 30 68 30 2 0 4
-11 4 -25 l0 -25 100 0 c99 0 100 0 100 24 0 21 -6 25 -32 28 l-33 3 -3 248
c-3 286 10 263 -122 219 -69 -23 -86 -33 -88 -50 -3 -20 1 -22 37 -22 l41 0 0
-175 0 -174 -42 -12 c-53 -14 -106 -6 -132 21 -20 19 -21 35 -26 228 l-5 207
-25 2 c-14 1 -59 -10 -100 -25z"/>
<path d="M3856 2128 c-25 -36 -20 -65 14 -83 28 -14 31 -14 50 5 25 25 26 54
0 80 -26 26 -45 25 -64 -2z"/>
<path d="M1140 2116 c-49 -17 -66 -28 -68 -44 -3 -17 3 -21 30 -24 l33 -3 0
-195 0 -195 -32 -3 c-27 -3 -33 -7 -33 -28 l0 -24 143 0 c143 0 144 0 142 23
-1 17 -9 23 -36 27 l-34 5 -3 243 -2 242 -38 -1 c-20 0 -66 -11 -102 -23z"/>
<path d="M3053 2123 c-9 -22 5 -41 32 -45 l26 -3 -43 -61 c-24 -33 -47 -62
-51 -63 -9 -2 -87 104 -87 118 0 5 9 11 20 14 12 3 20 14 20 26 0 20 -5 21
-130 21 l-130 0 0 -25 c0 -20 5 -25 24 -25 14 0 31 -7 39 -15 20 -20 147 -202
147 -210 0 -4 -33 -49 -72 -101 -59 -75 -79 -95 -105 -100 -26 -5 -33 -11 -33
-30 0 -24 1 -24 105 -24 l105 0 0 25 c0 20 -5 25 -26 25 -19 0 -25 4 -20 15 9
25 86 135 94 135 7 0 77 -107 88 -133 3 -10 -2 -18 -15 -22 -12 -3 -21 -15
-21 -26 0 -18 8 -19 131 -19 128 0 130 0 127 22 -2 14 -13 25 -33 30 -23 6
-47 33 -103 113 -40 58 -75 111 -78 118 -3 8 27 54 66 105 54 70 77 91 98 94
21 2 27 8 27 27 0 23 -2 24 -99 25 -70 1 -100 -3 -103 -11z"/>
<path d="M3635 2117 c-6 -24 18 -87 33 -87 4 0 16 7 26 15 17 13 18 20 10 52
-7 31 -14 39 -36 41 -22 3 -29 -2 -33 -21z m53 -22 c-3 -3 -9 2 -12 12 -6 14
-5 15 5 6 7 -7 10 -15 7 -18z"/>
<path d="M3855 1930 c-3 -6 1 -7 9 -4 18 7 21 14 7 14 -6 0 -13 -4 -16 -10z"/>
<path d="M3775 1905 c-22 -8 -31 -14 -20 -14 11 0 34 6 50 14 38 17 22 17 -30
0z"/>
<path d="M2630 1473 c-63 -2 -122 -6 -130 -9 -17 -6 -168 -17 -230 -16 -45 0
-45 0 -10 -8 19 -5 57 -7 85 -5 27 2 39 2 26 -1 -19 -5 -21 -8 -10 -16 10 -7
0 -8 -31 -5 l-45 5 37 -11 c45 -13 57 -48 25 -78 -11 -10 -27 -19 -34 -19 -7
0 -10 -6 -7 -13 6 -15 -22 -43 -51 -50 -19 -4 -18 -5 2 -6 12 0 25 4 28 9 4 6
21 8 41 4 18 -3 42 -3 51 1 10 5 28 7 40 6 12 -1 57 3 100 9 43 6 141 20 218
30 315 43 527 93 549 128 28 45 -156 58 -654 45z m-290 -183 c0 -5 -4 -10 -10
-10 -5 0 -10 5 -10 10 0 6 5 10 10 10 6 0 10 -4 10 -10z m36 -15 c-11 -8 -29
-15 -40 -15 -19 0 -19 2 4 14 35 20 61 20 36 1z"/>
<path d="M4061 1025 c-28 -41 -127 -110 -179 -125 -20 -6 -71 -14 -113 -17
-63 -5 -83 -2 -122 15 l-46 20 8 -21 c18 -47 -24 -96 -103 -122 -17 -5 -106 9
-206 32 -14 4 -29 5 -34 4 -5 -1 -38 5 -73 14 -69 18 -101 14 -36 -4 173 -48
257 -74 294 -91 68 -31 113 -25 164 20 33 30 92 39 259 41 l158 2 32 -37 c65
-77 153 -66 246 30 l45 46 -45 -23 c-25 -13 -48 -28 -52 -33 -11 -16 -95 -10
-123 8 -44 29 -55 71 -46 172 4 49 5 92 2 96 -3 4 -17 -8 -30 -27z"/>
</g>
</svg>
