<svg width="512" height="146" viewBox="0 0 512 146" fill="none" xmlns="http://www.w3.org/2000/svg">
<g clip-path="url(#clip0)">
<path fill-rule="evenodd" clip-rule="evenodd" d="M476.713 60.463C476.253 60.555 475.791 61.57 475.791 62.123C475.699 65.815 475.607 75.597 475.607 82.241C475.607 82.426 475.883 82.795 476.16 82.795C477.544 82.887 480.866 82.979 483.727 82.979C487.695 82.979 490.002 82.426 491.295 81.873C494.616 80.211 496.185 76.612 496.185 72.643C496.185 63.693 489.91 60.278 480.589 60.278C479.943 60.186 478.099 60.186 476.713 60.463V60.463ZM500.523 101.713C500.523 92.577 493.786 87.501 481.605 87.501C481.051 87.501 477.175 87.409 476.252 87.593C475.975 87.686 475.607 87.871 475.607 88.148C475.607 94.699 475.514 105.128 475.791 109.188C475.975 110.941 477.268 113.433 478.837 114.171C480.497 115.094 484.281 115.278 486.865 115.278C494.155 115.278 500.523 111.218 500.523 101.713V101.713ZM457.889 55.388C458.811 55.388 461.579 55.664 468.685 55.664C475.422 55.664 480.774 55.48 487.326 55.48C495.354 55.48 506.428 58.34 506.428 70.337C506.428 76.243 502.275 80.95 496.831 83.257C496.555 83.349 496.555 83.533 496.831 83.625C504.582 85.564 511.412 90.362 511.412 99.405C511.412 108.265 505.875 113.894 497.846 117.401C492.955 119.523 486.865 120.261 480.682 120.261C475.975 120.261 463.333 119.708 456.32 119.893C455.582 119.615 456.966 116.293 457.611 115.74C459.273 115.647 460.564 115.555 462.318 115.001C464.81 114.356 465.086 113.617 465.455 109.834C465.64 106.604 465.64 95.16 465.64 87.04C465.64 75.874 465.733 68.307 465.64 64.616C465.548 61.756 464.533 60.832 462.503 60.278C460.933 60.002 458.35 59.632 456.227 59.356C455.765 58.894 457.334 55.756 457.889 55.388ZM404.641 112.787C406.857 114.539 411.194 115.277 415.07 115.277C420.053 115.277 425.036 114.356 429.835 110.017C434.726 105.589 438.14 98.76 438.14 87.871C438.14 77.442 434.172 68.952 426.051 63.97C421.437 61.108 415.531 59.91 408.702 59.91C406.672 59.91 404.734 60.002 403.535 60.555C403.257 60.74 402.612 61.57 402.612 62.031C402.427 63.877 402.427 78.088 402.427 86.394C402.427 94.976 402.427 106.973 402.612 108.357C402.612 109.742 403.257 111.864 404.642 112.787H404.641ZM383.693 55.387C385.447 55.387 392.183 55.664 395.413 55.664C401.228 55.664 405.38 55.388 416.361 55.388C425.589 55.388 433.341 57.879 438.878 62.585C445.614 68.399 449.122 76.428 449.122 86.209C449.122 100.144 442.754 108.173 436.386 112.787C430.02 117.493 421.714 120.261 409.902 120.261C403.627 120.261 392.83 120.077 383.878 119.984H383.786C383.325 119.154 384.524 115.924 385.262 115.832C387.662 115.555 388.308 115.462 389.508 115.002C391.445 114.263 391.815 113.248 392.092 109.834C392.368 103.466 392.276 95.807 392.276 87.132C392.276 80.95 392.368 68.86 392.183 64.984C391.907 61.755 390.523 60.924 387.754 60.37C386.37 60.094 384.524 59.724 381.941 59.448C381.571 58.801 383.232 55.941 383.693 55.388V55.387Z" fill="#8E714E"/>
<path fill-rule="evenodd" clip-rule="evenodd" d="M272.033 116.385C269.726 116.108 268.065 115.74 266.035 114.817C265.758 114.632 265.296 113.71 265.296 113.34C265.112 110.11 265.112 100.882 265.112 94.7C265.112 89.716 264.282 85.379 262.159 82.334C259.667 78.826 256.069 76.797 251.454 76.797C247.394 76.797 241.949 79.565 237.427 83.441C237.335 83.533 236.597 84.18 236.689 83.164C236.689 82.149 236.874 80.119 236.966 78.734C237.059 77.442 236.32 76.797 236.32 76.797C233.367 78.273 225.062 80.211 222.016 80.487C219.802 80.95 219.248 83.072 221.556 83.81H221.648C224.138 84.548 225.8 85.379 227.091 86.21C228.014 86.948 227.922 87.963 227.922 88.794C228.014 95.714 228.014 106.327 227.738 112.141C227.646 114.448 227 115.278 225.338 115.647L225.523 115.555C224.231 115.832 223.216 116.108 221.647 116.293C221.093 116.847 221.093 119.8 221.647 120.446C222.662 120.446 228.014 120.169 232.445 120.169C238.535 120.169 241.673 120.446 243.241 120.446C243.887 119.708 244.072 116.939 243.703 116.293C241.949 116.201 240.657 116.017 239.458 115.647C237.797 115.277 237.335 114.448 237.242 112.51C237.059 107.618 237.059 97.283 237.059 90.27C237.059 88.332 237.612 87.409 238.165 86.855C240.288 85.01 243.703 83.718 246.748 83.718C249.701 83.718 251.638 84.641 253.115 85.841C255.145 87.501 255.791 89.901 256.068 91.654C256.529 95.622 256.345 103.466 256.345 110.295C256.345 113.986 256.068 114.909 254.685 115.37C254.038 115.647 252.377 116.017 250.439 116.2C249.793 116.847 249.978 119.708 250.439 120.354C253.115 120.354 256.253 120.077 260.867 120.077C266.588 120.077 270.28 120.354 271.757 120.354C272.217 119.8 272.402 117.124 272.033 116.385V116.385ZM297.595 81.135C292.705 81.135 289.659 84.918 289.659 90.823C289.659 96.822 292.335 103.743 299.902 103.743C301.194 103.743 303.594 103.189 304.7 101.897C306.454 100.237 307.654 96.914 307.654 93.407C307.654 85.748 303.87 81.134 297.595 81.134V81.135ZM296.949 121.922C295.104 121.922 293.811 122.476 292.981 122.938C289.105 125.428 287.352 127.828 287.352 130.69C287.352 133.365 288.367 135.487 290.582 137.333C293.258 139.64 296.949 140.748 301.655 140.748C311.068 140.748 315.221 135.672 315.221 130.69C315.221 127.182 313.467 124.875 309.869 123.584C307.285 122.476 302.579 121.922 296.949 121.922V121.922ZM297.595 145.916C291.966 145.916 287.905 144.716 284.399 142.04C280.984 139.456 279.508 135.58 279.508 132.904C279.508 132.166 279.693 130.135 281.354 128.29C282.368 127.182 284.584 125.06 289.844 121.461C290.028 121.369 290.12 121.277 290.12 121.091C290.12 120.907 289.935 120.722 289.751 120.631C285.414 118.97 284.122 116.293 283.752 114.817V114.632C283.661 114.078 283.476 113.525 284.307 112.971C284.953 112.51 285.876 111.956 286.89 111.311C288.459 110.387 290.12 109.372 291.135 108.541C291.32 108.357 291.32 108.173 291.32 107.988C291.32 107.803 291.135 107.618 290.95 107.527C284.492 105.404 281.262 100.605 281.262 93.407C281.262 88.701 283.384 84.456 287.167 81.78C289.751 79.75 296.211 77.258 300.456 77.258H300.733C305.07 77.35 307.469 78.273 310.883 79.473C312.729 80.119 314.483 80.395 316.883 80.395C320.481 80.395 322.05 79.288 323.341 77.997C323.434 78.181 323.619 78.643 323.711 79.842C323.803 81.042 323.434 82.795 322.511 84.087C321.773 85.102 320.112 85.841 318.451 85.841H317.989C316.328 85.656 315.589 85.471 315.589 85.471L315.221 85.656C315.129 85.841 315.221 86.025 315.313 86.302L315.406 86.487C315.59 87.317 315.959 89.808 315.959 90.455C315.959 98.022 312.914 101.343 309.684 103.835C306.546 106.142 302.948 107.618 298.887 107.988C298.795 107.988 298.427 107.988 297.595 108.08C297.134 108.08 296.488 108.173 296.395 108.173H296.303C295.565 108.357 293.72 109.28 293.72 110.848C293.72 112.232 294.55 113.894 298.518 114.171C299.348 114.263 300.178 114.263 301.102 114.356C306.362 114.724 312.914 115.186 315.959 116.201C320.204 117.769 322.88 121.553 322.88 126.075C322.88 132.905 317.99 139.272 309.869 143.239C305.901 144.993 301.932 145.916 297.595 145.916V145.916ZM350.195 81.596C348.258 81.596 346.504 82.056 345.212 82.979C341.614 85.194 339.768 89.624 339.768 96.083C339.768 108.173 345.858 116.663 354.533 116.663C357.117 116.663 359.147 115.924 360.9 114.448C363.576 112.232 364.961 107.803 364.961 101.62C364.961 89.624 358.962 81.595 350.196 81.595L350.195 81.596ZM351.857 121.092C336.169 121.092 330.54 109.557 330.54 98.76C330.54 91.193 333.585 85.379 339.675 81.226C344.013 78.55 349.181 77.074 353.795 77.074C365.791 77.074 374.189 85.656 374.189 98.022C374.189 106.419 370.867 113.063 364.499 117.124C361.454 119.154 356.194 121.092 351.856 121.092H351.857V121.092ZM187.411 81.595C185.473 81.595 183.72 82.056 182.427 82.979C178.829 85.194 176.983 89.624 176.983 96.083C176.983 108.173 183.073 116.663 191.748 116.663C194.332 116.663 196.362 115.924 198.116 114.448C200.791 112.232 202.176 107.803 202.176 101.62C202.176 89.624 196.27 81.595 187.411 81.595ZM189.072 121.092C173.384 121.092 167.755 109.557 167.755 98.76C167.755 91.193 170.8 85.379 176.89 81.226C181.228 78.55 186.396 77.074 191.01 77.074C203.007 77.074 211.404 85.656 211.404 98.022C211.404 106.419 208.082 113.063 201.714 117.124C198.761 119.154 193.501 121.092 189.072 121.092ZM83.5941 120.169C83.4091 119.893 83.2241 119.062 83.3171 118.047C83.3171 117.308 83.5021 116.847 83.5941 116.663C85.5321 116.385 86.5471 116.108 87.6541 115.832C89.5001 115.37 90.2381 114.356 90.3301 112.049C90.6081 106.512 90.6081 95.991 90.5151 88.701V88.516C90.5151 87.686 90.5151 86.67 89.5001 85.932C88.0231 85.01 86.2701 84.18 83.9631 83.532C83.1331 83.257 82.5791 82.795 82.6711 82.242C82.6711 81.688 83.2251 81.042 84.4251 80.857C87.4701 80.58 95.4051 78.643 98.5431 77.258C98.7281 77.442 99.0051 77.997 99.0051 78.735L98.9131 79.749C98.8201 80.765 98.7281 81.965 98.7281 83.164C98.7281 83.533 99.0981 83.81 99.4661 83.81C99.6511 83.81 99.8361 83.718 100.02 83.625C105.926 79.011 111.278 77.35 114.046 77.35C118.569 77.35 122.076 79.473 124.752 83.902C124.936 84.18 125.121 84.272 125.398 84.272C125.582 84.272 125.858 84.18 125.951 83.995C131.396 79.842 136.841 77.35 140.439 77.35C149.021 77.35 154.097 83.718 154.097 94.515C154.097 97.56 154.097 101.528 154.005 105.128C154.005 108.357 153.913 111.31 153.913 113.433C153.913 113.893 154.558 115.37 155.573 115.647C156.865 116.293 158.619 116.57 160.926 116.939H161.018C161.203 117.585 160.834 119.984 160.465 120.446C159.911 120.446 159.08 120.446 158.158 120.354C155.822 120.232 153.483 120.17 151.144 120.169C145.423 120.169 142.47 120.261 139.608 120.446C139.425 119.708 139.332 117.493 139.608 116.939C141.27 116.663 142.1 116.385 143.116 116.109C144.962 115.555 145.423 114.724 145.516 112.325C145.516 110.572 145.884 95.622 145.33 92.023C144.777 88.332 142.008 83.995 135.917 83.995C133.61 83.995 130.012 84.918 126.505 87.593C126.321 87.778 126.135 88.239 126.135 88.516V88.609C126.505 90.546 126.505 92.762 126.505 96.176V102.174C126.505 106.327 126.412 110.203 126.505 113.155C126.505 115.186 127.705 115.647 128.72 116.017C129.274 116.108 129.642 116.201 130.104 116.293C130.934 116.478 131.765 116.663 133.057 116.939C133.242 117.309 133.242 118.508 132.965 119.523C132.872 120.077 132.687 120.353 132.595 120.446C129.458 120.354 126.228 120.261 121.522 120.261C120.138 120.261 117.738 120.354 115.708 120.354C114.046 120.354 112.478 120.446 111.556 120.446C111.463 120.261 111.278 119.616 111.278 118.6C111.278 117.77 111.463 117.124 111.648 116.939C112.109 116.847 112.478 116.755 112.94 116.755C114.046 116.57 114.97 116.385 115.892 116.201C117.462 115.74 118.015 114.909 118.107 112.879C118.384 108.265 118.661 95.069 118.015 91.746C116.908 86.394 113.863 83.718 108.971 83.718C106.111 83.718 102.511 85.102 99.5591 87.318C99.0971 87.686 98.7281 88.608 98.7281 89.439V94.884C98.7281 101.528 98.7281 109.834 98.8201 113.433C98.9131 114.539 99.2811 115.832 101.404 116.293C101.866 116.385 102.604 116.57 103.527 116.663L105.187 116.939C105.373 117.493 105.28 119.708 104.911 120.446C103.988 120.446 102.881 120.354 101.588 120.354C99.6511 120.261 97.1591 120.169 94.3911 120.169C91.1611 120.169 88.8541 120.261 87.0081 120.354C85.7161 120.169 84.7011 120.169 83.5941 120.169V120.169Z" fill="#442D22"/>
<path fill-rule="evenodd" clip-rule="evenodd" d="M35.053 142.317L31.27 141.024C31.27 141.024 31.732 121.738 24.81 120.354C20.197 115.001 25.55 -106.659 42.16 119.615C42.16 119.615 36.438 122.475 35.423 127.367C34.315 132.166 35.053 142.317 35.053 142.317V142.317Z" fill="white"/>
<path fill-rule="evenodd" clip-rule="evenodd" d="M35.053 142.317L31.27 141.024C31.27 141.024 31.732 121.738 24.81 120.354C20.197 115.001 25.55 -106.659 42.16 119.615C42.16 119.615 36.438 122.475 35.423 127.367C34.315 132.166 35.053 142.317 35.053 142.317V142.317Z" fill="#A6A385"/>
<path fill-rule="evenodd" clip-rule="evenodd" d="M37.084 123.676C37.084 123.676 70.214 101.897 62.461 56.586C54.987 23.643 37.361 12.846 35.423 8.693C33.301 5.74 31.27 0.572998 31.27 0.572998L32.655 92.207C32.655 92.3 29.794 120.261 37.085 123.677" fill="white"/>
<path fill-rule="evenodd" clip-rule="evenodd" d="M37.084 123.676C37.084 123.676 70.214 101.897 62.461 56.586C54.987 23.643 37.361 12.846 35.423 8.693C33.301 5.74 31.27 0.572998 31.27 0.572998L32.655 92.207C32.655 92.3 29.794 120.261 37.085 123.677" fill="#499D4A"/>
<path fill-rule="evenodd" clip-rule="evenodd" d="M29.333 124.875C29.333 124.875 -1.76696 103.65 0.0790442 66.277C1.83204 28.903 23.795 10.539 28.04 7.217C30.809 4.264 30.901 3.156 31.086 0.203003C33.024 4.356 32.655 62.309 32.931 69.137C33.761 95.437 31.455 119.893 29.333 124.875Z" fill="white"/>
<path fill-rule="evenodd" clip-rule="evenodd" d="M29.333 124.875C29.333 124.875 -1.76696 103.65 0.0790442 66.277C1.83204 28.903 23.795 10.539 28.04 7.217C30.809 4.264 30.901 3.156 31.086 0.203003C33.024 4.356 32.655 62.309 32.931 69.137C33.761 95.437 31.455 119.893 29.333 124.875Z" fill="#58AA50"/>
</g>
<defs>
<clipPath id="clip0">
<rect width="512" height="146" fill="white"/>
</clipPath>
</defs>
</svg>
