<?xml version="1.0" standalone="no"?>
<!DOCTYPE svg PUBLIC "-//W3C//DTD SVG 20010904//EN"
 "http://www.w3.org/TR/2001/REC-SVG-20010904/DTD/svg10.dtd">
<svg version="1.0" xmlns="http://www.w3.org/2000/svg"
 width="3000.000000pt" height="2000.000000pt" viewBox="0 0 3000.000000 2000.000000"
 preserveAspectRatio="xMidYMid meet">
<metadata>
Created by potrace 1.16, written by Peter Selinger 2001-2019
</metadata>
<g transform="translate(0.000000,2000.000000) scale(0.100000,-0.100000)"
fill="#000000" stroke="none">
<path d="M18183 15945 c-141 -39 -230 -116 -296 -252 -40 -83 -42 -94 -45
-193 -6 -162 35 -284 154 -462 29 -44 54 -84 54 -89 0 -4 4 -9 9 -11 18 -7
280 -348 379 -494 68 -101 119 -213 147 -323 31 -122 204 -612 275 -777 99
-230 275 -524 348 -583 21 -16 49 -50 62 -74 l23 -43 -27 -57 c-15 -32 -38
-108 -52 -170 -15 -61 -44 -177 -65 -257 -65 -247 -84 -361 -100 -600 -15
-239 14 -578 66 -781 8 -30 16 -64 18 -75 2 -10 6 -26 9 -34 3 -8 18 -51 33
-95 101 -302 305 -588 480 -675 64 -32 77 -35 160 -35 71 1 100 5 138 23 143
65 196 164 232 437 16 118 61 382 72 419 4 14 42 -52 132 -230 129 -257 172
-325 297 -473 75 -89 386 -401 400 -401 14 0 246 -200 349 -300 114 -111 209
-180 248 -180 28 0 19 12 -46 65 -253 204 -536 580 -853 1132 -187 324 -429
835 -465 978 -18 71 -34 108 -59 130 -20 19 -22 19 -32 2 -5 -10 -45 -62 -88
-116 -113 -142 -155 -207 -189 -292 -59 -148 -92 -313 -131 -664 -13 -112 -26
-193 -33 -197 -32 -20 -146 56 -198 132 -74 106 -177 370 -218 556 -42 187
-55 328 -55 578 0 163 3 241 10 243 6 2 9 15 6 28 -5 30 22 193 50 300 12 44
50 158 85 253 109 296 126 411 75 509 -15 29 -64 91 -110 138 -100 104 -181
225 -266 400 -70 143 -112 258 -240 655 -96 295 -149 427 -221 547 -60 102
-243 357 -345 483 -102 126 -153 202 -195 293 -51 110 -60 161 -39 217 9 25
24 53 32 63 22 25 98 57 136 57 56 0 218 -47 336 -98 271 -116 481 -235 620
-352 121 -101 154 -116 275 -123 186 -11 492 -36 521 -42 189 -43 487 -170
754 -324 202 -116 540 -351 653 -455 21 -19 42 -36 47 -38 44 -16 489 -459
627 -626 342 -411 618 -856 742 -1194 62 -169 95 -243 284 -639 85 -178 176
-373 202 -434 132 -305 301 -621 391 -732 45 -55 156 -111 328 -164 205 -65
512 -177 611 -223 90 -43 275 -163 496 -322 64 -46 175 -120 246 -165 156 -99
245 -169 272 -213 12 -18 21 -36 21 -40 0 -3 -69 -6 -154 -6 -361 0 -653 -44
-915 -140 -58 -21 -133 -46 -166 -56 -63 -19 -125 -68 -125 -99 0 -17 96 -231
110 -245 3 -3 30 -39 62 -81 91 -123 162 -193 307 -303 204 -154 308 -220 501
-313 353 -171 460 -225 460 -234 0 -5 5 -9 11 -9 20 0 299 -197 299 -212 0 -4
5 -8 11 -8 14 0 78 -50 157 -122 63 -58 119 -94 129 -84 3 3 -13 47 -36 98
-37 82 -55 106 -144 198 -56 58 -128 138 -161 178 -82 100 -302 311 -428 409
-58 46 -187 132 -287 193 -232 140 -286 177 -362 247 -55 51 -119 134 -119
154 0 3 28 12 63 18 34 7 130 30 212 51 190 50 220 55 424 80 184 21 224 29
419 85 130 37 132 38 132 66 0 21 -25 61 -92 146 -127 162 -152 190 -238 265
-329 284 -832 648 -1043 755 -131 65 -499 230 -579 258 -37 13 -81 31 -97 41
-39 23 -110 133 -173 268 -29 61 -116 239 -194 396 -217 438 -356 745 -494
1091 -93 233 -138 324 -238 484 -547 876 -1157 1467 -2092 2027 -250 149 -341
185 -683 268 -149 36 -192 42 -392 55 -152 10 -234 19 -253 29 -15 8 -63 45
-107 82 -207 174 -569 359 -842 431 -124 32 -338 41 -420 18z"/>
<path d="M19608 14508 c-32 -6 -58 -15 -58 -20 0 -16 58 -95 122 -166 47 -52
77 -100 134 -219 41 -84 76 -153 79 -153 3 0 21 17 41 38 50 52 82 125 90 205
6 63 5 71 -26 130 -40 77 -59 97 -137 153 -58 41 -65 44 -125 43 -35 -1 -89
-6 -120 -11z"/>
<path d="M4110 8679 c-124 -15 -304 -64 -397 -109 -94 -44 -159 -103 -197
-179 -58 -114 -56 -40 -56 -1733 l0 -1558 385 0 385 0 2 1481 3 1481 509
-1133 c280 -624 525 -1168 544 -1209 18 -41 59 -130 89 -198 97 -215 175 -312
303 -381 127 -67 174 -76 420 -76 198 0 221 2 290 23 106 34 165 66 228 126
109 103 99 83 476 924 146 326 270 600 275 610 5 9 53 116 107 237 53 121 100
222 103 225 3 3 7 11 9 19 1 7 88 203 192 435 l190 421 0 -1492 0 -1493 385 0
385 0 -2 1568 c-3 1453 -5 1571 -21 1625 -62 207 -190 296 -528 368 -145 31
-369 31 -482 1 -165 -45 -309 -145 -401 -279 -26 -38 -92 -170 -147 -293 -55
-124 -319 -713 -586 -1310 -266 -597 -488 -1088 -491 -1092 -4 -3 -254 566
-557 1265 -302 700 -566 1304 -586 1344 -98 193 -261 321 -466 367 -94 21
-255 27 -363 15z"/>
<path d="M12220 6575 l0 -986 -892 3 c-867 4 -895 4 -959 24 -122 38 -187 89
-224 177 -13 32 -15 147 -15 897 l0 860 -382 0 -383 0 -3 -876 c-3 -967 -5
-933 60 -1058 44 -84 180 -217 283 -278 150 -87 338 -152 535 -184 174 -28
378 -34 1173 -34 l797 0 0 -162 c0 -143 -2 -167 -21 -204 -26 -55 -78 -100
-154 -135 -134 -61 -97 -59 -1435 -59 l-1220 0 0 -260 0 -260 1258 0 c1196 0
1263 1 1390 20 522 76 839 283 940 610 15 50 17 176 19 1473 l3 1417 -385 0
-385 0 0 -985z"/>
</g>
</svg>
