<svg width="104" height="63" viewBox="0 0 104 63" fill="none" xmlns="http://www.w3.org/2000/svg">
<path d="M24.5395 16.4251H44.1549V17.9901H26.3376V29.7678H43.0926V31.3326H26.3376V44.2635H44.3593V45.8283H24.5395V16.4251ZM45.9123 16.4251H47.9964L57.2319 29.356L66.6717 16.4249L79.5115 0L58.4169 30.715L69.2872 45.8283H67.1212L57.2319 32.0739L47.3015 45.8283H45.1766L56.1285 30.7148L45.9121 16.4251H45.9123ZM70.0635 17.9901V16.4249H92.417V17.9899H82.1188V45.8281H80.3207V17.9901H70.0635V17.9901ZM0 16.4249H2.24758L33.2404 62.9761L20.4328 45.8281L1.87972 18.6488L1.79806 45.8285H0V16.4249ZM92.2358 43.7909C91.8684 43.7909 91.5929 43.5055 91.5929 43.136C91.5929 42.767 91.8684 42.4812 92.2358 42.4812C92.6075 42.4812 92.8787 42.7668 92.8787 43.136C92.8787 43.5053 92.6075 43.7909 92.2358 43.7909ZM94.0026 42.0681H94.9648C94.9778 42.5911 95.3583 42.9428 95.9181 42.9428C96.5435 42.9428 96.8977 42.5648 96.8977 41.8571V37.3737H97.8774V41.8614C97.8774 43.136 97.1427 43.8702 95.9268 43.8702C94.7852 43.8702 94.0026 43.1581 94.0026 42.0679V42.0681ZM99.1587 42.011H100.13C100.213 42.6131 100.799 42.9954 101.643 42.9954C102.43 42.9954 103.007 42.5866 103.007 42.0241C103.007 41.5406 102.64 41.2505 101.805 41.0528L100.991 40.855C99.8495 40.5867 99.3293 40.0329 99.3293 39.1012C99.3293 37.9717 100.248 37.2199 101.625 37.2199C102.907 37.2199 103.843 37.9715 103.899 39.0396H102.946C102.854 38.4551 102.347 38.0901 101.612 38.0901C100.838 38.0901 100.322 38.4638 100.322 39.0351C100.322 39.4877 100.654 39.7473 101.477 39.9406L102.172 40.112C103.466 40.4154 104 40.9429 104 41.8966C104 43.1097 103.064 43.8702 101.569 43.8702C100.169 43.8702 99.2286 43.1448 99.1587 42.0108V42.011Z" fill="black"/>
</svg>
