<svg width="103" height="54" viewBox="0 0 103 54" fill="none" xmlns="http://www.w3.org/2000/svg">
<path d="M51.5 53.84C79.9427 53.84 103 41.7875 103 26.92C103 12.0525 79.9427 0 51.5 0C23.0573 0 0 12.0525 0 26.92C0 41.7875 23.0573 53.84 51.5 53.84Z" fill="url(#paint0_radial)"/>
<path d="M51.5 51.84C78.8316 51.84 100.988 40.6829 100.988 26.92C100.988 13.1571 78.8316 2 51.5 2C24.1684 2 2.01172 13.1571 2.01172 26.92C2.01172 40.6829 24.1684 51.84 51.5 51.84Z" fill="#6181B6"/>
<path d="M61.5184 35L63.9727 22.44C64.5359 19.6 64.0531 17.48 62.6047 16.16C61.1965 14.88 58.7824 14.24 55.2418 14.24H50.9769L52.184 8.00001C52.2242 7.76001 52.184 7.52001 52.023 7.32001C51.8621 7.12001 51.6609 7.04001 51.4195 7.04001H45.5453C45.143 7.04001 44.8211 7.32001 44.7406 7.68001L42.1254 21C41.884 19.48 41.3207 18.2 40.3551 17.16C38.625 15.2 35.9293 14.2 32.268 14.2H20.9621C20.5598 14.2 20.2379 14.48 20.1574 14.84L14.8867 41.88C14.8465 42.12 14.8867 42.36 15.0476 42.56C15.2086 42.76 15.4098 42.84 15.6512 42.84H21.5656C21.968 42.84 22.2898 42.56 22.3703 42.2L23.6578 35.68H28.0433C30.3367 35.68 32.3082 35.44 33.7969 34.96C35.366 34.44 36.7742 33.6 38.0215 32.44C39.0273 31.52 39.8723 30.48 40.516 29.36L39.4699 34.76C39.4297 35 39.4699 35.24 39.6309 35.44C39.7918 35.64 39.993 35.72 40.2344 35.72H46.1086C46.5109 35.72 46.8328 35.44 46.9133 35.08L49.8101 20.28H53.8336C55.5637 20.28 56.0465 20.6 56.2074 20.76C56.3281 20.88 56.5695 21.36 56.2879 22.84L53.9543 34.8C53.9141 35.04 53.9543 35.28 54.1152 35.48C54.2762 35.68 54.4773 35.76 54.7187 35.76H60.7539C61.116 35.64 61.4379 35.36 61.5184 35ZM34.3199 24.6C33.9578 26.48 33.2738 27.84 32.268 28.6C31.2621 29.36 29.6125 29.76 27.4398 29.76H24.8246L26.7156 20.08H30.0953C32.5898 20.08 33.5957 20.6 33.998 21.04C34.5211 21.68 34.6418 22.92 34.3199 24.6V24.6Z" fill="white"/>
<path d="M86.6246 17.16C84.8945 15.2 82.1988 14.2 78.5375 14.2H67.1512C66.7488 14.2 66.427 14.48 66.3465 14.84L61.0758 41.84C61.0356 42.08 61.0758 42.32 61.2367 42.52C61.3977 42.72 61.5988 42.8 61.8402 42.8H67.7547C68.157 42.8 68.4789 42.52 68.5594 42.16L69.8469 35.64H74.2324C76.5258 35.64 78.4973 35.4 79.9859 34.92C81.5551 34.4 82.9633 33.56 84.2106 32.4C85.2566 31.44 86.1418 30.36 86.7855 29.2C87.4293 28.04 87.9121 26.76 88.1938 25.36C88.8777 21.88 88.3547 19.16 86.6246 17.16V17.16ZM80.4688 24.6C80.1066 26.48 79.4227 27.84 78.4168 28.6C77.4109 29.36 75.7613 29.76 73.5887 29.76H70.9734L72.8645 20.08H76.2441C78.7387 20.08 79.7445 20.6 80.1469 21.04C80.7102 21.68 80.8309 22.92 80.4688 24.6Z" fill="white"/>
<path d="M30.0953 19.28C32.3484 19.28 33.8371 19.68 34.6016 20.52C35.366 21.36 35.527 22.76 35.1246 24.76C34.7223 26.84 33.9176 28.36 32.7508 29.24C31.584 30.12 29.8137 30.56 27.4398 30.56H23.859L26.0719 19.28H30.0953V19.28ZM15.6914 42H21.6059L23.0141 34.84H28.0836C30.3367 34.84 32.1473 34.6 33.5957 34.12C35.0441 33.64 36.3316 32.88 37.5387 31.76C38.5445 30.84 39.3492 29.84 39.9527 28.76C40.5563 27.68 40.9988 26.48 41.2402 25.16C41.884 21.96 41.4012 19.48 39.832 17.68C38.2629 15.88 35.7684 15 32.3484 15H20.9621L15.6914 42Z" fill="#000004"/>
<path d="M45.5855 7.84H51.4597L50.0515 15H55.282C58.5812 15 60.8344 15.56 62.0816 16.72C63.3289 17.88 63.691 19.72 63.2082 22.28L60.7539 34.84H54.7992L57.1328 22.88C57.4144 21.52 57.2937 20.6 56.8511 20.12C56.4086 19.64 55.4027 19.36 53.914 19.36H49.2066L46.189 34.84H40.3148L45.5855 7.84V7.84Z" fill="#000004"/>
<path d="M76.2441 19.28C78.4972 19.28 79.9859 19.68 80.7504 20.52C81.5148 21.36 81.6758 22.76 81.2734 24.76C80.8711 26.84 80.0664 28.36 78.8996 29.24C77.7328 30.12 75.9625 30.56 73.5886 30.56H70.0078L72.2207 19.28H76.2441ZM61.8402 42H67.7547L69.1629 34.84H74.2324C76.4855 34.84 78.2961 34.6 79.7445 34.12C81.1929 33.64 82.4804 32.88 83.6875 31.76C84.6933 30.84 85.498 29.84 86.1015 28.76C86.7051 27.68 87.1476 26.48 87.389 25.16C88.0328 21.96 87.55 19.48 85.9808 17.68C84.4117 15.88 81.9172 15 78.4972 15H67.1109L61.8402 42Z" fill="#000004"/>
<defs>
<radialGradient id="paint0_radial" cx="0" cy="0" r="1" gradientUnits="userSpaceOnUse" gradientTransform="translate(30.9207 9.467) scale(67.6321 67.2382)">
<stop stop-color="white"/>
<stop offset="0.5" stop-color="#4C6B97"/>
<stop offset="1" stop-color="#231F20"/>
</radialGradient>
</defs>
</svg>
