<svg width="512" height="87" viewBox="0 0 512 87" fill="none" xmlns="http://www.w3.org/2000/svg">
<g clip-path="url(#clip0)">
<path d="M477.95 0C496.27 0 506.084 16.653 506.084 42.634C506.084 60.469 501.947 72.837 494.201 79.464L511.994 78.156V85.185H477.443C458.975 85.185 448.802 71.318 448.802 42.635C448.802 13.95 460.769 0 477.949 0H477.95ZM379.68 1.456L403.065 74.716H403.318L426.788 1.456H438.523V85.142H431.896V8.147L407.117 85.142H399.477L374.36 8.147V85.142H367.67V1.456H379.68ZM477.865 7.218C463.576 7.218 456.759 18.806 456.759 42.656C456.759 66.506 462.162 78.156 477.506 78.156C492.85 78.156 498.042 64.247 498.042 42.656C498.042 21.064 492.154 7.218 477.865 7.218V7.218Z" fill="#A9B5AF"/>
<path d="M338.923 10.025V27.375H354.352V33.158H338.944V70.305C338.944 71.972 338.544 80.583 347.682 80.583C349.943 80.5597 352.19 80.2115 354.352 79.549V85.944C352.308 86.227 350.251 86.404 348.189 86.472C344.088 86.7204 340.026 85.5502 336.686 83.158C334.153 81.048 332.908 77.333 332.908 72.246V33.18H323.663V27.397H332.908V14.057L338.923 10.027V10.025ZM207.516 1.435V38.33H207.727C208.704 34.8091 210.812 31.7072 213.726 29.5025C216.64 27.2979 220.198 26.1128 223.852 26.13C228.496 26.13 243.903 29.064 243.903 56.924C243.903 84.784 226.343 86.473 221.531 86.473C201.922 86.473 201.429 65.615 201.417 61.721V1.435H207.516V1.435ZM259.374 1.435V38.33H259.627C260.604 34.8091 262.712 31.7072 265.626 29.5025C268.54 27.2979 272.098 26.1128 275.752 26.13C280.396 26.13 295.803 29.064 295.803 56.924C295.803 84.784 278.243 86.473 273.431 86.473C253.822 86.473 253.329 65.615 253.317 61.721V1.435H259.374V1.435ZM173.408 26.087C191.631 26.087 191.468 39.283 191.455 45.353V85.143H185.439V76.974H185.186C183.222 79.9171 180.571 82.337 177.461 84.024C174.313 85.6755 170.8 86.5101 167.245 86.451C164.839 86.451 152.471 85.944 152.471 71.022C152.471 56.1 168.638 53.525 178.537 52.765C180.801 52.546 184.264 52.517 185.159 52.513H185.376V47.314V46.893L185.377 46.745V46.439C185.369 41.582 184.891 31.87 172.839 31.87C162.939 31.87 161.505 37.864 160.829 41.241H153.399C153.399 38.498 154.814 26.087 173.409 26.087H173.408ZM116.211 1.604C138.203 1.604 142.994 13.149 142.994 23.027C142.994 33.791 137.887 41.685 126.11 43.985C126.11 43.985 133.286 46.095 135.797 50.001C137.697 52.955 138.625 55.868 140.018 62.664L144.768 85.248H137.465L133.243 65.45C131.913 59.963 131.069 51.372 123.661 48.565C121.155 47.6771 118.509 47.2482 115.851 47.299H105.805V85.142H98.545V1.604H116.211ZM312.139 27.396V85.142H306.082V27.396H312.139ZM223.177 31.849C216.887 31.849 207.748 38.709 207.748 57.704C207.748 80.146 219.038 80.595 221.398 80.604H221.595C223.816 80.592 236.6 79.885 236.6 56.754L236.598 56.226C236.458 38.2 229.404 31.849 223.177 31.849ZM275.077 31.849C268.787 31.849 259.648 38.709 259.648 57.704C259.648 80.146 270.938 80.595 273.298 80.604H273.495C275.716 80.592 288.5 79.885 288.5 56.754L288.48 56.776C288.48 38.329 281.367 31.849 275.077 31.849V31.849ZM185.355 58.295L185.27 58.296C184.287 58.308 175.05 58.426 172.712 58.866C160.956 61.123 159.774 68.278 159.774 71.339C159.769 72.4325 159.993 73.5149 160.432 74.5165C160.871 75.5181 161.515 76.4166 162.322 77.1542C163.129 77.8919 164.082 78.4522 165.119 78.7993C166.156 79.1463 167.254 79.2722 168.343 79.169C172.351 79.18 176.23 77.7524 179.274 75.1458C182.318 72.5392 184.327 68.9267 184.933 64.965C185.211 62.752 185.352 60.525 185.355 58.295ZM115.388 8.105H105.805V40.629H112.433C134.953 40.629 135.65 26.699 135.65 22.879V22.739C135.625 18.075 134.34 8.105 115.388 8.105V8.105ZM313.532 1.456V11.271H304.583V1.456H313.533H313.532Z" fill="#FF6600"/>
<path d="M80.8579 34.614H53.9049C53.4607 34.6168 53.0203 34.5313 52.6093 34.3626C52.1984 34.1939 51.825 33.9452 51.5108 33.6311C51.1967 33.317 50.948 32.9436 50.7793 32.5326C50.6106 32.1216 50.5252 31.6812 50.528 31.237V4.28499C50.528 3.8425 50.4405 3.40438 50.2705 2.99583C50.1005 2.58729 49.8514 2.21639 49.5376 1.90448C49.2237 1.59257 48.8513 1.34581 48.4417 1.1784C48.0321 1.01098 47.5934 0.926219 47.151 0.928988H37.063C36.6205 0.926219 36.1818 1.01098 35.7722 1.1784C35.3626 1.34581 34.9902 1.59257 34.6763 1.90448C34.3625 2.21639 34.1134 2.58729 33.9434 2.99583C33.7734 3.40438 33.6859 3.8425 33.686 4.28499V31.237C33.6887 31.6812 33.6033 32.1216 33.4346 32.5326C33.2658 32.9436 33.0172 33.317 32.7031 33.6311C32.3889 33.9452 32.0155 34.1939 31.6046 34.3626C31.1936 34.5313 30.7532 34.6168 30.309 34.614H20.219C19.7748 34.6166 19.3345 34.5311 18.9236 34.3623C18.5128 34.1935 18.1395 33.9449 17.8255 33.6307C17.5114 33.3166 17.2629 32.9433 17.0942 32.5324C16.9256 32.1215 16.8402 31.6812 16.843 31.237V4.28499C16.8459 3.84065 16.7605 3.40016 16.5919 2.98907C16.4232 2.57797 16.1746 2.20447 15.8604 1.89022C15.5463 1.57598 15.1728 1.32724 14.7618 1.15846C14.3508 0.989675 13.9103 0.904197 13.466 0.906988H3.35595C2.91338 0.906978 2.47517 0.994507 2.06656 1.16454C1.65795 1.33456 1.28701 1.58374 0.975088 1.8977C0.663165 2.21167 0.416424 2.58423 0.249068 2.99394C0.0817129 3.40366 -0.00295121 3.84242 -4.99538e-05 4.28499V81.786C-0.00283865 82.2302 0.0826062 82.6706 0.251329 83.0816C0.420051 83.4926 0.668693 83.866 0.982834 84.1801C1.29697 84.4942 1.67036 84.7429 2.08134 84.9116C2.49231 85.0803 2.9327 85.1658 3.37695 85.163H80.8569C81.3013 85.1659 81.7418 85.0806 82.1529 84.9119C82.564 84.7432 82.9375 84.4946 83.2517 84.1805C83.566 83.8663 83.8147 83.4929 83.9835 83.0818C84.1523 82.6708 84.2377 82.2303 84.2349 81.786V38.054C84.2462 37.6045 84.167 37.1573 84.0021 36.739C83.8372 36.3207 83.5899 35.9398 83.2749 35.6189C82.9599 35.298 82.5836 35.0437 82.1684 34.8711C81.7532 34.6985 81.3076 34.611 80.8579 34.614V34.614ZM67.3079 63.234C67.3107 63.8983 67.1823 64.5566 66.93 65.1711C66.6777 65.7856 66.3065 66.3442 65.8377 66.8149C65.369 67.2856 64.8119 67.6591 64.1984 67.914C63.585 68.1688 62.9272 68.3 62.263 68.3H55.5099C54.8457 68.3 54.188 68.1688 53.5746 67.9139C52.9612 67.6591 52.4042 67.2856 51.9355 66.8149C51.4668 66.3442 51.0958 65.7855 50.8436 65.171C50.5914 64.5565 50.4631 63.8982 50.466 63.234V56.501C50.4633 55.8369 50.5918 55.1788 50.8441 54.5644C51.0964 53.9501 51.4675 53.3916 51.9362 52.9211C52.4048 52.4505 52.9617 52.0771 53.575 51.8222C54.1883 51.5674 54.8458 51.4361 55.5099 51.436H62.264C62.9282 51.4359 63.5859 51.5669 64.1994 51.8217C64.8128 52.0764 65.3699 52.4498 65.8387 52.9204C66.3074 53.391 66.6786 53.9496 66.9309 54.5641C67.1833 55.1785 67.3117 55.8368 67.3089 56.501V63.234H67.3079Z" fill="#FF6600"/>
</g>
<defs>
<clipPath id="clip0">
<rect width="512" height="87" fill="white"/>
</clipPath>
</defs>
</svg>
