<svg width="32" height="32" viewBox="0 0 32 32" fill="none" xmlns="http://www.w3.org/2000/svg">
<path fill-rule="evenodd" clip-rule="evenodd" d="M16 2C18.7689 2 21.4757 2.82109 23.778 4.35943C26.0803 5.89777 27.8747 8.08427 28.9343 10.6424C29.9939 13.2006 30.2712 16.0155 29.731 18.7313C29.1908 21.447 27.8574 23.9416 25.8995 25.8995C23.9416 27.8574 21.447 29.1908 18.7313 29.731C16.0155 30.2712 13.2006 29.9939 10.6424 28.9343C8.08427 27.8747 5.89777 26.0803 4.35943 23.778C2.82109 21.4757 2 18.7689 2 16C2 12.287 3.475 8.72601 6.1005 6.1005C8.72601 3.475 12.287 2 16 2V2Z" fill="#CC6699"/>
<path d="M24.7819 7.99201C24.1479 5.50601 20.0249 4.69201 16.1229 6.07401C13.6793 6.89516 11.4215 8.1902 9.47895 9.88501C7.32995 11.895 6.98695 13.645 7.12795 14.376C7.62795 16.956 11.1609 18.642 12.6139 19.893V19.9C12.1859 20.111 9.04995 21.7 8.31395 23.32C7.53995 25.032 8.43695 26.26 9.03195 26.425C9.92527 26.6401 10.8635 26.5701 11.715 26.2248C12.5665 25.8796 13.2886 25.2765 13.7799 24.5C14.186 23.8709 14.44 23.156 14.522 22.4117C14.6039 21.6675 14.5114 20.9143 14.2519 20.212C14.9518 20.0342 15.6793 19.9924 16.3949 20.089C18.8509 20.376 19.3329 21.909 19.2409 22.551C19.1977 22.7795 19.1057 22.9961 18.9713 23.1859C18.8369 23.3757 18.6631 23.5343 18.4619 23.651C18.2899 23.758 18.2369 23.794 18.2519 23.874C18.2729 23.989 18.3519 23.985 18.4989 23.96C18.868 23.8438 19.1932 23.6184 19.4317 23.3137C19.6702 23.009 19.8108 22.6392 19.8349 22.253C19.8939 20.753 18.4529 19.067 15.9009 19.11C15.1597 19.0888 14.4201 19.1902 13.7119 19.41C13.6765 19.3695 13.6405 19.3295 13.6039 19.29C12.0259 17.607 9.10995 16.416 9.23295 14.153C9.27795 13.33 9.56395 11.164 14.8329 8.53601C19.1529 6.38301 22.6109 6.97601 23.2089 8.28901C24.0629 10.165 21.3609 13.65 16.8749 14.153C16.3791 14.2537 15.867 14.2414 15.3766 14.1171C14.8861 13.9928 14.43 13.7597 14.0419 13.435C13.8059 13.175 13.7709 13.164 13.6829 13.212C13.5399 13.291 13.6309 13.521 13.6829 13.657C13.8547 13.9666 14.0866 14.2387 14.3649 14.4575C14.6433 14.6763 14.9625 14.8373 15.3039 14.931C17.0677 15.3143 18.9074 15.1323 20.5619 14.411C23.2829 13.362 25.4049 10.437 24.7819 7.99201V7.99201ZM13.2179 20.663C13.4166 21.3477 13.4065 22.0761 13.1889 22.755C13.1656 22.8257 13.1399 22.8957 13.1119 22.965C13.0839 23.0343 13.0536 23.101 13.0209 23.165C12.8527 23.5093 12.6347 23.8271 12.3739 24.108C11.5609 24.995 10.4239 25.331 9.93695 25.048C9.41095 24.743 9.67395 23.492 10.6169 22.495C11.3415 21.7785 12.1769 21.1835 13.0909 20.733L13.2179 20.663Z" fill="white"/>
</svg>
