<?xml version="1.0" standalone="no"?>
<!DOCTYPE svg PUBLIC "-//W3C//DTD SVG 20010904//EN"
 "http://www.w3.org/TR/2001/REC-SVG-20010904/DTD/svg10.dtd">
<svg version="1.0" xmlns="http://www.w3.org/2000/svg"
 width="712.000000pt" height="712.000000pt" viewBox="0 0 712.000000 712.000000"
 preserveAspectRatio="xMidYMid meet">
<metadata>
Created by potrace 1.16, written by Peter Selinger 2001-2019
</metadata>
<g transform="translate(0.000000,712.000000) scale(0.100000,-0.100000)"
fill="#000000" stroke="none">
<path d="M932 5574 l3 -938 818 -467 817 -468 0 942 -1 942 -806 460 c-443
253 -812 461 -820 463 -11 3 -13 -150 -11 -934z"/>
<path d="M2750 4532 l0 -939 811 -464 c447 -255 816 -465 820 -467 5 -2 9 418
9 936 l0 939 -811 464 c-447 255 -816 466 -820 467 -5 2 -9 -418 -9 -936z"/>
<path d="M5378 5003 l-818 -467 0 -939 c0 -569 4 -937 9 -935 5 2 377 212 825
468 l816 465 0 938 c0 515 -3 937 -7 937 -5 0 -376 -210 -825 -467z"/>
<path d="M2752 2457 l3 -941 810 -463 c446 -255 813 -463 818 -463 4 0 7 422
7 938 l-1 937 -701 400 c-386 220 -755 430 -820 467 l-118 67 2 -942z"/>
</g>
</svg>
