<svg width="33" height="32" viewBox="0 0 33 32" fill="none" xmlns="http://www.w3.org/2000/svg">
<g clip-path="url(#clip0)">
<path d="M27.479 25.599L21.751 16L27.479 6.401L30.282 16L27.479 25.599ZM14.812 24.667L7.615 17.599H19.084L24.812 27.198L14.812 24.667ZM14.812 7.197L24.812 4.666L19.084 14.265H7.479C7.479 14.401 14.812 7.197 14.812 7.197V7.197ZM29.479 0L16.418 3.333L14.418 6.666H10.547L0.947998 15.999L10.547 25.332H14.418L16.282 28.665L29.35 31.998L32.813 19.331L30.949 15.998L32.949 12.665L29.479 0Z" fill="#0275C8"/>
</g>
<defs>
<clipPath id="clip0">
<rect width="32" height="32" fill="white" transform="translate(0.947998)"/>
</clipPath>
</defs>
</svg>
