<?xml version="1.0" standalone="no"?>
<!DOCTYPE svg PUBLIC "-//W3C//DTD SVG 20010904//EN"
 "http://www.w3.org/TR/2001/REC-SVG-20010904/DTD/svg10.dtd">
<svg version="1.0" xmlns="http://www.w3.org/2000/svg"
 width="225.000000pt" height="225.000000pt" viewBox="0 0 225.000000 225.000000"
 preserveAspectRatio="xMidYMid meet">
<metadata>
Created by potrace 1.16, written by Peter Selinger 2001-2019
</metadata>
<g transform="translate(0.000000,225.000000) scale(0.100000,-0.100000)"
fill="#000000" stroke="none">
<path d="M1040 2244 c-409 -38 -751 -274 -924 -635 -232 -484 -91 -1061 339
-1381 224 -168 504 -246 779 -218 392 40 731 277 900 631 335 699 -124 1520
-895 1599 -98 10 -126 10 -199 4z m352 -77 c377 -98 673 -394 775 -775 24 -87
27 -115 27 -267 0 -152 -3 -180 -27 -267 -102 -380 -395 -673 -775 -775 -87
-24 -115 -27 -267 -27 -152 0 -180 3 -267 27 -380 102 -673 395 -775 775 -24
87 -27 115 -27 267 0 152 3 180 27 267 110 410 438 714 854 793 119 22 331 14
455 -18z"/>
<path d="M1005 2080 c-244 -34 -472 -159 -614 -335 -77 -96 -86 -89 101 -82
175 6 188 3 188 -40 0 -30 -28 -43 -89 -43 -28 0 -51 -3 -51 -7 0 -5 78 -238
173 -520 l173 -512 103 312 104 313 -75 205 -75 204 -54 5 c-30 3 -60 9 -66
13 -16 10 -17 53 -1 63 9 6 523 10 570 5 4 -1 10 -10 13 -22 12 -36 -20 -59
-82 -59 -36 0 -53 -4 -53 -13 0 -6 76 -239 168 -516 l168 -503 79 264 c115
380 114 441 -9 657 -31 54 -61 114 -66 132 -31 108 25 215 123 236 26 5 27 7
11 24 -28 31 -170 118 -244 150 -142 60 -352 90 -495 69z"/>
<path d="M1981 1491 c-1 -41 -6 -104 -12 -140 -7 -36 -88 -286 -180 -554 -93
-268 -169 -490 -169 -493 0 -13 127 84 186 143 123 123 213 285 256 460 32
131 30 324 -5 453 -14 52 -37 120 -51 150 l-25 55 0 -74z"/>
<path d="M222 1459 c-60 -163 -74 -385 -34 -552 66 -270 219 -471 475 -626
l37 -23 -25 69 c-14 37 -117 319 -229 627 l-204 559 -20 -54z"/>
<path d="M1132 999 c-5 -13 -69 -197 -142 -408 -102 -298 -129 -386 -119 -392
29 -17 159 -33 269 -33 82 1 141 7 208 23 50 13 92 24 92 25 0 6 -292 801
-296 805 -2 2 -7 -7 -12 -20z"/>
</g>
</svg>
